<!-- xmlns:xlink="http://www.w3.org/1999/xlink" -->

<svg xmlns="http://www.w3.org/2000/svg" style="display: none;">
  <def>
    <symbol id="magnifying-glass" viewBox="0 0 512 512">
      <path d="M504.1 471l-134-134C399.1 301.5 415.1 256.8 415.1 208c0-114.9-93.13-208-208-208S-.0002 93.13-.0002 208S93.12 416 207.1 416c48.79 0 93.55-16.91 129-45.04l134 134C475.7 509.7 481.9 512 488 512s12.28-2.344 16.97-7.031C514.3 495.6 514.3 480.4 504.1 471zM48 208c0-88.22 71.78-160 160-160s160 71.78 160 160s-71.78 160-160 160S48 296.2 48 208z"/>
    </symbol> 
    <symbol id="bars" viewBox="0 0 448 512">
      <path d="M424 392H23.1C10.8 392 0 402.8 0 415.1C0 429.2 10.8 440 23.1 440H424c13.2 0 24-10.8 24-23.1C448 402.8 437.2 392 424 392zM424 72H23.1C10.8 72 0 82.8 0 95.1S10.8 120 23.1 120H424c13.2 0 24-10.8 24-23.1S437.2 72 424 72zM424 232H23.1C10.8 232 0 242.8 0 256c0 13.2 10.8 24 23.1 24H424C437.2 280 448 269.2 448 256S437.2 232 424 232z"/>
    </symbol>
    <symbol id="arrow-right-from-bracket" viewBox="0 0 512 512">
      <path d="M192 456C192 469.3 181.3 480 168 480H96c-53.02 0-96-42.98-96-96V128c0-53.02 42.98-96 96-96h72C181.3 32 192 42.74 192 56C192 69.25 181.3 80 168 80H96C69.6 80 48 101.6 48 128v256c0 26.4 21.6 48 48 48h72C181.3 432 192 442.7 192 456zM505.5 239.6l-127.1-136c-9.094-9.688-24.28-10.12-33.91-1.031c-9.656 9.062-10.12 24.25-1.031 33.91L432.4 232H183.1C170.7 232 160 242.8 160 256s10.75 24 23.1 24h248.4l-89.92 95.56c-9.094 9.656-8.625 24.84 1.031 33.91C348.2 413.8 354.1 416 359.1 416c6.375 0 12.75-2.531 17.47-7.562l127.1-136C514.2 263.2 514.2 248.8 505.5 239.6z"/>
    </symbol>
    <symbol id="arrow-right-to-bracket" viewBox="0 0 512 512">
      <path d="M512 128v256c0 53.02-42.98 96-96 96h-72C330.7 480 320 469.3 320 456c0-13.26 10.75-24 24-24H416c26.4 0 48-21.6 48-48V128c0-26.4-21.6-48-48-48h-72C330.7 80 320 69.25 320 56C320 42.74 330.7 32 344 32H416C469 32 512 74.98 512 128zM345.5 239.6l-128-136C208.4 93.88 193.2 93.44 183.6 102.5C173.9 111.6 173.4 126.8 182.5 136.4L272.4 232H24C10.75 232 0 242.8 0 256s10.75 24 24 24h248.4l-89.92 95.56c-9.094 9.656-8.625 24.84 1.031 33.91C188.2 413.8 194.1 416 200 416c6.375 0 12.75-2.531 17.47-7.562l128-136C354.2 263.2 354.2 248.8 345.5 239.6z"/>
    </symbol>
    <symbol id="trash-can" viewBox="0 0 448 512">
      <path d="M432 80h-82.38l-34-56.75C306.1 8.827 291.4 0 274.6 0H173.4C156.6 0 141 8.827 132.4 23.25L98.38 80H16C7.125 80 0 87.13 0 96v16C0 120.9 7.125 128 16 128H32v320c0 35.35 28.65 64 64 64h256c35.35 0 64-28.65 64-64V128h16C440.9 128 448 120.9 448 112V96C448 87.13 440.9 80 432 80zM171.9 50.88C172.9 49.13 174.9 48 177 48h94c2.125 0 4.125 1.125 5.125 2.875L293.6 80H154.4L171.9 50.88zM352 464H96c-8.837 0-16-7.163-16-16V128h288v320C368 456.8 360.8 464 352 464zM224 416c8.844 0 16-7.156 16-16V192c0-8.844-7.156-16-16-16S208 183.2 208 192v208C208 408.8 215.2 416 224 416zM144 416C152.8 416 160 408.8 160 400V192c0-8.844-7.156-16-16-16S128 183.2 128 192v208C128 408.8 135.2 416 144 416zM304 416c8.844 0 16-7.156 16-16V192c0-8.844-7.156-16-16-16S288 183.2 288 192v208C288 408.8 295.2 416 304 416z"/>
    </symbol>
    <symbol id="home" viewBox="0 0 576 512">
      <path d="M576 247.1c0-6.802-2.877-13.56-8.471-18.31l-263.1-224c-4.484-3.781-10.01-5.669-15.53-5.669S276.1 1.891 272.5 5.672L8.471 229.7C2.877 234.4 0 241.2 0 247.1C0 264.1 13.83 271.1 24.02 271.1c5.479 0 10.99-1.867 15.51-5.687l24.47-20.76v226.5C64 494.1 81.94 512 104 512h95.1c22.06 0 39.1-17.94 39.1-40l.0056-120h95.1l-.0032 120C335.1 494.1 353.9 512 375.1 512h95.1c22.06 0 39.1-17.94 39.1-40V245.5L536.5 266.3c4.516 3.813 10.03 5.688 15.52 5.688C562.1 271.1 576 263.1 576 247.1zM463.1 463.1H383.1v-120c0-22.06-17.94-40-39.1-40H232c-22.06 0-39.1 17.94-39.1 40v120H112V207.1c0-.9629-.4375-1.783-.5488-2.717L288 55.45l175.1 149.4V463.1z"/>
    </symbol>
    <symbol id="circle-exclamation" viewBox="0 0 512 512">
      <path d="M256 0C114.6 0 0 114.6 0 256s114.6 256 256 256s256-114.6 256-256S397.4 0 256 0zM256 464c-114.7 0-208-93.31-208-208S141.3 48 256 48s208 93.31 208 208S370.7 464 256 464zM256 304c13.25 0 24-10.75 24-24v-128C280 138.8 269.3 128 256 128S232 138.8 232 152v128C232 293.3 242.8 304 256 304zM256 337.1c-17.36 0-31.44 14.08-31.44 31.44C224.6 385.9 238.6 400 256 400s31.44-14.08 31.44-31.44C287.4 351.2 273.4 337.1 256 337.1z"/>
    </symbol>
    <symbol id="chevron-up" viewBox="0 0 448 512">
      <path d="M15.41 302.7l191.1-183.1C212 114.2 218 111.1 224 111.1s11.97 2.219 16.59 6.688l191.1 183.1c9.594 9.152 9.906 24.34 .7187 33.9c-9.125 9.625-24.38 9.938-33.91 .7187L224 169.2l-175.4 168c-9.5 9.219-24.78 8.906-33.91-.7187C5.502 327 5.814 311.8 15.41 302.7z"/>
    </symbol>
    <symbol id="chevron-down" viewBox="0 0 448 512">
      <path d="M432.6 209.3l-191.1 183.1C235.1 397.8 229.1 400 224 400s-11.97-2.219-16.59-6.688L15.41 209.3C5.814 200.2 5.502 184.1 14.69 175.4c9.125-9.625 24.38-9.938 33.91-.7187L224 342.8l175.4-168c9.5-9.219 24.78-8.906 33.91 .7187C442.5 184.1 442.2 200.2 432.6 209.3z"/>
    </symbol>
    <symbol id="chevron-left" viewBox="0 0 320 512">
      <path d="M206.7 464.6l-183.1-191.1C18.22 267.1 16 261.1 16 256s2.219-11.97 6.688-16.59l183.1-191.1c9.152-9.594 24.34-9.906 33.9-.7187c9.625 9.125 9.938 24.37 .7187 33.91L73.24 256l168 175.4c9.219 9.5 8.906 24.78-.7187 33.91C231 474.5 215.8 474.2 206.7 464.6z"/>
    </symbol>
    <symbol id="chevron-right" viewBox="0 0 320 512">
      <path d="M113.3 47.41l183.1 191.1c4.469 4.625 6.688 10.62 6.688 16.59s-2.219 11.97-6.688 16.59l-183.1 191.1c-9.152 9.594-24.34 9.906-33.9 .7187c-9.625-9.125-9.938-24.38-.7187-33.91l168-175.4L78.71 80.6c-9.219-9.5-8.906-24.78 .7187-33.91C88.99 37.5 104.2 37.82 113.3 47.41z"/>
    </symbol>
    <symbol id="caret-up" viewBox="0 0 320 512">
      <path d="M9.39 265.4l127.1-128C143.6 131.1 151.8 128 160 128s16.38 3.125 22.63 9.375l127.1 128c9.156 9.156 11.9 22.91 6.943 34.88S300.9 320 287.1 320H32.01c-12.94 0-24.62-7.781-29.58-19.75S.2333 274.5 9.39 265.4z"/>
    </symbol>
    <symbol id="caret-down" viewBox="0 0 320 512">
      <path d="M310.6 246.6l-127.1 128C176.4 380.9 168.2 384 160 384s-16.38-3.125-22.63-9.375l-127.1-128C.2244 237.5-2.516 223.7 2.438 211.8S19.07 192 32 192h255.1c12.94 0 24.62 7.781 29.58 19.75S319.8 237.5 310.6 246.6z"/>
    </symbol>
    <symbol id="caret-left" viewBox="0 0 256 512">
      <path d="M137.4 406.6l-128-127.1C3.125 272.4 0 264.2 0 255.1s3.125-16.38 9.375-22.63l128-127.1c9.156-9.156 22.91-11.9 34.88-6.943S192 115.1 192 128v255.1c0 12.94-7.781 24.62-19.75 29.58S146.5 415.8 137.4 406.6z"/>
    </symbol>
    <symbol id="caret-right" viewBox="0 0 256 512">
      <path d="M118.6 105.4l128 127.1C252.9 239.6 256 247.8 256 255.1s-3.125 16.38-9.375 22.63l-128 127.1c-9.156 9.156-22.91 11.9-34.88 6.943S64 396.9 64 383.1V128c0-12.94 7.781-24.62 19.75-29.58S109.5 96.23 118.6 105.4z"/>
    </symbol>
    <symbol id="arrow-left-to-line" viewBox="0 0 448 512">
      <path d="M48.03 424V88c0-13.25-10.76-24-24.02-24S0 74.75 0 88v336C0 437.3 10.76 448 24.02 448S48.03 437.3 48.03 424zM272.3 366.5L180.3 280h243.6C437.2 280 448 269.3 448 256s-10.76-23.1-24.02-23.1H180.3l91.98-86.53c5.035-4.719 7.568-11.09 7.568-17.47c0-5.906-2.158-11.81-6.536-16.44c-9.069-9.656-24.27-10.12-33.93-1.031l-136.1 128c-9.694 9.062-9.694 25.87 0 34.94l136.1 128c9.663 9.094 24.86 8.625 33.93-1.031C282.5 390.8 282 375.6 272.3 366.5z"/>
    </symbol>
    <symbol id="arrow-right-to-line" viewBox="0 0 448 512">
      <path d="M399.1 88v336c0 13.25 10.76 24 24.02 24C437.2 448 448 437.3 448 424V88C448 74.75 437.2 64 423.1 64C410.7 64 399.1 74.75 399.1 88zM175.7 145.5l91.98 86.53h-243.6C10.76 232 0 242.8 0 256s10.76 24 24.02 24h243.6l-91.98 86.53C170.6 371.3 168.1 377.6 168.1 384c0 5.906 2.158 11.81 6.536 16.44c9.069 9.656 24.27 10.12 33.93 1.031l136.1-128c9.694-9.062 9.694-25.87 0-34.94l-136.1-128C198.9 101.4 183.7 101.9 174.6 111.6C165.5 121.2 165.1 136.4 175.7 145.5z"/>
    </symbol>
    <symbol id="xmark" viewBox="0 0 320 512">
      <path d="M312.1 375c9.369 9.369 9.369 24.57 0 33.94s-24.57 9.369-33.94 0L160 289.9l-119 119c-9.369 9.369-24.57 9.369-33.94 0s-9.369-24.57 0-33.94L126.1 256L7.027 136.1c-9.369-9.369-9.369-24.57 0-33.94s24.57-9.369 33.94 0L160 222.1l119-119c9.369-9.369 24.57-9.369 33.94 0s9.369 24.57 0 33.94L193.9 256L312.1 375z"/>
    </symbol>
    <symbol id="bag-shopping" viewBox="0 0 448 512">
      <path d="M416 160h-72V120C344 53.83 290.2 0 224 0S104 53.83 104 120V160H32C14.33 160 0 174.3 0 192v240C0 476.2 35.82 512 80 512h288c44.18 0 80-35.82 80-80V192C448 174.3 433.7 160 416 160zM152 120C152 80.3 184.3 48 224 48s72 32.3 72 72V160h-144V120zM400 432c0 17.64-14.36 32-32 32h-288c-17.64 0-32-14.36-32-32v-224h56v56C104 277.3 114.8 288 128 288s24-10.75 24-24V208h144v56C296 277.3 306.8 288 320 288s24-10.75 24-24V208h56V432z"/>
    </symbol>
    <symbol id="truck-fast" viewBox="0 0 640 512">
      <path d="M616 368H608V251.9c0-19-7.75-37.5-21.12-50.88l-83.96-83.96C489.4 103.6 471.2 96 452.1 96H416V56C416 25.07 390.9 0 360 0h-240C89.07 0 64 25.07 64 56V96H15.1C7.2 96 0 103.2 0 111.1S7.2 128 15.1 128h224C248.8 128 256 120.8 256 112S248.8 96 240 96H112V56c0-4.4 3.6-8 8-8h240c4.4 0 8 3.6 8 8v312H242.8C226.1 339.4 195.5 320 160 320c-17.62 0-33.75 5.125-48 13.25V288H64l0 124.8c0 52.84 41.32 98.19 94.16 99.18C212 512.1 256 469.6 256 416h128c0 53 43 96 96 96s96-43 96-96h40c13.2 0 24-10.8 24-23.1S629.2 368 616 368zM160 464c-26.5 0-48-21.5-48-48s21.5-48 48-48s48 21.5 48 48S186.5 464 160 464zM416 144h36.13c6.25 0 12.5 2.625 17 7L542.1 224H416V144zM480 464c-26.5 0-48-21.5-48-48s21.5-48 48-48s48 21.5 48 48S506.5 464 480 464zM560 363.1C542.8 337.2 513.4 320 480 320c-24.75 0-47 9.625-64 24.88V272h144V363.1zM256 240C256 231.2 248.8 224 240 224h-224C7.2 224 0 231.2 0 240S7.2 256 15.1 256h224C248.8 256 256 248.8 256 240zM272 192C280.8 192 288 184.8 288 176C288 167.2 280.8 160 272 160h-224C39.2 160 32 167.2 32 176S39.2 192 47.1 192H272z"/>
    </symbol>
    <symbol id="location-dot" viewBox="0 0 384 512">
      <path d="M192 0C85.97 0 0 85.97 0 192c0 77.41 26.97 99.03 172.3 309.7C177 508.6 184.5 512 192 512s14.95-3.441 19.72-10.32C357 291 384 269.4 384 192C384 85.97 298 0 192 0zM192 445.8c-17.69-25.46-33.42-47.87-47.38-67.75C57.56 254.1 48 238.9 48 192c0-79.4 64.6-144 144-144s144 64.6 144 144c0 46.88-9.562 62.07-96.62 186.1C225.4 397.1 209.7 420.4 192 445.8zM192 111.1c-44.18 0-80 35.82-80 80S147.8 271.1 192 271.1c44.18 0 80-35.82 80-80S236.2 111.1 192 111.1zM192 224C174.4 224 160 209.6 160 192s14.36-32 32-32s32 14.36 32 32S209.6 224 192 224z"/>
    </symbol>
    <symbol id="badge-check" viewBox="0 0 576 512">
      <path d="M543.8 256c0-36.5-18.86-68.38-46.86-86.75c6.875-32.88-2.517-68.63-28.14-94.25c-25.62-25.75-61.61-35.13-94.36-28.25C355.1 18.75 324.1 0 287.8 0S219.5 18.75 200.1 46.75C168.1 39.88 132.5 49.38 106.8 75C81.09 100.6 71.61 136.5 78.48 169.3C50.36 187.8 31.84 219.8 31.84 256s18.64 68.25 46.64 86.75C71.61 375.6 81.21 411.4 106.8 437c25.62 25.75 61.14 35.13 94.14 28.25C219.5 493.4 251.6 512 287.8 512c36.38 0 68.14-18.75 86.64-46.75c33 6.875 68.73-2.625 94.36-28.25c25.75-25.62 35.02-61.5 28.14-94.25C525.1 324.3 543.8 292.3 543.8 256zM435.5 317.3c9 20 30.25 54.88-.75 85.88c-28 28-55.25 14.5-85.75 .625C341.2 424.4 331.6 464 287.7 464c-45.25 0-54.75-42.75-61.25-60.25C205.5 413.4 171.6 434 140.6 403c-32-32-8.375-68.88-.625-85.75C119.4 309.5 79.73 299.9 79.73 256c0-45.25 42.75-54.75 60.25-61.25c-9-20-30.25-54.88 .75-85.88c32-32 68.88-8.375 85.75-.625C234.2 87.63 243.9 48 287.7 48c45.25 0 54.75 42.75 61.25 60.38c19.88-9.125 54.75-30.25 85.75 .75c32 32 8.375 68.88 .75 85.75c20.5 7.75 60.13 17.38 60.13 61.25C495.6 301.4 452.9 310.8 435.5 317.3zM384.1 183c9.375 9.375 9.375 24.56 0 33.94l-112 112C268.3 333.7 262.1 336 256 336s-12.28-2.344-16.97-7.031l-48-48c-9.375-9.375-9.375-24.56 0-33.94s24.56-9.375 33.94 0L256 278.1l95.03-95.03C360.4 173.7 375.6 173.7 384.1 183z"/>
    </symbol>
    <symbol id="right-long" viewBox="0 0 512 512">
      <path d="M366.3 381.1c-8.758-3.811-14.42-12.45-14.42-21.1l.0004-80H24c-13.25 0-24-10.75-24-23.1s10.75-24 24-24h327.9l-.0004-79.1c0-9.547 5.66-18.19 14.42-22c8.754-3.811 18.95-2.075 25.94 4.41l112.1 104c10.23 9.5 10.23 25.69 0 35.19l-112.1 104C385.3 384.1 375.1 385.8 366.3 381.1z"/>
    </symbol>
    </def>
</svg>