<!-- xmlns:xlink="http://www.w3.org/1999/xlink" -->

<svg xmlns="http://www.w3.org/2000/svg" style="display: none;">
  <def>
    <symbol id="magnifying-glass" viewBox="0 0 512 512">
      <path d="M504.1 471l-134-134C399.1 301.5 415.1 256.8 415.1 208c0-114.9-93.13-208-208-208S-.0002 93.13-.0002 208S93.12 416 207.1 416c48.79 0 93.55-16.91 129-45.04l134 134C475.7 509.7 481.9 512 488 512s12.28-2.344 16.97-7.031C514.3 495.6 514.3 480.4 504.1 471zM48 208c0-88.22 71.78-160 160-160s160 71.78 160 160s-71.78 160-160 160S48 296.2 48 208z"/>
    </symbol>
    <symbol id="bars" viewBox="0 0 448 512">
      <path d="M424 392H23.1C10.8 392 0 402.8 0 415.1C0 429.2 10.8 440 23.1 440H424c13.2 0 24-10.8 24-23.1C448 402.8 437.2 392 424 392zM424 72H23.1C10.8 72 0 82.8 0 95.1S10.8 120 23.1 120H424c13.2 0 24-10.8 24-23.1S437.2 72 424 72zM424 232H23.1C10.8 232 0 242.8 0 256c0 13.2 10.8 24 23.1 24H424C437.2 280 448 269.2 448 256S437.2 232 424 232z"/>
    </symbol>
    <symbol id="arrow-right-from-bracket" viewBox="0 0 512 512">
      <path d="M192 456C192 469.3 181.3 480 168 480H96c-53.02 0-96-42.98-96-96V128c0-53.02 42.98-96 96-96h72C181.3 32 192 42.74 192 56C192 69.25 181.3 80 168 80H96C69.6 80 48 101.6 48 128v256c0 26.4 21.6 48 48 48h72C181.3 432 192 442.7 192 456zM505.5 239.6l-127.1-136c-9.094-9.688-24.28-10.12-33.91-1.031c-9.656 9.062-10.12 24.25-1.031 33.91L432.4 232H183.1C170.7 232 160 242.8 160 256s10.75 24 23.1 24h248.4l-89.92 95.56c-9.094 9.656-8.625 24.84 1.031 33.91C348.2 413.8 354.1 416 359.1 416c6.375 0 12.75-2.531 17.47-7.562l127.1-136C514.2 263.2 514.2 248.8 505.5 239.6z"/>
    </symbol>
    <symbol id="arrow-right-to-bracket" viewBox="0 0 512 512">
      <path d="M512 128v256c0 53.02-42.98 96-96 96h-72C330.7 480 320 469.3 320 456c0-13.26 10.75-24 24-24H416c26.4 0 48-21.6 48-48V128c0-26.4-21.6-48-48-48h-72C330.7 80 320 69.25 320 56C320 42.74 330.7 32 344 32H416C469 32 512 74.98 512 128zM345.5 239.6l-128-136C208.4 93.88 193.2 93.44 183.6 102.5C173.9 111.6 173.4 126.8 182.5 136.4L272.4 232H24C10.75 232 0 242.8 0 256s10.75 24 24 24h248.4l-89.92 95.56c-9.094 9.656-8.625 24.84 1.031 33.91C188.2 413.8 194.1 416 200 416c6.375 0 12.75-2.531 17.47-7.562l128-136C354.2 263.2 354.2 248.8 345.5 239.6z"/>
    </symbol>
    <symbol id="trash-can" viewBox="0 0 448 512">
      <path d="M432 80h-82.38l-34-56.75C306.1 8.827 291.4 0 274.6 0H173.4C156.6 0 141 8.827 132.4 23.25L98.38 80H16C7.125 80 0 87.13 0 96v16C0 120.9 7.125 128 16 128H32v320c0 35.35 28.65 64 64 64h256c35.35 0 64-28.65 64-64V128h16C440.9 128 448 120.9 448 112V96C448 87.13 440.9 80 432 80zM171.9 50.88C172.9 49.13 174.9 48 177 48h94c2.125 0 4.125 1.125 5.125 2.875L293.6 80H154.4L171.9 50.88zM352 464H96c-8.837 0-16-7.163-16-16V128h288v320C368 456.8 360.8 464 352 464zM224 416c8.844 0 16-7.156 16-16V192c0-8.844-7.156-16-16-16S208 183.2 208 192v208C208 408.8 215.2 416 224 416zM144 416C152.8 416 160 408.8 160 400V192c0-8.844-7.156-16-16-16S128 183.2 128 192v208C128 408.8 135.2 416 144 416zM304 416c8.844 0 16-7.156 16-16V192c0-8.844-7.156-16-16-16S288 183.2 288 192v208C288 408.8 295.2 416 304 416z"/>
    </symbol>
    <symbol id="home" viewBox="0 0 576 512">
      <path d="M576 247.1c0-6.802-2.877-13.56-8.471-18.31l-263.1-224c-4.484-3.781-10.01-5.669-15.53-5.669S276.1 1.891 272.5 5.672L8.471 229.7C2.877 234.4 0 241.2 0 247.1C0 264.1 13.83 271.1 24.02 271.1c5.479 0 10.99-1.867 15.51-5.687l24.47-20.76v226.5C64 494.1 81.94 512 104 512h95.1c22.06 0 39.1-17.94 39.1-40l.0056-120h95.1l-.0032 120C335.1 494.1 353.9 512 375.1 512h95.1c22.06 0 39.1-17.94 39.1-40V245.5L536.5 266.3c4.516 3.813 10.03 5.688 15.52 5.688C562.1 271.1 576 263.1 576 247.1zM463.1 463.1H383.1v-120c0-22.06-17.94-40-39.1-40H232c-22.06 0-39.1 17.94-39.1 40v120H112V207.1c0-.9629-.4375-1.783-.5488-2.717L288 55.45l175.1 149.4V463.1z"/>
    </symbol>
    <symbol id="circle-exclamation" viewBox="0 0 512 512">
      <path d="M256 0C114.6 0 0 114.6 0 256s114.6 256 256 256s256-114.6 256-256S397.4 0 256 0zM256 464c-114.7 0-208-93.31-208-208S141.3 48 256 48s208 93.31 208 208S370.7 464 256 464zM256 304c13.25 0 24-10.75 24-24v-128C280 138.8 269.3 128 256 128S232 138.8 232 152v128C232 293.3 242.8 304 256 304zM256 337.1c-17.36 0-31.44 14.08-31.44 31.44C224.6 385.9 238.6 400 256 400s31.44-14.08 31.44-31.44C287.4 351.2 273.4 337.1 256 337.1z"/>
    </symbol>
    <symbol id="chevron-up" viewBox="0 0 448 512">
      <path d="M15.41 302.7l191.1-183.1C212 114.2 218 111.1 224 111.1s11.97 2.219 16.59 6.688l191.1 183.1c9.594 9.152 9.906 24.34 .7187 33.9c-9.125 9.625-24.38 9.938-33.91 .7187L224 169.2l-175.4 168c-9.5 9.219-24.78 8.906-33.91-.7187C5.502 327 5.814 311.8 15.41 302.7z"/>
    </symbol>
    <symbol id="chevron-down" viewBox="0 0 448 512">
      <path d="M432.6 209.3l-191.1 183.1C235.1 397.8 229.1 400 224 400s-11.97-2.219-16.59-6.688L15.41 209.3C5.814 200.2 5.502 184.1 14.69 175.4c9.125-9.625 24.38-9.938 33.91-.7187L224 342.8l175.4-168c9.5-9.219 24.78-8.906 33.91 .7187C442.5 184.1 442.2 200.2 432.6 209.3z"/>
    </symbol>
    <symbol id="chevron-left" viewBox="0 0 320 512">
      <path d="M206.7 464.6l-183.1-191.1C18.22 267.1 16 261.1 16 256s2.219-11.97 6.688-16.59l183.1-191.1c9.152-9.594 24.34-9.906 33.9-.7187c9.625 9.125 9.938 24.37 .7187 33.91L73.24 256l168 175.4c9.219 9.5 8.906 24.78-.7187 33.91C231 474.5 215.8 474.2 206.7 464.6z"/>
    </symbol>
    <symbol id="chevron-right" viewBox="0 0 320 512">
      <path d="M113.3 47.41l183.1 191.1c4.469 4.625 6.688 10.62 6.688 16.59s-2.219 11.97-6.688 16.59l-183.1 191.1c-9.152 9.594-24.34 9.906-33.9 .7187c-9.625-9.125-9.938-24.38-.7187-33.91l168-175.4L78.71 80.6c-9.219-9.5-8.906-24.78 .7187-33.91C88.99 37.5 104.2 37.82 113.3 47.41z"/>
    </symbol>
    <symbol id="caret-up" viewBox="0 0 320 512">
      <path d="M9.39 265.4l127.1-128C143.6 131.1 151.8 128 160 128s16.38 3.125 22.63 9.375l127.1 128c9.156 9.156 11.9 22.91 6.943 34.88S300.9 320 287.1 320H32.01c-12.94 0-24.62-7.781-29.58-19.75S.2333 274.5 9.39 265.4z"/>
    </symbol>
    <symbol id="caret-down" viewBox="0 0 320 512">
      <path d="M310.6 246.6l-127.1 128C176.4 380.9 168.2 384 160 384s-16.38-3.125-22.63-9.375l-127.1-128C.2244 237.5-2.516 223.7 2.438 211.8S19.07 192 32 192h255.1c12.94 0 24.62 7.781 29.58 19.75S319.8 237.5 310.6 246.6z"/>
    </symbol>
    <symbol id="caret-left" viewBox="0 0 256 512">
      <path d="M137.4 406.6l-128-127.1C3.125 272.4 0 264.2 0 255.1s3.125-16.38 9.375-22.63l128-127.1c9.156-9.156 22.91-11.9 34.88-6.943S192 115.1 192 128v255.1c0 12.94-7.781 24.62-19.75 29.58S146.5 415.8 137.4 406.6z"/>
    </symbol>
    <symbol id="caret-right" viewBox="0 0 256 512">
      <path d="M118.6 105.4l128 127.1C252.9 239.6 256 247.8 256 255.1s-3.125 16.38-9.375 22.63l-128 127.1c-9.156 9.156-22.91 11.9-34.88 6.943S64 396.9 64 383.1V128c0-12.94 7.781-24.62 19.75-29.58S109.5 96.23 118.6 105.4z"/>
    </symbol>
    <symbol id="arrow-left-to-line" viewBox="0 0 448 512">
      <path d="M48.03 424V88c0-13.25-10.76-24-24.02-24S0 74.75 0 88v336C0 437.3 10.76 448 24.02 448S48.03 437.3 48.03 424zM272.3 366.5L180.3 280h243.6C437.2 280 448 269.3 448 256s-10.76-23.1-24.02-23.1H180.3l91.98-86.53c5.035-4.719 7.568-11.09 7.568-17.47c0-5.906-2.158-11.81-6.536-16.44c-9.069-9.656-24.27-10.12-33.93-1.031l-136.1 128c-9.694 9.062-9.694 25.87 0 34.94l136.1 128c9.663 9.094 24.86 8.625 33.93-1.031C282.5 390.8 282 375.6 272.3 366.5z"/>
    </symbol>
    <symbol id="arrow-right-to-line" viewBox="0 0 448 512">
      <path d="M399.1 88v336c0 13.25 10.76 24 24.02 24C437.2 448 448 437.3 448 424V88C448 74.75 437.2 64 423.1 64C410.7 64 399.1 74.75 399.1 88zM175.7 145.5l91.98 86.53h-243.6C10.76 232 0 242.8 0 256s10.76 24 24.02 24h243.6l-91.98 86.53C170.6 371.3 168.1 377.6 168.1 384c0 5.906 2.158 11.81 6.536 16.44c9.069 9.656 24.27 10.12 33.93 1.031l136.1-128c9.694-9.062 9.694-25.87 0-34.94l-136.1-128C198.9 101.4 183.7 101.9 174.6 111.6C165.5 121.2 165.1 136.4 175.7 145.5z"/>
    </symbol>
    <symbol id="xmark" viewBox="0 0 320 512">
      <path d="M312.1 375c9.369 9.369 9.369 24.57 0 33.94s-24.57 9.369-33.94 0L160 289.9l-119 119c-9.369 9.369-24.57 9.369-33.94 0s-9.369-24.57 0-33.94L126.1 256L7.027 136.1c-9.369-9.369-9.369-24.57 0-33.94s24.57-9.369 33.94 0L160 222.1l119-119c9.369-9.369 24.57-9.369 33.94 0s9.369 24.57 0 33.94L193.9 256L312.1 375z"/>
    </symbol>
    <symbol id="bag-shopping" viewBox="0 0 448 512">
      <path d="M416 160h-72V120C344 53.83 290.2 0 224 0S104 53.83 104 120V160H32C14.33 160 0 174.3 0 192v240C0 476.2 35.82 512 80 512h288c44.18 0 80-35.82 80-80V192C448 174.3 433.7 160 416 160zM152 120C152 80.3 184.3 48 224 48s72 32.3 72 72V160h-144V120zM400 432c0 17.64-14.36 32-32 32h-288c-17.64 0-32-14.36-32-32v-224h56v56C104 277.3 114.8 288 128 288s24-10.75 24-24V208h144v56C296 277.3 306.8 288 320 288s24-10.75 24-24V208h56V432z"/>
    </symbol>
    <symbol id="truck-fast" viewBox="0 0 640 512">
      <path d="M616 368H608V251.9c0-19-7.75-37.5-21.12-50.88l-83.96-83.96C489.4 103.6 471.2 96 452.1 96H416V56C416 25.07 390.9 0 360 0h-240C89.07 0 64 25.07 64 56V96H15.1C7.2 96 0 103.2 0 111.1S7.2 128 15.1 128h224C248.8 128 256 120.8 256 112S248.8 96 240 96H112V56c0-4.4 3.6-8 8-8h240c4.4 0 8 3.6 8 8v312H242.8C226.1 339.4 195.5 320 160 320c-17.62 0-33.75 5.125-48 13.25V288H64l0 124.8c0 52.84 41.32 98.19 94.16 99.18C212 512.1 256 469.6 256 416h128c0 53 43 96 96 96s96-43 96-96h40c13.2 0 24-10.8 24-23.1S629.2 368 616 368zM160 464c-26.5 0-48-21.5-48-48s21.5-48 48-48s48 21.5 48 48S186.5 464 160 464zM416 144h36.13c6.25 0 12.5 2.625 17 7L542.1 224H416V144zM480 464c-26.5 0-48-21.5-48-48s21.5-48 48-48s48 21.5 48 48S506.5 464 480 464zM560 363.1C542.8 337.2 513.4 320 480 320c-24.75 0-47 9.625-64 24.88V272h144V363.1zM256 240C256 231.2 248.8 224 240 224h-224C7.2 224 0 231.2 0 240S7.2 256 15.1 256h224C248.8 256 256 248.8 256 240zM272 192C280.8 192 288 184.8 288 176C288 167.2 280.8 160 272 160h-224C39.2 160 32 167.2 32 176S39.2 192 47.1 192H272z"/>
    </symbol>
    <symbol id="location-dot" viewBox="0 0 384 512">
      <path d="M192 0C85.97 0 0 85.97 0 192c0 77.41 26.97 99.03 172.3 309.7C177 508.6 184.5 512 192 512s14.95-3.441 19.72-10.32C357 291 384 269.4 384 192C384 85.97 298 0 192 0zM192 445.8c-17.69-25.46-33.42-47.87-47.38-67.75C57.56 254.1 48 238.9 48 192c0-79.4 64.6-144 144-144s144 64.6 144 144c0 46.88-9.562 62.07-96.62 186.1C225.4 397.1 209.7 420.4 192 445.8zM192 111.1c-44.18 0-80 35.82-80 80S147.8 271.1 192 271.1c44.18 0 80-35.82 80-80S236.2 111.1 192 111.1zM192 224C174.4 224 160 209.6 160 192s14.36-32 32-32s32 14.36 32 32S209.6 224 192 224z"/>
    </symbol>
    <symbol id="badge-check" viewBox="0 0 576 512">
      <path d="M543.8 256c0-36.5-18.86-68.38-46.86-86.75c6.875-32.88-2.517-68.63-28.14-94.25c-25.62-25.75-61.61-35.13-94.36-28.25C355.1 18.75 324.1 0 287.8 0S219.5 18.75 200.1 46.75C168.1 39.88 132.5 49.38 106.8 75C81.09 100.6 71.61 136.5 78.48 169.3C50.36 187.8 31.84 219.8 31.84 256s18.64 68.25 46.64 86.75C71.61 375.6 81.21 411.4 106.8 437c25.62 25.75 61.14 35.13 94.14 28.25C219.5 493.4 251.6 512 287.8 512c36.38 0 68.14-18.75 86.64-46.75c33 6.875 68.73-2.625 94.36-28.25c25.75-25.62 35.02-61.5 28.14-94.25C525.1 324.3 543.8 292.3 543.8 256zM435.5 317.3c9 20 30.25 54.88-.75 85.88c-28 28-55.25 14.5-85.75 .625C341.2 424.4 331.6 464 287.7 464c-45.25 0-54.75-42.75-61.25-60.25C205.5 413.4 171.6 434 140.6 403c-32-32-8.375-68.88-.625-85.75C119.4 309.5 79.73 299.9 79.73 256c0-45.25 42.75-54.75 60.25-61.25c-9-20-30.25-54.88 .75-85.88c32-32 68.88-8.375 85.75-.625C234.2 87.63 243.9 48 287.7 48c45.25 0 54.75 42.75 61.25 60.38c19.88-9.125 54.75-30.25 85.75 .75c32 32 8.375 68.88 .75 85.75c20.5 7.75 60.13 17.38 60.13 61.25C495.6 301.4 452.9 310.8 435.5 317.3zM384.1 183c9.375 9.375 9.375 24.56 0 33.94l-112 112C268.3 333.7 262.1 336 256 336s-12.28-2.344-16.97-7.031l-48-48c-9.375-9.375-9.375-24.56 0-33.94s24.56-9.375 33.94 0L256 278.1l95.03-95.03C360.4 173.7 375.6 173.7 384.1 183z"/>
    </symbol>
    <symbol id="right-long" viewBox="0 0 512 512">
      <path d="M366.3 381.1c-8.758-3.811-14.42-12.45-14.42-21.1l.0004-80H24c-13.25 0-24-10.75-24-23.1s10.75-24 24-24h327.9l-.0004-79.1c0-9.547 5.66-18.19 14.42-22c8.754-3.811 18.95-2.075 25.94 4.41l112.1 104c10.23 9.5 10.23 25.69 0 35.19l-112.1 104C385.3 384.1 375.1 385.8 366.3 381.1z"/>
    </symbol>
    <symbol id="nike" viewBox="0 0 250 90">
      <g clip-path="url(#clip0_86_20)">
        <path d="M27.5769 89.0609C20.1279 88.765 14.0335 86.7267 9.26823 82.941C8.35879 82.2178 6.1917 80.0494 5.46466 79.1349C3.53227 76.7051 2.21849 74.3403 1.34222 71.7165C-1.35421 63.64 0.0335455 53.0418 5.3116 41.4105C9.83073 31.4526 16.8039 21.5763 28.9697 7.89776C30.7618 5.88498 36.0985 -0.00146484 36.133 -0.00146484C36.1457 -0.00146484 35.8549 0.502358 35.4889 1.11588C32.3256 6.41433 29.619 12.6554 28.1445 18.0585C25.7759 26.7281 26.0616 34.1681 28.9812 39.9372C30.9952 43.9117 34.448 47.3543 38.3307 49.2574C45.1279 52.5877 55.0794 52.8633 67.2324 50.0635C68.0692 49.8696 109.531 38.8633 159.37 25.6044C209.209 12.3442 249.994 1.50363 250 1.51256C250.014 1.52406 134.209 51.0775 74.0934 76.7854C64.573 80.8556 62.0271 81.8836 57.5513 83.455C46.11 87.4729 35.8613 89.39 27.5769 89.0609Z" fill="black"/>
      </g>
      <defs>
        <clipPath id="clip0_86_20">
          <rect width="250" height="89.0975" fill="white"/>
        </clipPath>
      </defs>
    </symbol>
    <symbol id="adidas" viewBox="0 0 250 173">
      <path d="M163.429 112.657L112.563 24.2565L149.105 3.26733L212.356 112.657H163.429Z" fill="black"/>
      <path d="M27.9448 100.271L64.4868 79.1404L83.8214 112.657H35.0358L27.9448 100.271Z" fill="black"/>
      <path d="M99.6577 169.053H110.058V126.98H99.6577V169.053Z" fill="black"/>
      <path d="M229.989 170.046C218.36 170.046 211.364 164.043 210.985 155.581H221.953C221.953 158.228 223.607 162.104 230.698 162.246C235.425 162.246 237.647 159.457 237.647 157.377C237.364 154.068 233.204 153.784 228.76 153.075C224.316 152.366 220.535 151.563 217.793 150.144C214.294 148.348 211.931 144.472 211.931 140.028C211.931 132.512 218.454 126.555 229.327 126.555C239.869 126.555 246.535 132.086 247.244 140.312H236.655C236.56 138.09 236.135 134.592 229.895 134.592C225.687 134.592 222.898 135.442 222.662 138.373C222.662 142.675 231.407 142.392 238.215 144.188C244.738 145.843 248.898 149.908 248.898 155.581C248.898 166.028 240.436 170.046 229.989 170.046Z" fill="black"/>
      <path d="M70.7739 62.7368L107.316 41.6531L148.301 112.657H110.058V123.057H99.6577V112.61L70.7739 62.7368Z" fill="black"/>
      <path d="M71.7193 170.046C59.6174 170.046 49.7847 160.166 49.7847 148.206C49.7847 136.104 59.6174 126.555 71.7193 126.555C76.3048 126.555 80.4648 127.784 84.1048 130.29V112.657H94.5048V169.053H84.1048V166.264C80.4648 168.628 76.3048 170.046 71.7193 170.046ZM59.7593 148.206C59.7593 154.73 65.3375 160.166 72.0029 160.166C78.5266 160.166 84.1048 154.73 84.1048 148.206C84.1048 141.682 78.5266 136.104 72.0029 136.104C65.3375 136.104 59.7593 141.682 59.7593 148.206Z" fill="black"/>
      <path d="M148.585 112.657H158.843V169.053H148.585V166.264C145.087 168.628 140.785 170.046 136.058 170.046C124.098 170.046 114.265 160.166 114.265 148.206C114.265 136.104 124.098 126.555 136.058 126.555C140.785 126.555 144.945 127.784 148.585 130.29V112.657ZM124.382 148.206C124.382 154.73 129.96 160.166 136.342 160.166C143.007 160.166 148.585 154.73 148.585 148.206C148.585 141.682 143.007 136.104 136.342 136.104C129.96 136.104 124.382 141.682 124.382 148.206Z" fill="black"/>
      <path d="M184.134 170.046C172.221 170.046 162.341 160.166 162.341 148.206C162.341 136.104 172.221 126.555 184.134 126.555C188.72 126.555 193.021 127.784 196.52 130.29V126.933H206.92V169.053H196.52V166.264C193.021 168.628 188.861 170.046 184.134 170.046ZM172.458 148.206C172.458 154.73 178.036 160.166 184.56 160.166C191.083 160.166 196.52 154.73 196.52 148.206C196.52 141.682 191.083 136.104 184.56 136.104C178.036 136.104 172.458 141.682 172.458 148.206Z" fill="black"/>
      <path d="M11.5409 148.206C11.5409 154.73 17.1191 160.166 23.6428 160.166C30.3082 160.166 35.8864 154.73 35.8864 148.206C35.8864 141.682 30.3082 136.104 23.6428 136.104C17.1191 136.104 11.5409 141.682 11.5409 148.206ZM23.3591 170.046C11.3991 170.046 1.51904 160.166 1.51904 148.206C1.51904 136.104 11.3991 126.555 23.3591 126.555C27.9446 126.555 32.2464 127.784 35.8864 130.29V126.933H46.1447V169.053H35.8864V166.264C32.3882 168.628 28.0864 170.046 23.3591 170.046Z" fill="black"/>
    </symbol>
    <symbol id="mikasa" viewBox="0 0 251 68">
      <g clip-path="url(#clip0_86_13)">
        <path d="M152.44 29.3301H137.4L123.51 63.8801L122.86 63.0801L109.98 46.9801L126.66 29.3201H111.94L97.9398 45.1601V29.3301H85.3198V67.0901H97.9398V50.2501L110.67 67.0901H135.22L137.71 60.6401H152.11L154.6 67.0901H167.61L152.44 29.3301ZM140.66 53.0301L144.91 40.2901L149.16 53.0301H140.66Z" fill="#000"/>
        <path d="M237.49 67.0901H250.5L235.32 29.3301H220.28L205.1 67.0901H218.11L220.6 60.6401H235L237.49 67.0901ZM223.55 53.0301L227.8 40.2901L232.05 53.0301H223.55Z" fill="#000"/>
        <path d="M79.8301 67.0901V48.2101V29.3301H73.8301H66.8901V48.2101V67.0901H73.8301H79.8301Z" fill="#000"/>
        <path d="M178.73 52.1201C174.36 51.8201 171.85 51.6101 169.4 49.2801C167.81 47.7601 166.42 45.2201 166.42 40.5301C166.42 35.8401 167.62 33.3101 169.73 31.5001C173.1 28.6101 179.63 28.6801 186.53 28.6801C197.12 28.6801 200.33 29.5701 203.4 33.3701C204.51 34.7401 205.45 37.9001 205.63 41.3401H193.94C194.17 38.0401 190.14 37.8601 185.76 37.8601C182.58 37.8601 177 37.6601 176.81 40.6601C176.6 43.7801 180.53 43.5301 183.56 43.6701C183.56 43.6701 190 43.9301 194.73 44.1401C199.77 44.3701 201.49 45.6201 202.92 47.0301C205.11 49.1901 205.59 52.9601 205.59 55.9501C205.59 66.3501 198.84 67.6001 187.24 67.6001C175.64 67.6001 172.97 66.6901 170.26 64.3501C168.35 62.7001 166.72 59.7301 166.72 54.9101H178.07C177.84 58.2101 182.64 58.3901 187.01 58.3901C190.19 58.3901 194.81 58.6301 195.2 55.6001C195.61 52.5001 192.24 52.7201 189.21 52.5801C189.22 52.6001 183.46 52.4401 178.73 52.1201Z" fill="#000"/>
        <path d="M73.3599 0.5L70.2399 10.11H60.1299L68.3099 16.06L65.1799 25.67L73.3599 19.73L81.5399 25.67L78.4199 16.06L86.5999 10.11H76.4899L73.3599 0.5Z" fill="#000"/>
        <path d="M32.15 40.2999L26.07 21.1399H12.81L0.5 67.0899H14.54L19.83 43.6999L26.53 67.0899H37.81L44.51 43.6999L49.8 67.0899H63.84L51.53 21.1399H38.27L32.15 40.2999Z" fill="#000"/>
      </g>
      <defs>
        <clipPath id="clip0_86_13">
          <rect width="250" height="67.12" fill="white" transform="translate(0.5 0.5)"/>
        </clipPath>
      </defs>
    </symbol>
    <symbol id="wilson" viewBox="0 0 250 63">
      <path d="M25.1441 3.3291H4.75684V12.548H10.7565V40.4766C10.7565 40.4766 10.7565 57.932 29.1996 57.932C29.1996 57.932 37.0179 58.0783 41.6274 51.6449C41.6274 51.6449 45.5418 57.932 52.9368 57.932C52.9368 57.932 59.9346 58.6375 64.6747 54.305C64.6747 54.305 74.4633 47.741 74.3118 27.4844C74.3118 27.4844 74.0295 12.2711 70.4026 3.3291H53.6162V12.548H58.6699C58.6699 12.548 61.33 20.0894 61.33 29.7264C61.33 29.7264 61.6226 35.5013 58.6699 41.595C58.6699 41.595 56.8668 45.9327 52.9368 45.9327C52.9368 45.9327 49.4562 45.7864 49.5868 41.595V3.3291H29.1996V12.548H35.2097V40.9104C35.2097 40.9104 35.2097 45.9327 30.1873 45.9327C30.1873 45.9327 25.1441 45.9275 25.1441 40.9104V3.3291Z" fill="#000"/>
      <path d="M87.0584 7.48389C87.0584 7.48389 95.5352 7.48389 95.5352 14.0479C95.5352 14.0479 95.5718 20.612 87.0584 20.612C87.0584 20.612 78.5293 20.612 78.5293 14.0479C78.5293 14.0479 78.4666 7.48389 87.0584 7.48389Z" fill="#000"/>
      <path d="M76.9668 21.7669H93.5755V43.7691C93.5755 43.7691 93.5755 46.2828 95.8907 46.2828C95.8907 46.2828 98.7546 45.9379 100.427 43.1994C100.427 43.1994 102.946 39.9905 102.946 37.3409V10.7397C102.946 10.7397 103.291 1.10272 116.205 1.10272C116.205 1.10272 129.061 0.684621 129.061 13.1804C129.061 13.1804 129.772 19.0389 125.016 27.4269C125.016 27.4269 122.92 31.3308 120.537 34.9003C120.537 34.9003 118.797 37.6074 117.119 39.9906C117.119 39.9906 115.792 41.4643 115.792 43.351C115.792 43.351 115.646 46.4919 119.006 46.4919C119.006 46.4919 121.943 46.4239 124.237 43.9049C124.237 43.9049 127.671 40.6961 129.479 35.5326C129.479 35.5326 132.343 29.3083 132.479 21.7669H144.703C144.703 21.7669 144.766 22.9481 145.126 24.2128C145.126 24.2128 145.544 26.0942 147.995 29.4546C147.995 29.4546 151.413 34.3411 152.464 36.1545C152.464 36.1545 155.04 39.9905 155.04 44.8195C155.04 44.8195 154.972 49.6328 151.607 52.9828C151.607 52.9828 147.844 57.6706 142.33 57.6706C142.33 57.6706 138.489 57.6706 135.071 55.7735C135.071 55.7735 130.875 53.5368 129.061 51.023C129.061 51.023 128.868 50.746 128.376 50.746L127.697 51.0439C127.697 51.0439 125.209 53.6831 122.57 55.1412C122.57 55.1412 119.074 57.6706 113.984 57.6706C113.984 57.6706 109.364 57.6706 106.578 55.0053C106.578 55.0053 104.132 52.9828 103.641 50.6049L103.124 50.2077L102.523 50.5787C102.523 50.5787 100.359 53.1291 97.631 55.0053C97.631 55.0053 94.6991 57.6706 89.5305 57.6706C89.5305 57.6706 84.8531 57.7333 82.402 55.2248C82.402 55.2248 79.6896 52.8417 79.6896 49.2199V29.8675C79.6896 29.8675 79.8203 28.0488 76.9668 28.0488V21.7669ZM134.58 40.6229C134.021 42.0601 133.247 43.6279 133.247 43.6279L132.976 44.4955C133.038 44.9763 133.284 45.4101 133.284 45.4101C133.911 46.4344 134.826 46.9884 134.826 46.9884C135.772 47.7462 137.345 47.7462 137.345 47.7462C139.247 47.7462 140.161 46.2515 140.161 46.2515C141.113 44.9502 141.113 43.5234 141.113 43.5234C141.113 42.5827 140.412 41.2919 140.412 41.2919C139.879 40.1735 138.808 38.1509 138.808 38.1509C138.17 37.1057 137.554 35.7783 137.554 35.7783C137.251 34.9996 136.968 35.1093 136.968 35.1093L136.43 35.9141C135.427 38.7049 134.58 40.6229 134.58 40.6229ZM115.959 28.1742L116.524 27.5314C118.907 24.103 120.684 17.7219 120.684 17.7219C121.238 15.9502 121.3 13.4887 121.3 13.4887C121.3 11.9156 120.684 10.3844 120.684 10.3844C119.931 8.85311 118.834 8.87923 118.834 8.87923C117.417 8.87923 116.351 10.7763 116.351 10.7763C115.369 12.3912 115.369 15.2708 115.369 15.2708V27.0663C115.369 28.7125 115.959 28.1742 115.959 28.1742Z" fill="#000"/>
      <path d="M155.95 39.3634C155.95 39.3634 156.221 30.7037 161.395 26.2405C161.395 26.2405 166.423 21.2025 174.456 21.2025C174.456 21.2025 182.483 21.2757 186.821 25.7441C186.821 25.7441 188.148 26.9983 188.848 28.0488C188.848 28.0488 189.34 28.608 189.752 28.1167C189.752 28.1167 192.339 25.1169 194.007 24.0037C194.007 24.0037 197.43 21.1398 201.266 21.1398C201.266 21.1398 204.422 21.0614 206.157 22.7442C206.157 22.7442 208.264 24.495 209.314 26.6586C209.314 26.6586 209.868 27.5628 210.699 26.7266C210.699 26.7266 212.444 24.8295 214.472 23.4445C214.472 23.4445 217.749 20.9255 222.374 20.9255C222.374 20.9255 226.487 21.0614 228.437 23.016C228.437 23.016 231.854 25.7441 231.854 29.5226V48.9377C231.854 48.9377 231.854 51.3052 233.955 51.3679H236.056V57.378H224.799C224.799 57.378 218.036 57.3048 218.036 49.9098V36.0082C218.036 36.0082 218.036 33.0763 214.404 33.0763C214.404 33.0763 210.349 33.1547 210.349 36.5047V57.378H196.531V35.9403C196.531 35.9403 196.452 33.9178 194.853 33.9178C194.853 33.9178 193.385 34.1268 192.543 35.1825C192.543 35.1825 191.859 35.8044 192.198 36.7817C192.198 36.7817 192.475 38.245 192.475 39.9278C192.475 39.9278 192.543 47.8089 187.531 52.4236C187.531 52.4236 182.634 57.6654 174.523 57.6654C174.523 57.6654 166.496 57.6654 161.887 53.056C161.887 53.056 155.95 48.2426 155.95 39.3634ZM174.252 48.2897C174.252 48.2897 176.551 48.3942 177.387 46.6173C177.387 46.6173 178.359 44.7255 178.584 39.4209V39.3634C178.359 34.0589 177.387 32.1774 177.387 32.1774C176.551 30.3953 174.252 30.5051 174.252 30.5051H174.184C174.184 30.5051 171.874 30.3953 171.032 32.1774C171.032 32.1774 170.06 34.0589 169.841 39.3634V39.4209C170.06 44.7255 171.032 46.6173 171.032 46.6173C171.874 48.3942 174.184 48.2897 174.184 48.2897H174.252Z" fill="#000"/>
      <path d="M242.129 51.3C242.96 51.3 243.665 51.5875 244.246 52.178C244.836 52.7581 245.118 53.4584 245.118 54.2842C245.118 55.1204 244.836 55.8259 244.246 56.4112C243.671 56.9913 242.965 57.2788 242.129 57.2788C241.303 57.2788 240.592 56.9913 240.023 56.4112C239.448 55.8259 239.166 55.1204 239.166 54.2842C239.166 53.4584 239.448 52.7581 240.023 52.178C240.608 51.5875 241.314 51.3 242.129 51.3ZM245.615 54.2842C245.615 53.3278 245.275 52.5073 244.606 51.8383C243.916 51.1641 243.106 50.8245 242.145 50.8245C241.188 50.8245 240.368 51.1641 239.704 51.8383C239.025 52.5177 238.68 53.3278 238.68 54.2842C238.68 55.2458 239.025 56.0558 239.694 56.7352C240.363 57.4146 241.183 57.7543 242.145 57.7543C243.106 57.7543 243.916 57.4146 244.606 56.7352C245.275 56.0558 245.615 55.2458 245.615 54.2842ZM243.07 53.5368L242.678 54.1117L242.03 54.211H241.408V52.8418H241.988L242.819 52.9828L243.07 53.5368ZM240.749 52.3609V56.1708H241.408V54.6761H241.941L242.699 54.7963L243.064 55.6639V55.967L243.07 56.0976L243.08 56.1342L243.091 56.1708H243.712L243.697 56.129L243.655 55.9252V55.6378V55.3608L243.441 54.7807L242.798 54.4044L243.347 54.2267L243.712 53.4689C243.712 52.9933 243.509 52.6693 243.122 52.5073C242.902 52.4184 242.558 52.3609 242.071 52.3609H240.749Z" fill="#000"/>
    </symbol>
    <symbol id="classic-ball" viewBox="0 0 216 217">
      <path d="M211.807 101.804C211.951 104.038 212.032 106.292 212.032 108.563C212.032 133.682 203.097 156.756 188.241 174.772C188.616 173.469 188.935 172.154 189.179 170.789C190.479 163.506 190.72 156.991 189.896 151.412C191.889 148.585 193.631 145.455 194.919 142.302C196.524 138.354 198.352 133.641 199.739 128.609C201.263 123.062 202.149 117.44 202.466 111.245C204.864 110.15 206.978 107.744 208.561 105.935C208.811 105.648 209.045 105.378 209.264 105.137C210.224 104.067 211.067 102.96 211.807 101.804Z" fill="#CFD1CD"/>
      <path d="M184.039 32.33C204.399 52.694 215.614 79.765 215.614 108.562C215.614 137.359 204.399 164.433 184.039 184.793C163.675 205.157 136.603 216.369 107.807 216.369C79.01 216.369 51.936 205.157 31.575 184.793C11.211 164.433 -0.00402832 137.358 -0.00402832 108.562C-0.00402832 79.765 11.211 52.694 31.575 32.33C51.936 11.969 79.01 0.755005 107.807 0.755005C136.603 0.755005 163.675 11.969 184.039 32.33ZM212.031 108.563C212.031 106.293 211.95 104.039 211.806 101.804C211.067 102.96 210.223 104.068 209.262 105.136C209.043 105.377 208.809 105.647 208.559 105.934C206.976 107.742 204.862 110.149 202.464 111.244C202.148 117.439 201.262 123.061 199.737 128.608C198.349 133.64 196.522 138.353 194.917 142.301C193.63 145.454 191.888 148.584 189.894 151.411C190.718 156.99 190.477 163.505 189.177 170.788C188.933 172.153 188.614 173.469 188.239 174.771C203.097 156.756 212.031 133.682 212.031 108.563ZM197.54 128.001C199.169 122.073 200.048 116.047 200.267 109.275C198.443 101.279 193.504 93.377 189.303 88.461C186.671 85.383 182.854 81.693 179.462 78.94C172.059 80.575 164.456 82.285 157.06 84.347C155.2 84.868 153.294 85.536 151.453 86.181C149.757 86.777 148.026 87.383 146.274 87.897C143.561 107.059 140.264 113.388 134.838 123.801C134.018 125.378 133.171 127.003 132.265 128.785C133.741 130.43 135.158 132.328 136.474 134.094C137.177 135.035 137.842 135.928 138.451 136.69C144.461 144.217 149.634 152.735 153.6 161.586C155.463 161.439 156.903 161.006 158.62 160.491C159.669 160.176 160.858 159.817 162.265 159.498C170.408 157.642 179.6 155.537 187.3 151.117C189.495 148.182 191.427 144.827 192.805 141.439C194.387 137.555 196.185 132.92 197.54 128.001ZM183.971 38.62C184.616 38.939 185.25 39.265 185.876 39.594C172.941 24.972 155.981 13.995 136.74 8.42501C138.959 10.103 140.998 12.148 142.708 14.406C142.721 14.406 142.737 14.409 142.75 14.412C142.776 14.409 142.799 14.409 142.825 14.409V14.422C143.395 14.494 144.001 14.526 144.633 14.556C145.597 14.598 146.597 14.644 147.581 14.859C150.597 15.524 153.548 16.742 156.87 18.693L157.655 19.152C162.873 22.214 168.267 25.38 172.521 29.683C174.677 31.865 176.504 34.286 177.97 36.885C180.113 37.083 181.902 37.604 183.971 38.62ZM179.091 76.687C181.267 70.84 182.205 65.349 181.876 60.358C181.69 57.554 181.032 54.684 180.394 51.906C180.059 50.45 179.713 48.945 179.44 47.463C178.313 41.391 175.362 35.799 170.903 31.288C166.857 27.197 161.594 24.105 156.503 21.119L155.718 20.66C152.608 18.832 149.868 17.696 147.093 17.087C146.302 16.914 145.442 16.875 144.529 16.833C143.894 16.804 143.243 16.774 142.597 16.696C138.555 16.752 134.823 17.853 130.878 19.019L130.298 19.191C129.252 19.497 128.291 19.778 127.399 20.035C119.637 22.292 117.237 22.993 108.957 28.237C108.99 30.423 109.091 32.625 109.195 34.784C109.315 37.393 109.446 40.09 109.446 42.722V42.966C109.446 48.237 109.449 53.604 109.742 58.94C125.292 66.119 132.761 72.34 145.302 85.806C147.119 85.288 148.927 84.656 150.699 84.034C152.576 83.376 154.517 82.695 156.448 82.155C163.941 80.065 171.619 78.338 179.091 76.687ZM149.16 167.636C150.223 165.356 150.769 164.163 150.808 160.961C147.016 152.845 142.205 145.05 136.668 138.115C136.036 137.323 135.361 136.418 134.646 135.457C133.405 133.796 132.073 132.008 130.72 130.477C120.623 132.774 113.021 133.881 105.079 133.881C98.894 133.881 92.5 133.21 84.559 131.91C83.719 133.147 82.917 134.362 82.181 135.578C81.389 136.877 80.331 138.643 79.116 140.675C74.901 147.714 68.598 158.241 65.266 163.007C67.966 173.801 78.054 187.364 86.086 194.003C92.167 195.452 99.04 196.162 107.056 196.172C107.105 196.172 107.157 196.172 107.205 196.172C114.368 196.172 121.847 195.524 129.996 194.198C133.062 191.843 134.644 189.784 136.631 187.195C137.452 186.123 138.299 185.019 139.348 183.761C143.032 179.341 145.888 175.409 147.856 170.585C148.346 169.395 148.779 168.459 149.16 167.636ZM145.606 205.692C138.288 203.438 132.636 199.12 130.076 196.498C121.917 197.811 114.409 198.452 107.207 198.452C107.155 198.452 107.106 198.452 107.054 198.452C98.807 198.442 91.723 197.699 85.436 196.191C80.329 200.836 79.016 201.894 71.355 204.432C70.361 204.76 69.482 204.992 68.661 205.152C80.752 210.07 93.967 212.787 107.807 212.787C121.132 212.787 133.881 210.27 145.606 205.692ZM107.475 59.225C107.165 53.786 107.165 48.323 107.165 42.965V42.721C107.165 40.144 107.038 37.473 106.914 34.89C106.807 32.575 106.696 30.206 106.67 27.851C105.084 26.698 103.374 25.701 101.736 24.792C97.179 22.261 92.449 20.577 86.398 19.326C80.913 18.193 75.587 17.495 70.167 17.189C67.066 18.241 64.252 19.463 61.353 21.277C53.63 26.108 48.073 30.466 43.328 35.403C40.709 38.126 38.263 41.312 36.25 44.614C34.605 49.546 34.807 51.839 35.25 56.8C35.293 57.262 35.335 57.748 35.38 58.256C35.969 65.119 37.194 71.047 39.022 75.901C41.221 76.103 43.527 76.497 45.823 77.093C54.523 79.337 63.011 82.269 71.19 85.835C74.688 82.269 75.88 81.422 78.346 79.67C79.378 78.937 80.661 78.025 82.453 76.67C86.254 73.791 88.733 71.826 90.727 70.25C95.761 66.267 97.207 65.121 107.475 59.225ZM80.231 134.393C81.022 133.093 81.898 131.767 82.794 130.452C77.706 121.885 75.039 113.048 73.107 105.488C71.98 101.081 70.645 94.202 70.208 87.899C62.163 84.394 53.808 81.512 45.251 79.3C42.948 78.707 40.639 78.317 38.463 78.137C35.001 80.286 31.212 84.498 30.109 85.772C26.382 90.065 22.23 95.159 19.702 100.407C17.835 104.279 17.835 104.279 17.467 107.065C17.386 107.693 17.285 108.453 17.145 109.417L17.008 109.397C16.985 109.997 16.956 110.609 16.93 111.231C16.832 113.358 16.734 115.563 16.865 117.38C17.79 130.074 22.526 143.367 29.402 153.6C33.151 155.646 36.715 156.532 40.835 157.551C41.688 157.763 42.558 157.978 43.447 158.209C50.027 159.916 56.583 161.023 63.463 161.602C66.759 156.87 72.987 146.472 77.159 139.502C78.381 137.467 79.439 135.695 80.231 134.393ZM80.462 193.641C80.638 193.111 80.393 192.596 80.038 192.352L79.25 194.413C79.7 194.478 80.27 194.214 80.462 193.641ZM68.54 15.34C69.501 13.425 70.765 11.878 72.166 10.614C52.645 17.741 35.838 30.548 23.744 47.023C26.93 45.079 30.682 43.479 34.435 43.219C36.51 39.851 39.008 36.61 41.682 33.825C46.496 28.815 52.363 24.213 60.144 19.344C62.945 17.591 65.639 16.373 68.54 15.34ZM25.19 166.407C25.311 162.143 25.571 158.29 27.372 154.711C19.623 143.086 15.405 128.744 14.591 117.546C14.451 115.591 14.552 113.321 14.653 111.126C14.669 110.754 14.686 110.38 14.702 110.008C12.595 109.503 11.461 108.585 10.275 107.624L10.037 107.429C7.67197 105.517 5.58397 102.615 4.00797 99.162C3.72797 102.26 3.57797 105.393 3.57797 108.562C3.57797 132.868 11.943 155.254 25.939 173C25.415 170.974 25.122 168.795 25.19 166.407Z" fill="#211915"/>
      <path d="M200.267 109.275C200.048 116.047 199.169 122.073 197.54 128.001C196.185 132.919 194.387 137.554 192.804 141.44C191.426 144.828 189.494 148.183 187.299 151.118C179.599 155.538 170.407 157.642 162.264 159.499C160.858 159.818 159.668 160.177 158.619 160.492C156.902 161.007 155.463 161.44 153.599 161.587C149.632 152.736 144.459 144.219 138.45 136.691C137.842 135.929 137.177 135.037 136.473 134.095C135.157 132.329 133.74 130.431 132.264 128.786C133.17 127.004 134.017 125.379 134.837 123.802C140.264 113.389 143.561 107.06 146.273 87.898C148.025 87.383 149.755 86.777 151.452 86.182C153.293 85.537 155.198 84.869 157.059 84.348C164.455 82.286 172.058 80.576 179.461 78.941C182.853 81.694 186.67 85.384 189.302 88.462C193.504 93.377 198.442 101.279 200.267 109.275Z" fill="#CFD1CD"/>
      <path d="M185.876 39.594C185.25 39.265 184.615 38.939 183.971 38.62C181.903 37.603 180.114 37.082 177.971 36.884C176.505 34.285 174.678 31.864 172.522 29.682C168.268 25.379 162.874 22.213 157.656 19.151L156.871 18.692C153.549 16.741 150.598 15.523 147.582 14.858C146.598 14.643 145.598 14.597 144.634 14.555C144.002 14.526 143.397 14.493 142.826 14.421V14.408C142.8 14.408 142.777 14.408 142.751 14.411C142.738 14.408 142.722 14.405 142.709 14.405C140.999 12.148 138.96 10.102 136.741 8.42401C155.981 13.995 172.941 24.972 185.876 39.594Z" fill="#F3F5F3"/>
      <path d="M181.876 60.358C182.205 65.348 181.267 70.84 179.091 76.687C171.619 78.338 163.942 80.065 156.446 82.153C154.515 82.694 152.574 83.374 150.697 84.032C148.925 84.654 147.118 85.286 145.3 85.804C132.759 72.339 125.29 66.117 109.74 58.938C109.447 53.602 109.444 48.235 109.444 42.964V42.72C109.444 40.088 109.313 37.391 109.193 34.782C109.089 32.623 108.988 30.421 108.955 28.235C117.235 22.991 119.636 22.291 127.397 20.033C128.29 19.776 129.251 19.495 130.296 19.189L130.876 19.017C134.82 17.851 138.553 16.75 142.595 16.694C143.241 16.773 143.892 16.802 144.527 16.831C145.439 16.873 146.299 16.912 147.091 17.085C149.866 17.694 152.606 18.831 155.716 20.658L156.501 21.117C161.592 24.104 166.855 27.195 170.901 31.286C175.36 35.797 178.311 41.39 179.438 47.461C179.711 48.943 180.057 50.448 180.392 51.904C181.032 54.685 181.69 57.554 181.876 60.358Z" fill="#E1E3DF"/>
      <path d="M150.809 160.961C150.77 164.163 150.223 165.356 149.161 167.636C148.78 168.459 148.347 169.395 147.858 170.586C145.89 175.41 143.034 179.342 139.35 183.762C138.301 185.02 137.455 186.123 136.633 187.196C134.647 189.785 133.064 191.843 129.998 194.199C121.849 195.524 114.37 196.173 107.207 196.173C107.158 196.173 107.106 196.173 107.058 196.173C99.0419 196.163 92.1689 195.453 86.0879 194.004C78.0559 187.365 67.9679 173.802 65.2679 163.008C68.6009 158.242 74.9029 147.715 79.1179 140.676C80.3329 138.644 81.3909 136.878 82.1829 135.579C82.9189 134.363 83.7199 133.148 84.5609 131.911C92.5019 133.211 98.8959 133.882 105.081 133.882C113.022 133.882 120.625 132.775 130.722 130.478C132.074 132.009 133.407 133.797 134.648 135.458C135.364 136.419 136.039 137.324 136.67 138.116C142.206 145.05 147.017 152.845 150.809 160.961Z" fill="#CFD1CD"/>
      <path d="M130.076 196.498C132.636 199.12 138.288 203.439 145.606 205.692C133.881 210.269 121.131 212.787 107.806 212.787C93.966 212.787 80.751 210.07 68.66 205.152C69.481 204.992 70.36 204.76 71.354 204.432C79.015 201.894 80.328 200.835 85.435 196.191C91.722 197.699 98.806 198.442 107.053 198.452C107.106 198.452 107.155 198.452 107.206 198.452C114.409 198.452 121.917 197.81 130.076 196.498Z" fill="#B5B7AE"/>
      <path d="M107.165 42.965C107.165 48.323 107.165 53.786 107.475 59.225C97.208 65.121 95.762 66.267 90.726 70.251C88.733 71.827 86.254 73.791 82.452 76.671C80.661 78.026 79.377 78.938 78.345 79.671C75.879 81.423 74.687 82.27 71.189 85.836C63.01 82.27 54.522 79.338 45.822 77.094C43.526 76.498 41.219 76.104 39.021 75.902C37.194 71.048 35.969 65.12 35.379 58.257C35.334 57.749 35.291 57.263 35.249 56.801C34.806 51.84 34.604 49.547 36.249 44.615C38.262 41.312 40.708 38.127 43.327 35.404C48.073 30.466 53.63 26.108 61.352 21.278C64.251 19.464 67.065 18.242 70.166 17.19C75.586 17.496 80.912 18.193 86.397 19.327C92.449 20.578 97.178 22.262 101.735 24.793C103.373 25.702 105.083 26.698 106.669 27.852C106.695 30.207 106.806 32.575 106.913 34.891C107.037 37.474 107.164 40.145 107.164 42.722L107.165 42.965Z" fill="#E1E3DF"/>
      <path d="M82.794 130.451C81.898 131.766 81.022 133.093 80.231 134.392C79.439 135.695 78.381 137.466 77.159 139.502C72.987 146.472 66.759 156.869 63.463 161.602C56.584 161.023 50.027 159.915 43.447 158.209C42.558 157.977 41.688 157.763 40.835 157.551C36.714 156.531 33.151 155.646 29.402 153.6C22.526 143.367 17.79 130.074 16.865 117.38C16.735 115.563 16.833 113.358 16.93 111.231C16.956 110.609 16.985 109.997 17.008 109.397L17.145 109.417C17.285 108.453 17.386 107.694 17.467 107.065C17.835 104.28 17.835 104.28 19.702 100.407C22.229 95.159 26.382 90.065 30.109 85.772C31.213 84.499 35.001 80.287 38.463 78.137C40.639 78.316 42.948 78.707 45.251 79.3C53.808 81.512 62.163 84.394 70.208 87.899C70.645 94.202 71.98 101.081 73.107 105.488C75.039 113.047 77.706 121.884 82.794 130.451Z" fill="#CFD1CD"/>
      <path d="M80.039 192.352C80.394 192.596 80.639 193.111 80.463 193.641C80.271 194.214 79.701 194.479 79.251 194.413L80.039 192.352Z" fill="#211915"/>
      <path d="M72.166 10.614C70.766 11.878 69.501 13.425 68.54 15.34C65.638 16.373 62.944 17.591 60.143 19.343C52.362 24.213 46.495 28.815 41.681 33.824C39.007 36.609 36.509 39.85 34.434 43.218C30.681 43.478 26.929 45.078 23.743 47.022C35.838 30.548 52.645 17.741 72.166 10.614Z" fill="#F3F5F3"/>
      <path d="M27.373 154.711C25.572 158.29 25.311 162.144 25.191 166.407C25.123 168.795 25.416 170.973 25.94 173C11.944 155.255 3.57898 132.868 3.57898 108.562C3.57898 105.393 3.72899 102.259 4.00899 99.162C5.58499 102.615 7.67298 105.517 10.038 107.429L10.276 107.624C11.462 108.585 12.595 109.503 14.703 110.008C14.687 110.38 14.67 110.754 14.654 111.126C14.553 113.321 14.452 115.591 14.592 117.546C15.406 128.744 19.623 143.086 27.373 154.711Z" fill="#B5B7AE"/>
      <path opacity="0.3" d="M190.067 44.638C188.341 43.542 186.489 42.477 184.527 41.457C193.784 57.792 205.094 75.335 203.848 94.372C203.848 94.698 202.542 91.766 201.241 92.743C200.915 92.743 200.59 94.046 200.915 94.697C201.887 98.773 203.896 102.617 204.882 106.574C205.612 105.834 206.279 105.071 206.842 104.43C207.102 104.134 207.341 103.857 207.567 103.605C209.229 101.765 210.508 99.794 211.458 97.628C209.383 77.79 201.714 59.592 190.067 44.638Z" fill="#FAFAFA"/>
      <path d="M75.045 14.075C75.309 13.999 75.574 13.932 75.84 13.871L75.755 13.568C75.517 13.732 75.28 13.901 75.045 14.075Z" fill="#211915"/>
      <path opacity="0.3" d="M153.036 90.138C161.348 85.857 171.02 84.104 179.045 79.163C179.021 79.143 178.996 79.1221 178.972 79.1021C171.569 80.7371 163.967 82.448 156.57 84.508C154.71 85.031 152.804 85.698 150.965 86.343C149.269 86.938 147.536 87.545 145.785 88.06C143.351 105.249 140.448 112.112 135.958 120.859C138.188 117.349 140.239 113.731 142.287 110.007C146.521 103.167 146.521 93.395 153.036 90.138Z" fill="#FAFAFA"/>
      <path opacity="0.2" d="M181.371 134.111C178.441 132.807 175.183 133.784 172.252 135.739C169.972 137.368 166.714 140.626 164.435 138.344C161.83 135.088 157.922 133.459 154.663 135.739C150.306 139.327 148.772 144.325 146.412 148.991C148.908 153.111 151.155 157.388 153.109 161.747C154.973 161.603 156.411 161.167 158.129 160.654C159.177 160.338 160.366 159.98 161.774 159.66C169.917 157.804 179.108 155.699 186.808 151.279C189.004 148.344 190.935 144.99 192.313 141.602C193.313 139.149 194.399 136.394 195.405 133.459C190.946 135.502 186.161 136.334 181.371 134.111Z" fill="#FAFAFA"/>
      <path opacity="0.2" d="M181.048 164.403C173.881 174.175 167.365 183.622 157.595 191.763C152.71 195.996 144.239 192.74 142.612 197.626C141.663 200.708 145.549 202.754 149.619 204.016C162.845 198.198 174.643 189.717 184.325 179.246C185.448 176.251 186.392 173.411 186.932 170.386C186.95 170.29 186.963 170.2 186.981 170.104C186.293 169.512 185.511 169.015 184.63 168.636C183 167.984 182.676 165.705 181.048 164.403Z" fill="#FAFAFA"/>
      <path d="M177.968 36.883C180.111 37.081 181.902 37.603 183.97 38.62C184.614 38.938 185.248 39.263 185.873 39.593C183.563 36.981 181.121 34.486 178.565 32.117C177.098 31.792 175.614 31.567 174.138 31.439C175.605 33.14 176.885 34.961 177.968 36.883Z" fill="#F3F5F3"/>
      <path d="M142.706 14.404C142.719 14.404 142.736 14.408 142.748 14.412C142.774 14.409 142.797 14.409 142.822 14.409V14.422C143.392 14.492 143.999 14.526 144.632 14.555C145.595 14.597 146.596 14.643 147.579 14.857C150.595 15.522 153.547 16.74 156.868 18.692L157.653 19.15C162.871 22.213 168.265 25.379 172.519 29.68C173.084 30.252 173.622 30.838 174.138 31.439C175.614 31.567 177.098 31.793 178.565 32.117C166.803 21.224 152.542 12.999 136.739 8.42401C138.958 10.102 140.996 12.148 142.706 14.404Z" fill="#F3F5F3"/>
      <path opacity="0.2" d="M132.84 142.905C130.234 141.276 127.954 138.996 124.371 140.3C113.621 144.207 100.918 152.678 90.4969 144.207C78.8609 146.096 74.8149 158.605 66.049 165.625C69.56 175.911 78.691 187.889 86.086 194.002C92.168 195.45 99.041 196.162 107.056 196.17C107.106 196.17 107.156 196.17 107.204 196.17C114.367 196.17 121.846 195.523 129.995 194.195C133.06 191.842 134.646 189.784 136.632 187.194C137.452 186.121 138.299 185.017 139.349 183.759C143.032 179.341 145.888 175.409 147.856 170.585C148.343 169.392 148.778 168.457 149.16 167.632C150.224 165.354 150.768 164.159 150.807 160.959C149.997 159.222 149.135 157.502 148.233 155.799C144.017 150.699 138.755 146.385 132.84 142.905Z" fill="#FAFAFA"/>
      <path opacity="0.3" d="M73.842 87.024C74.052 87.121 74.263 87.221 74.474 87.318C75.139 86.514 75.976 85.881 76.816 85.251C86.913 77.761 100.919 76.457 107.107 65.057C107.333 64.533 107.366 64.044 107.259 63.605C95.218 69.866 84.254 78.332 73.842 87.024Z" fill="#FAFAFA"/>
      <path opacity="0.3" d="M108.41 20.434C100.918 14.245 91.799 10.336 82.353 10.987C79.798 11.184 77.719 12.213 75.756 13.568L75.841 13.871C84.246 11.947 92.857 17.068 100.919 19.457C103.851 20.435 106.132 23.692 109.063 22.388C109.713 22.063 108.737 20.759 108.41 20.434Z" fill="#FAFAFA"/>
      <path d="M130.074 196.497C121.916 197.81 114.408 198.451 107.204 198.451C107.154 198.451 107.105 198.451 107.052 198.451C98.805 198.44 91.721 197.698 85.434 196.189C80.327 200.834 79.014 201.892 71.353 204.43C70.359 204.76 69.48 204.991 68.659 205.151C70.32 205.826 72.005 206.455 73.706 207.047C79.83 206.031 85.006 202.185 90.822 201.861C102.222 201.211 113.297 202.512 125.023 200.558C130.56 199.907 136.422 203.814 142.287 206.421C142.512 206.515 142.74 206.597 142.968 206.675C143.852 206.357 144.734 206.03 145.606 205.691C138.286 203.436 132.635 199.118 130.074 196.497Z" fill="#CFD1CD"/>
      <path d="M78.118 18.806C77.454 19.02 76.799 19.25 76.153 19.495C86.333 22.233 95.568 28.02 101.637 36.479C103.301 35.266 105.03 34.129 106.83 33.079C106.753 31.346 106.686 29.595 106.667 27.851C105.082 26.698 103.371 25.702 101.732 24.792C97.176 22.262 92.446 20.577 86.394 19.327C80.91 18.193 75.584 17.497 70.164 17.19C69.428 17.439 68.708 17.699 68 17.975C70.756 18.267 73.486 18.778 76.152 19.495C76.799 19.249 77.455 19.02 78.118 18.806Z" fill="#E1E3DF"/>
      <path opacity="0.3" d="M76.153 19.495C56.345 27.001 45.024 48.328 40.667 68.29C49.815 69.43 60.313 70.207 68.184 75.161C78.497 61.575 87.928 46.468 101.638 36.479C95.569 28.02 86.333 22.233 76.153 19.495Z" fill="#FAFAFA"/>
      <path opacity="0.2" d="M74.86 194.043C76.164 192.09 74.535 188.831 72.255 187.203C66.392 183.622 64.111 177.757 60.529 172.221C57.597 167.008 51.408 167.66 45.871 167.008C41.637 166.357 36.751 163.426 33.168 164.73C28.716 166.676 29.966 172.9 30.427 178.122C30.512 178.285 30.598 178.445 30.686 178.605C40.033 188.888 51.407 197.296 64.17 203.201C65.01 203.214 65.76 203.207 66.505 203.148C69.829 200.881 72.615 197.787 74.86 194.043Z" fill="#FAFAFA"/>
      <path opacity="0.3" d="M66.066 89.161C58.24 84.947 49.578 82.127 40.594 80.694C38.696 80.703 35.944 80.751 36.751 81.019C47.174 85.905 58.574 89.161 67.043 97.63C68.345 98.608 69.649 97.63 69.975 96.002C70.301 93.07 68.346 90.138 66.066 89.161Z" fill="#FAFAFA"/>
      <path opacity="0.2" d="M69.6499 136.065C67.6949 136.065 68.021 131.831 66.393 131.831C58.575 132.157 51.7349 138.346 48.1519 145.838C47.1749 148.118 43.266 149.094 41.964 146.814C40.66 144.535 39.032 143.557 37.078 142.58C34.472 141.93 31.867 144.535 30.237 144.535C25.567 144.746 22.697 140.397 20.632 135.626C22.816 142.103 25.8169 148.268 29.3999 153.602C33.1499 155.646 36.7129 156.532 40.8329 157.552C41.6869 157.763 42.556 157.979 43.444 158.209C50.025 159.916 56.581 161.024 63.46 161.605C66.756 156.871 72.985 146.473 77.157 139.504C77.657 138.67 78.128 137.883 78.567 137.149C75.845 136.033 72.6259 135.867 69.6499 136.065Z" fill="#FAFAFA"/>
      <path d="M28.963 40.481C27.139 42.589 25.395 44.77 23.742 47.021C25.278 46.085 26.945 45.23 28.68 44.563C28.753 43.201 28.849 41.839 28.963 40.481Z" fill="#F3F5F3"/>
      <path d="M28.963 40.481C28.848 41.839 28.753 43.201 28.68 44.564C30.545 43.849 32.488 43.354 34.433 43.218C36.507 39.851 39.006 36.608 41.68 33.825C46.494 28.815 52.361 24.213 60.142 19.342C62.943 17.59 65.637 16.373 68.54 15.34C69.5 13.425 70.764 11.878 72.165 10.613" fill="#F3F5F3"/>
      <path opacity="0.3" d="M28.573 47.112C24.77 51.484 23.551 58.353 24.049 64.081C24.7 69.292 24.7 75.807 28.934 78.412C30.155 79.176 31.519 78.58 32.825 77.463C29.286 67.713 28.245 57.375 28.573 47.112Z" fill="#FAFAFA"/>
      <path d="M28.573 47.105V47.112L28.581 47.101L28.573 47.105Z" fill="#211915"/>
      <path opacity="0.3" d="M27.371 154.71C26.776 153.815 26.204 152.905 25.649 151.982C25.182 151.205 24.734 150.416 24.297 149.62C7.85898 140.472 4.69399 119.645 4.88799 100.933C4.57899 100.361 4.28499 99.769 4.00699 99.161C3.72699 102.259 3.57599 105.392 3.57599 108.56C3.57599 132.865 11.942 155.254 25.938 172.998C25.414 170.975 25.12 168.795 25.188 166.406C25.309 162.142 25.57 158.29 27.371 154.71Z" fill="#FAFAFA"/>
      <path opacity="0.3" d="M120.771 52.995C118.809 48.242 118.609 43.034 118.19 37.986C117.983 35.515 117.697 33.05 117.16 30.628C116.795 28.983 116.119 27.025 114.098 28.096C112.266 29.066 111.049 31.322 111.268 33.367C111.489 35.469 112.038 37.529 112.247 39.642C112.447 41.678 112.566 43.721 112.743 45.756C113.134 50.235 113.846 54.517 115.917 58.555C116.718 60.111 118.853 58.46 119.51 57.706C120.602 56.456 121.443 54.622 120.771 52.995Z" fill="#FAFAFA"/>
      <path opacity="0.3" d="M207.127 112.11C206.907 112.002 206.693 111.894 206.475 111.785C205.989 111.541 205.401 111.866 205.092 112.263C199.72 119.166 201.301 129.01 198.762 136.972C198.238 138.62 200.116 137.891 200.611 136.923C200.867 136.796 201.126 136.565 201.33 136.209C203.278 132.822 204.342 128.817 205.279 125.048C206.248 121.153 206.868 117.176 207.403 113.2C207.447 112.865 207.517 112.306 207.127 112.11Z" fill="#FAFAFA"/>
    </symbol>
    <symbol id="youtube" viewBox="0 0 576 512">
      <path d="M549.655 124.083c-6.281-23.65-24.787-42.276-48.284-48.597C458.781 64 288 64 288 64S117.22 64 74.629 75.486c-23.497 6.322-42.003 24.947-48.284 48.597-11.412 42.867-11.412 132.305-11.412 132.305s0 89.438 11.412 132.305c6.281 23.65 24.787 41.5 48.284 47.821C117.22 448 288 448 288 448s170.78 0 213.371-11.486c23.497-6.321 42.003-24.171 48.284-47.821 11.412-42.867 11.412-132.305 11.412-132.305s0-89.438-11.412-132.305zm-317.51 213.508V175.185l142.739 81.205-142.739 81.201z"/>
    </symbol>
    <symbol id="pinterest" viewBox="0 0 496 512">
      <path d="M496 256c0 137-111 248-248 248-25.6 0-50.2-3.9-73.4-11.1 10.1-16.5 25.2-43.5 30.8-65 3-11.6 15.4-59 15.4-59 8.1 15.4 31.7 28.5 56.8 28.5 74.8 0 128.7-68.8 128.7-154.3 0-81.9-66.9-143.2-152.9-143.2-107 0-163.9 71.8-163.9 150.1 0 36.4 19.4 81.7 50.3 96.1 4.7 2.2 7.2 1.2 8.3-3.3.8-3.4 5-20.3 6.9-28.1.6-2.5.3-4.7-1.7-7.1-10.1-12.5-18.3-35.3-18.3-56.6 0-54.7 41.4-107.6 112-107.6 60.9 0 103.6 41.5 103.6 100.9 0 67.1-33.9 113.6-78 113.6-24.3 0-42.6-20.1-36.7-44.8 7-29.5 20.5-61.3 20.5-82.6 0-19-10.2-34.9-31.4-34.9-24.9 0-44.9 25.7-44.9 60.2 0 22 7.4 36.8 7.4 36.8s-24.5 103.8-29 123.2c-5 21.4-3 51.6-.9 71.2C65.4 450.9 0 361.1 0 256 0 119 111 8 248 8s248 111 248 248z"/>
    </symbol>
    <symbol id="instagram" viewBox="0 0 448 512">
      <path d="M224.1 141c-63.6 0-114.9 51.3-114.9 114.9s51.3 114.9 114.9 114.9S339 319.5 339 255.9 287.7 141 224.1 141zm0 189.6c-41.1 0-74.7-33.5-74.7-74.7s33.5-74.7 74.7-74.7 74.7 33.5 74.7 74.7-33.6 74.7-74.7 74.7zm146.4-194.3c0 14.9-12 26.8-26.8 26.8-14.9 0-26.8-12-26.8-26.8s12-26.8 26.8-26.8 26.8 12 26.8 26.8zm76.1 27.2c-1.7-35.9-9.9-67.7-36.2-93.9-26.2-26.2-58-34.4-93.9-36.2-37-2.1-147.9-2.1-184.9 0-35.8 1.7-67.6 9.9-93.9 36.1s-34.4 58-36.2 93.9c-2.1 37-2.1 147.9 0 184.9 1.7 35.9 9.9 67.7 36.2 93.9s58 34.4 93.9 36.2c37 2.1 147.9 2.1 184.9 0 35.9-1.7 67.7-9.9 93.9-36.2 26.2-26.2 34.4-58 36.2-93.9 2.1-37 2.1-147.8 0-184.8zM398.8 388c-7.8 19.6-22.9 34.7-42.6 42.6-29.5 11.7-99.5 9-132.1 9s-102.7 2.6-132.1-9c-19.6-7.8-34.7-22.9-42.6-42.6-11.7-29.5-9-99.5-9-132.1s-2.6-102.7 9-132.1c7.8-19.6 22.9-34.7 42.6-42.6 29.5-11.7 99.5-9 132.1-9s102.7-2.6 132.1 9c19.6 7.8 34.7 22.9 42.6 42.6 11.7 29.5 9 99.5 9 132.1s2.7 102.7-9 132.1z"/>
    </symbol>
    <symbol id="telegram" viewBox="0 0 48 48">
      <path d="M24 0C10.7451 0 0 10.7451 0 24C0 37.2549 10.7451 48 24 48C37.2549 48 48 37.2549 48 24C48 10.7451 37.2549 0 24 0ZM35.1244 16.3219C34.7632 20.1169 33.2004 29.3263 32.405 33.5768C32.0686 35.3752 31.4061 35.9783 30.7649 36.0373C29.3714 36.1656 28.3128 35.1163 26.9629 34.2314C24.8506 32.8467 23.6573 31.9847 21.6069 30.6336C19.2374 29.0721 20.7735 28.2142 22.1238 26.811C22.4773 26.4439 28.6181 20.8584 28.7369 20.3517C28.7517 20.2883 28.7659 20.0517 28.6252 19.9275C28.4845 19.8032 28.2778 19.8453 28.1283 19.8791C27.9165 19.9272 24.542 22.1576 18.0049 26.5702C17.0472 27.2279 16.1796 27.5484 15.4023 27.5316C14.5454 27.5131 12.897 27.0471 11.6715 26.6487C10.1685 26.1602 8.97397 25.9019 9.078 25.0722C9.13219 24.6399 9.72735 24.198 10.8635 23.7464C17.86 20.6981 22.5254 18.6884 24.8597 17.7173C31.5248 14.945 32.9097 14.4635 33.8124 14.4474C34.011 14.4441 34.4549 14.4933 34.7424 14.7266C34.9337 14.8928 35.0556 15.1248 35.084 15.3765C35.1328 15.6892 35.1463 16.0063 35.1244 16.3219Z"/>
    </symbol>
  </def>
</svg>