<!-- xmlns:xlink="http://www.w3.org/1999/xlink" -->

<svg xmlns="http://www.w3.org/2000/svg" style="display: none;">
  <def>
    <symbol id="magnifying-glass" viewBox="0 0 512 512">
      <path d="M504.1 471l-134-134C399.1 301.5 415.1 256.8 415.1 208c0-114.9-93.13-208-208-208S-.0002 93.13-.0002 208S93.12 416 207.1 416c48.79 0 93.55-16.91 129-45.04l134 134C475.7 509.7 481.9 512 488 512s12.28-2.344 16.97-7.031C514.3 495.6 514.3 480.4 504.1 471zM48 208c0-88.22 71.78-160 160-160s160 71.78 160 160s-71.78 160-160 160S48 296.2 48 208z"/>
    </symbol>
    <symbol id="bars" viewBox="0 0 448 512">
      <path d="M424 392H23.1C10.8 392 0 402.8 0 415.1C0 429.2 10.8 440 23.1 440H424c13.2 0 24-10.8 24-23.1C448 402.8 437.2 392 424 392zM424 72H23.1C10.8 72 0 82.8 0 95.1S10.8 120 23.1 120H424c13.2 0 24-10.8 24-23.1S437.2 72 424 72zM424 232H23.1C10.8 232 0 242.8 0 256c0 13.2 10.8 24 23.1 24H424C437.2 280 448 269.2 448 256S437.2 232 424 232z"/>
    </symbol>
    <symbol id="arrow-right-from-bracket" viewBox="0 0 512 512">
      <path d="M192 456C192 469.3 181.3 480 168 480H96c-53.02 0-96-42.98-96-96V128c0-53.02 42.98-96 96-96h72C181.3 32 192 42.74 192 56C192 69.25 181.3 80 168 80H96C69.6 80 48 101.6 48 128v256c0 26.4 21.6 48 48 48h72C181.3 432 192 442.7 192 456zM505.5 239.6l-127.1-136c-9.094-9.688-24.28-10.12-33.91-1.031c-9.656 9.062-10.12 24.25-1.031 33.91L432.4 232H183.1C170.7 232 160 242.8 160 256s10.75 24 23.1 24h248.4l-89.92 95.56c-9.094 9.656-8.625 24.84 1.031 33.91C348.2 413.8 354.1 416 359.1 416c6.375 0 12.75-2.531 17.47-7.562l127.1-136C514.2 263.2 514.2 248.8 505.5 239.6z"/>
    </symbol>
    <symbol id="arrow-right-to-bracket" viewBox="0 0 512 512">
      <path d="M512 128v256c0 53.02-42.98 96-96 96h-72C330.7 480 320 469.3 320 456c0-13.26 10.75-24 24-24H416c26.4 0 48-21.6 48-48V128c0-26.4-21.6-48-48-48h-72C330.7 80 320 69.25 320 56C320 42.74 330.7 32 344 32H416C469 32 512 74.98 512 128zM345.5 239.6l-128-136C208.4 93.88 193.2 93.44 183.6 102.5C173.9 111.6 173.4 126.8 182.5 136.4L272.4 232H24C10.75 232 0 242.8 0 256s10.75 24 24 24h248.4l-89.92 95.56c-9.094 9.656-8.625 24.84 1.031 33.91C188.2 413.8 194.1 416 200 416c6.375 0 12.75-2.531 17.47-7.562l128-136C354.2 263.2 354.2 248.8 345.5 239.6z"/>
    </symbol>
    <symbol id="trash-can" viewBox="0 0 448 512">
      <path d="M432 80h-82.38l-34-56.75C306.1 8.827 291.4 0 274.6 0H173.4C156.6 0 141 8.827 132.4 23.25L98.38 80H16C7.125 80 0 87.13 0 96v16C0 120.9 7.125 128 16 128H32v320c0 35.35 28.65 64 64 64h256c35.35 0 64-28.65 64-64V128h16C440.9 128 448 120.9 448 112V96C448 87.13 440.9 80 432 80zM171.9 50.88C172.9 49.13 174.9 48 177 48h94c2.125 0 4.125 1.125 5.125 2.875L293.6 80H154.4L171.9 50.88zM352 464H96c-8.837 0-16-7.163-16-16V128h288v320C368 456.8 360.8 464 352 464zM224 416c8.844 0 16-7.156 16-16V192c0-8.844-7.156-16-16-16S208 183.2 208 192v208C208 408.8 215.2 416 224 416zM144 416C152.8 416 160 408.8 160 400V192c0-8.844-7.156-16-16-16S128 183.2 128 192v208C128 408.8 135.2 416 144 416zM304 416c8.844 0 16-7.156 16-16V192c0-8.844-7.156-16-16-16S288 183.2 288 192v208C288 408.8 295.2 416 304 416z"/>
    </symbol>
    <symbol id="home" viewBox="0 0 576 512">
      <path d="M576 247.1c0-6.802-2.877-13.56-8.471-18.31l-263.1-224c-4.484-3.781-10.01-5.669-15.53-5.669S276.1 1.891 272.5 5.672L8.471 229.7C2.877 234.4 0 241.2 0 247.1C0 264.1 13.83 271.1 24.02 271.1c5.479 0 10.99-1.867 15.51-5.687l24.47-20.76v226.5C64 494.1 81.94 512 104 512h95.1c22.06 0 39.1-17.94 39.1-40l.0056-120h95.1l-.0032 120C335.1 494.1 353.9 512 375.1 512h95.1c22.06 0 39.1-17.94 39.1-40V245.5L536.5 266.3c4.516 3.813 10.03 5.688 15.52 5.688C562.1 271.1 576 263.1 576 247.1zM463.1 463.1H383.1v-120c0-22.06-17.94-40-39.1-40H232c-22.06 0-39.1 17.94-39.1 40v120H112V207.1c0-.9629-.4375-1.783-.5488-2.717L288 55.45l175.1 149.4V463.1z"/>
    </symbol>
    <symbol id="circle-exclamation" viewBox="0 0 512 512">
      <path d="M256 0C114.6 0 0 114.6 0 256s114.6 256 256 256s256-114.6 256-256S397.4 0 256 0zM256 464c-114.7 0-208-93.31-208-208S141.3 48 256 48s208 93.31 208 208S370.7 464 256 464zM256 304c13.25 0 24-10.75 24-24v-128C280 138.8 269.3 128 256 128S232 138.8 232 152v128C232 293.3 242.8 304 256 304zM256 337.1c-17.36 0-31.44 14.08-31.44 31.44C224.6 385.9 238.6 400 256 400s31.44-14.08 31.44-31.44C287.4 351.2 273.4 337.1 256 337.1z"/>
    </symbol>
    <symbol id="chevron-up" viewBox="0 0 448 512">
      <path d="M15.41 302.7l191.1-183.1C212 114.2 218 111.1 224 111.1s11.97 2.219 16.59 6.688l191.1 183.1c9.594 9.152 9.906 24.34 .7187 33.9c-9.125 9.625-24.38 9.938-33.91 .7187L224 169.2l-175.4 168c-9.5 9.219-24.78 8.906-33.91-.7187C5.502 327 5.814 311.8 15.41 302.7z"/>
    </symbol>
    <symbol id="chevron-down" viewBox="0 0 448 512">
      <path d="M432.6 209.3l-191.1 183.1C235.1 397.8 229.1 400 224 400s-11.97-2.219-16.59-6.688L15.41 209.3C5.814 200.2 5.502 184.1 14.69 175.4c9.125-9.625 24.38-9.938 33.91-.7187L224 342.8l175.4-168c9.5-9.219 24.78-8.906 33.91 .7187C442.5 184.1 442.2 200.2 432.6 209.3z"/>
    </symbol>
    <symbol id="chevron-left" viewBox="0 0 320 512">
      <path d="M206.7 464.6l-183.1-191.1C18.22 267.1 16 261.1 16 256s2.219-11.97 6.688-16.59l183.1-191.1c9.152-9.594 24.34-9.906 33.9-.7187c9.625 9.125 9.938 24.37 .7187 33.91L73.24 256l168 175.4c9.219 9.5 8.906 24.78-.7187 33.91C231 474.5 215.8 474.2 206.7 464.6z"/>
    </symbol>
    <symbol id="chevron-right" viewBox="0 0 320 512">
      <path d="M113.3 47.41l183.1 191.1c4.469 4.625 6.688 10.62 6.688 16.59s-2.219 11.97-6.688 16.59l-183.1 191.1c-9.152 9.594-24.34 9.906-33.9 .7187c-9.625-9.125-9.938-24.38-.7187-33.91l168-175.4L78.71 80.6c-9.219-9.5-8.906-24.78 .7187-33.91C88.99 37.5 104.2 37.82 113.3 47.41z"/>
    </symbol>
    <symbol id="caret-up" viewBox="0 0 320 512">
      <path d="M9.39 265.4l127.1-128C143.6 131.1 151.8 128 160 128s16.38 3.125 22.63 9.375l127.1 128c9.156 9.156 11.9 22.91 6.943 34.88S300.9 320 287.1 320H32.01c-12.94 0-24.62-7.781-29.58-19.75S.2333 274.5 9.39 265.4z"/>
    </symbol>
    <symbol id="caret-down" viewBox="0 0 320 512">
      <path d="M310.6 246.6l-127.1 128C176.4 380.9 168.2 384 160 384s-16.38-3.125-22.63-9.375l-127.1-128C.2244 237.5-2.516 223.7 2.438 211.8S19.07 192 32 192h255.1c12.94 0 24.62 7.781 29.58 19.75S319.8 237.5 310.6 246.6z"/>
    </symbol>
    <symbol id="caret-left" viewBox="0 0 256 512">
      <path d="M137.4 406.6l-128-127.1C3.125 272.4 0 264.2 0 255.1s3.125-16.38 9.375-22.63l128-127.1c9.156-9.156 22.91-11.9 34.88-6.943S192 115.1 192 128v255.1c0 12.94-7.781 24.62-19.75 29.58S146.5 415.8 137.4 406.6z"/>
    </symbol>
    <symbol id="caret-right" viewBox="0 0 256 512">
      <path d="M118.6 105.4l128 127.1C252.9 239.6 256 247.8 256 255.1s-3.125 16.38-9.375 22.63l-128 127.1c-9.156 9.156-22.91 11.9-34.88 6.943S64 396.9 64 383.1V128c0-12.94 7.781-24.62 19.75-29.58S109.5 96.23 118.6 105.4z"/>
    </symbol>
    <symbol id="arrow-left-to-line" viewBox="0 0 448 512">
      <path d="M48.03 424V88c0-13.25-10.76-24-24.02-24S0 74.75 0 88v336C0 437.3 10.76 448 24.02 448S48.03 437.3 48.03 424zM272.3 366.5L180.3 280h243.6C437.2 280 448 269.3 448 256s-10.76-23.1-24.02-23.1H180.3l91.98-86.53c5.035-4.719 7.568-11.09 7.568-17.47c0-5.906-2.158-11.81-6.536-16.44c-9.069-9.656-24.27-10.12-33.93-1.031l-136.1 128c-9.694 9.062-9.694 25.87 0 34.94l136.1 128c9.663 9.094 24.86 8.625 33.93-1.031C282.5 390.8 282 375.6 272.3 366.5z"/>
    </symbol>
    <symbol id="arrow-right-to-line" viewBox="0 0 448 512">
      <path d="M399.1 88v336c0 13.25 10.76 24 24.02 24C437.2 448 448 437.3 448 424V88C448 74.75 437.2 64 423.1 64C410.7 64 399.1 74.75 399.1 88zM175.7 145.5l91.98 86.53h-243.6C10.76 232 0 242.8 0 256s10.76 24 24.02 24h243.6l-91.98 86.53C170.6 371.3 168.1 377.6 168.1 384c0 5.906 2.158 11.81 6.536 16.44c9.069 9.656 24.27 10.12 33.93 1.031l136.1-128c9.694-9.062 9.694-25.87 0-34.94l-136.1-128C198.9 101.4 183.7 101.9 174.6 111.6C165.5 121.2 165.1 136.4 175.7 145.5z"/>
    </symbol>
    <symbol id="xmark" viewBox="0 0 320 512">
      <path d="M312.1 375c9.369 9.369 9.369 24.57 0 33.94s-24.57 9.369-33.94 0L160 289.9l-119 119c-9.369 9.369-24.57 9.369-33.94 0s-9.369-24.57 0-33.94L126.1 256L7.027 136.1c-9.369-9.369-9.369-24.57 0-33.94s24.57-9.369 33.94 0L160 222.1l119-119c9.369-9.369 24.57-9.369 33.94 0s9.369 24.57 0 33.94L193.9 256L312.1 375z"/>
    </symbol>
    <symbol id="bag-shopping" viewBox="0 0 448 512">
      <path d="M416 160h-72V120C344 53.83 290.2 0 224 0S104 53.83 104 120V160H32C14.33 160 0 174.3 0 192v240C0 476.2 35.82 512 80 512h288c44.18 0 80-35.82 80-80V192C448 174.3 433.7 160 416 160zM152 120C152 80.3 184.3 48 224 48s72 32.3 72 72V160h-144V120zM400 432c0 17.64-14.36 32-32 32h-288c-17.64 0-32-14.36-32-32v-224h56v56C104 277.3 114.8 288 128 288s24-10.75 24-24V208h144v56C296 277.3 306.8 288 320 288s24-10.75 24-24V208h56V432z"/>
    </symbol>
    <symbol id="truck-fast" viewBox="0 0 640 512">
      <path d="M616 368H608V251.9c0-19-7.75-37.5-21.12-50.88l-83.96-83.96C489.4 103.6 471.2 96 452.1 96H416V56C416 25.07 390.9 0 360 0h-240C89.07 0 64 25.07 64 56V96H15.1C7.2 96 0 103.2 0 111.1S7.2 128 15.1 128h224C248.8 128 256 120.8 256 112S248.8 96 240 96H112V56c0-4.4 3.6-8 8-8h240c4.4 0 8 3.6 8 8v312H242.8C226.1 339.4 195.5 320 160 320c-17.62 0-33.75 5.125-48 13.25V288H64l0 124.8c0 52.84 41.32 98.19 94.16 99.18C212 512.1 256 469.6 256 416h128c0 53 43 96 96 96s96-43 96-96h40c13.2 0 24-10.8 24-23.1S629.2 368 616 368zM160 464c-26.5 0-48-21.5-48-48s21.5-48 48-48s48 21.5 48 48S186.5 464 160 464zM416 144h36.13c6.25 0 12.5 2.625 17 7L542.1 224H416V144zM480 464c-26.5 0-48-21.5-48-48s21.5-48 48-48s48 21.5 48 48S506.5 464 480 464zM560 363.1C542.8 337.2 513.4 320 480 320c-24.75 0-47 9.625-64 24.88V272h144V363.1zM256 240C256 231.2 248.8 224 240 224h-224C7.2 224 0 231.2 0 240S7.2 256 15.1 256h224C248.8 256 256 248.8 256 240zM272 192C280.8 192 288 184.8 288 176C288 167.2 280.8 160 272 160h-224C39.2 160 32 167.2 32 176S39.2 192 47.1 192H272z"/>
    </symbol>
    <symbol id="location-dot" viewBox="0 0 384 512">
      <path d="M192 0C85.97 0 0 85.97 0 192c0 77.41 26.97 99.03 172.3 309.7C177 508.6 184.5 512 192 512s14.95-3.441 19.72-10.32C357 291 384 269.4 384 192C384 85.97 298 0 192 0zM192 445.8c-17.69-25.46-33.42-47.87-47.38-67.75C57.56 254.1 48 238.9 48 192c0-79.4 64.6-144 144-144s144 64.6 144 144c0 46.88-9.562 62.07-96.62 186.1C225.4 397.1 209.7 420.4 192 445.8zM192 111.1c-44.18 0-80 35.82-80 80S147.8 271.1 192 271.1c44.18 0 80-35.82 80-80S236.2 111.1 192 111.1zM192 224C174.4 224 160 209.6 160 192s14.36-32 32-32s32 14.36 32 32S209.6 224 192 224z"/>
    </symbol>
    <symbol id="badge-check" viewBox="0 0 576 512">
      <path d="M543.8 256c0-36.5-18.86-68.38-46.86-86.75c6.875-32.88-2.517-68.63-28.14-94.25c-25.62-25.75-61.61-35.13-94.36-28.25C355.1 18.75 324.1 0 287.8 0S219.5 18.75 200.1 46.75C168.1 39.88 132.5 49.38 106.8 75C81.09 100.6 71.61 136.5 78.48 169.3C50.36 187.8 31.84 219.8 31.84 256s18.64 68.25 46.64 86.75C71.61 375.6 81.21 411.4 106.8 437c25.62 25.75 61.14 35.13 94.14 28.25C219.5 493.4 251.6 512 287.8 512c36.38 0 68.14-18.75 86.64-46.75c33 6.875 68.73-2.625 94.36-28.25c25.75-25.62 35.02-61.5 28.14-94.25C525.1 324.3 543.8 292.3 543.8 256zM435.5 317.3c9 20 30.25 54.88-.75 85.88c-28 28-55.25 14.5-85.75 .625C341.2 424.4 331.6 464 287.7 464c-45.25 0-54.75-42.75-61.25-60.25C205.5 413.4 171.6 434 140.6 403c-32-32-8.375-68.88-.625-85.75C119.4 309.5 79.73 299.9 79.73 256c0-45.25 42.75-54.75 60.25-61.25c-9-20-30.25-54.88 .75-85.88c32-32 68.88-8.375 85.75-.625C234.2 87.63 243.9 48 287.7 48c45.25 0 54.75 42.75 61.25 60.38c19.88-9.125 54.75-30.25 85.75 .75c32 32 8.375 68.88 .75 85.75c20.5 7.75 60.13 17.38 60.13 61.25C495.6 301.4 452.9 310.8 435.5 317.3zM384.1 183c9.375 9.375 9.375 24.56 0 33.94l-112 112C268.3 333.7 262.1 336 256 336s-12.28-2.344-16.97-7.031l-48-48c-9.375-9.375-9.375-24.56 0-33.94s24.56-9.375 33.94 0L256 278.1l95.03-95.03C360.4 173.7 375.6 173.7 384.1 183z"/>
    </symbol>
    <symbol id="right-long" viewBox="0 0 512 512">
      <path d="M366.3 381.1c-8.758-3.811-14.42-12.45-14.42-21.1l.0004-80H24c-13.25 0-24-10.75-24-23.1s10.75-24 24-24h327.9l-.0004-79.1c0-9.547 5.66-18.19 14.42-22c8.754-3.811 18.95-2.075 25.94 4.41l112.1 104c10.23 9.5 10.23 25.69 0 35.19l-112.1 104C385.3 384.1 375.1 385.8 366.3 381.1z"/>
    </symbol>
    <symbol id="nike" viewBox="0 0 250 90">
      <g clip-path="url(#a)">
        <path fill="#000" d="M27.577 89.06c-7.45-.295-13.544-2.333-18.309-6.119-.91-.723-3.076-2.892-3.803-3.806-1.933-2.43-3.247-4.795-4.123-7.419-2.696-8.076-1.308-18.674 3.97-30.305C9.83 31.453 16.804 21.575 28.97 7.898c1.792-2.013 7.129-7.9 7.163-7.9.013 0-.278.504-.644 1.118-3.163 5.298-5.87 11.54-7.344 16.942-2.37 8.67-2.083 16.11.836 21.88 2.014 3.974 5.467 7.416 9.35 9.32 6.797 3.33 16.748 3.605 28.901.805.837-.193 42.299-11.2 92.138-24.459 49.839-13.26 90.624-24.1 90.63-24.091.014.011-115.791 49.565-175.907 75.272-9.52 4.07-12.066 5.099-16.542 6.67-11.441 4.018-21.69 5.935-29.974 5.606Z"/>
      </g>
      <defs>
        <clipPath id="a">
          <path fill="#fff" d="M0 0h250v89.097H0z"/>
        </clipPath>
      </defs>
    </symbol>
    <symbol id="adidas" viewBox="0 0 250 173">
      <path fill="#000" d="m163.429 112.657-50.866-88.4 36.542-20.99 63.251 109.39h-48.927ZM27.945 100.271l36.542-21.13 19.334 33.516H35.036l-7.091-12.386ZM99.658 169.053h10.4V126.98h-10.4v42.073ZM229.989 170.046c-11.629 0-18.625-6.003-19.004-14.465h10.968c0 2.647 1.654 6.523 8.745 6.665 4.727 0 6.949-2.789 6.949-4.869-.283-3.309-4.443-3.593-8.887-4.302-4.444-.709-8.225-1.512-10.967-2.931-3.499-1.796-5.862-5.672-5.862-10.116 0-7.516 6.523-13.473 17.396-13.473 10.542 0 17.208 5.531 17.917 13.757h-10.589c-.095-2.222-.52-5.72-6.76-5.72-4.208 0-6.997.85-7.233 3.781 0 4.302 8.745 4.019 15.553 5.815 6.523 1.655 10.683 5.72 10.683 11.393 0 10.447-8.462 14.465-18.909 14.465ZM70.774 62.737l36.542-21.084 40.985 71.004h-38.243v10.4h-10.4V112.61L70.774 62.737ZM71.72 170.046c-12.103 0-21.935-9.88-21.935-21.84 0-12.102 9.832-21.651 21.934-21.651 4.586 0 8.746 1.229 12.386 3.735v-17.633h10.4v56.396h-10.4v-2.789c-3.64 2.364-7.8 3.782-12.386 3.782Zm-11.96-21.84c0 6.524 5.578 11.96 12.243 11.96 6.524 0 12.102-5.436 12.102-11.96 0-6.524-5.578-12.102-12.102-12.102-6.665 0-12.244 5.578-12.244 12.102ZM148.585 112.657h10.258v56.396h-10.258v-2.789c-3.498 2.364-7.8 3.782-12.527 3.782-11.96 0-21.793-9.88-21.793-21.84 0-12.102 9.833-21.651 21.793-21.651 4.727 0 8.887 1.229 12.527 3.735v-17.633Zm-24.203 35.549c0 6.524 5.578 11.96 11.96 11.96 6.665 0 12.243-5.436 12.243-11.96 0-6.524-5.578-12.102-12.243-12.102-6.382 0-11.96 5.578-11.96 12.102ZM184.134 170.046c-11.913 0-21.793-9.88-21.793-21.84 0-12.102 9.88-21.651 21.793-21.651 4.586 0 8.887 1.229 12.386 3.735v-3.357h10.4v42.12h-10.4v-2.789c-3.499 2.364-7.659 3.782-12.386 3.782Zm-11.676-21.84c0 6.524 5.578 11.96 12.102 11.96 6.523 0 11.96-5.436 11.96-11.96 0-6.524-5.437-12.102-11.96-12.102-6.524 0-12.102 5.578-12.102 12.102ZM11.54 148.206c0 6.524 5.58 11.96 12.103 11.96 6.665 0 12.243-5.436 12.243-11.96 0-6.524-5.578-12.102-12.243-12.102-6.524 0-12.102 5.578-12.102 12.102Zm11.82 21.84c-11.96 0-21.841-9.88-21.841-21.84 0-12.102 9.88-21.651 21.84-21.651 4.586 0 8.887 1.229 12.527 3.735v-3.357h10.259v42.12H35.886v-2.789c-3.498 2.364-7.8 3.782-12.527 3.782Z"/>
    </symbol>
    <symbol id="mikasa" viewBox="0 0 251 68">
      <g fill="#000" clip-path="url(#a)">
        <path d="M152.44 29.33H137.4l-13.89 34.55-.65-.8-12.88-16.1 16.68-17.66h-14.72l-14 15.84V29.33H85.32v37.76h12.62V50.25l12.73 16.84h24.55l2.49-6.45h14.4l2.49 6.45h13.01l-15.17-37.76Zm-11.78 23.7 4.25-12.74 4.25 12.74h-8.5ZM237.49 67.09h13.01l-15.18-37.76h-15.04L205.1 67.09h13.01l2.49-6.45H235l2.49 6.45Zm-13.94-14.06 4.25-12.74 4.25 12.74h-8.5ZM79.83 67.09V29.33H66.89v37.76H79.83ZM178.73 52.12c-4.37-.3-6.88-.51-9.33-2.84-1.59-1.52-2.98-4.06-2.98-8.75s1.2-7.22 3.31-9.03c3.37-2.89 9.9-2.82 16.8-2.82 10.59 0 13.8.89 16.87 4.69 1.11 1.37 2.05 4.53 2.23 7.97h-11.69c.23-3.3-3.8-3.48-8.18-3.48-3.18 0-8.76-.2-8.95 2.8-.21 3.12 3.72 2.87 6.75 3.01 0 0 6.44.26 11.17.47 5.04.23 6.76 1.48 8.19 2.89 2.19 2.16 2.67 5.93 2.67 8.92 0 10.4-6.75 11.65-18.35 11.65-11.6 0-14.27-.91-16.98-3.25-1.91-1.65-3.54-4.62-3.54-9.44h11.35c-.23 3.3 4.57 3.48 8.94 3.48 3.18 0 7.8.24 8.19-2.79.41-3.1-2.96-2.88-5.99-3.02.01.02-5.75-.14-10.48-.46ZM73.36.5l-3.12 9.61H60.13l8.18 5.95-3.13 9.61 8.18-5.94 8.18 5.94-3.12-9.61 8.18-5.95H76.49L73.36.5ZM32.15 40.3l-6.08-19.16H12.81L.5 67.09h14.04l5.29-23.39 6.7 23.39h11.28l6.7-23.39 5.29 23.39h14.04L51.53 21.14H38.27L32.15 40.3Z"/>
      </g>
      <defs>
        <clipPath id="a">
          <path fill="#fff" d="M.5.5h250v67.12H.5z"/>
        </clipPath>
      </defs>
    </symbol>
    <symbol id="wilson" viewBox="0 0 250 63">
      <path fill="#000" d="M25.144 3.33H4.757v9.218h6v27.929s0 17.455 18.443 17.455c0 0 7.818.146 12.427-6.287 0 0 3.915 6.287 11.31 6.287 0 0 6.998.706 11.738-3.627 0 0 9.788-6.564 9.637-26.82 0 0-.282-15.214-3.91-24.156H53.617v9.219h5.054s2.66 7.541 2.66 17.178c0 0 .293 5.775-2.66 11.869 0 0-1.803 4.338-5.733 4.338 0 0-3.48-.147-3.35-4.338V3.329H29.2v9.219h6.01V40.91s0 5.023-5.023 5.023c0 0-5.043-.005-5.043-5.023V3.33ZM87.058 7.484s8.477 0 8.477 6.564c0 0 .037 6.564-8.477 6.564 0 0-8.529 0-8.529-6.564 0 0-.062-6.564 8.53-6.564Z"/>
      <path fill="#000" d="M76.967 21.767h16.609v22.002s0 2.514 2.315 2.514c0 0 2.864-.345 4.536-3.084 0 0 2.519-3.209 2.519-5.858V10.74s.345-9.637 13.259-9.637c0 0 12.856-.418 12.856 12.077 0 0 .711 5.859-4.045 14.247 0 0-2.096 3.904-4.479 7.473 0 0-1.74 2.707-3.418 5.09 0 0-1.327 1.474-1.327 3.361 0 0-.146 3.14 3.214 3.14 0 0 2.937-.067 5.231-2.586 0 0 3.434-3.209 5.242-8.372 0 0 2.864-6.225 3-13.766h12.224s.063 1.181.423 2.446c0 0 .418 1.881 2.869 5.242 0 0 3.418 4.886 4.469 6.7 0 0 2.576 3.835 2.576 8.664 0 0-.068 4.814-3.433 8.164 0 0-3.763 4.688-9.277 4.688 0 0-3.841 0-7.259-1.898 0 0-4.196-2.236-6.01-4.75 0 0-.193-.277-.685-.277l-.679.298s-2.488 2.64-5.127 4.097c0 0-3.496 2.53-8.586 2.53 0 0-4.62 0-7.406-2.666 0 0-2.446-2.022-2.937-4.4l-.517-.397-.601.37s-2.164 2.551-4.892 4.427c0 0-2.932 2.666-8.1 2.666 0 0-4.678.062-7.129-2.446 0 0-2.712-2.383-2.712-6.005V29.868s.13-1.82-2.723-1.82v-6.281Zm57.613 18.856a44 44 0 0 1-1.333 3.005l-.271.867c.062.481.308.915.308.915.627 1.024 1.542 1.578 1.542 1.578.946.758 2.519.758 2.519.758 1.902 0 2.816-1.495 2.816-1.495.952-1.3.952-2.728.952-2.728 0-.94-.701-2.231-.701-2.231-.533-1.119-1.604-3.141-1.604-3.141-.638-1.045-1.254-2.373-1.254-2.373-.303-.778-.586-.669-.586-.669l-.538.805a79.17 79.17 0 0 1-1.85 4.709Zm-18.621-12.449.565-.643c2.383-3.428 4.16-9.81 4.16-9.81.554-1.77.616-4.232.616-4.232 0-1.573-.616-3.105-.616-3.105-.753-1.53-1.85-1.505-1.85-1.505-1.417 0-2.483 1.897-2.483 1.897-.982 1.615-.982 4.495-.982 4.495v11.795c0 1.646.59 1.108.59 1.108ZM155.95 39.363s.271-8.66 5.445-13.122c0 0 5.028-5.038 13.061-5.038 0 0 8.027.073 12.365 4.541 0 0 1.327 1.254 2.027 2.305 0 0 .492.559.904.068 0 0 2.587-3 4.255-4.113 0 0 3.423-2.864 7.259-2.864 0 0 3.156-.079 4.891 1.604 0 0 2.107 1.751 3.157 3.915 0 0 .554.904 1.385.068 0 0 1.745-1.898 3.773-3.282 0 0 3.277-2.52 7.902-2.52 0 0 4.113.136 6.063 2.091 0 0 3.417 2.728 3.417 6.507v19.415s0 2.367 2.101 2.43h2.101v6.01h-11.257s-6.763-.073-6.763-7.468V36.008s0-2.932-3.632-2.932c0 0-4.055.079-4.055 3.429v20.873h-13.818V35.94s-.079-2.022-1.678-2.022c0 0-1.468.209-2.31 1.264 0 0-.684.622-.345 1.6 0 0 .277 1.463.277 3.146 0 0 .068 7.88-4.944 12.496 0 0-4.897 5.241-13.008 5.241 0 0-8.027 0-12.636-4.609 0 0-5.937-4.813-5.937-13.693Zm18.302 8.927s2.299.104 3.135-1.673c0 0 .972-1.892 1.197-7.196v-.058c-.225-5.304-1.197-7.186-1.197-7.186-.836-1.782-3.135-1.672-3.135-1.672h-.068s-2.31-.11-3.152 1.672c0 0-.972 1.882-1.191 7.186v.058c.219 5.304 1.191 7.196 1.191 7.196.842 1.777 3.152 1.673 3.152 1.673h.068ZM242.129 51.3c.831 0 1.536.288 2.117.878.59.58.872 1.28.872 2.106 0 .836-.282 1.542-.872 2.127-.575.58-1.281.868-2.117.868-.826 0-1.537-.288-2.106-.868-.575-.585-.857-1.29-.857-2.127 0-.826.282-1.526.857-2.106a2.858 2.858 0 0 1 2.106-.878Zm3.486 2.984c0-.956-.34-1.777-1.009-2.446-.69-.674-1.5-1.014-2.461-1.014-.957 0-1.777.34-2.441 1.014-.679.68-1.024 1.49-1.024 2.446 0 .962.345 1.772 1.014 2.451.669.68 1.489 1.02 2.451 1.02.961 0 1.771-.34 2.461-1.02.669-.68 1.009-1.49 1.009-2.45Zm-2.545-.747-.392.575-.648.099h-.622v-1.37h.58l.831.142.251.554Zm-2.321-1.176v3.81h.659v-1.495h.533l.758.12.365.868v.303l.006.13.01.037.011.037h.621l-.015-.042-.042-.204V55.361l-.214-.58-.643-.377.549-.177.365-.758c0-.476-.203-.8-.59-.962-.22-.089-.564-.146-1.051-.146h-1.322Z"/>
    </symbol>
    <symbol id="classic-ball" viewBox="0 0 216 217">
      <path fill="#CFD1CD" d="M211.807 101.804c.144 2.234.225 4.488.225 6.759 0 25.119-8.935 48.193-23.791 66.209.375-1.303.694-2.618.938-3.983 1.3-7.283 1.541-13.798.717-19.377 1.993-2.827 3.735-5.957 5.023-9.11 1.605-3.948 3.433-8.661 4.82-13.693 1.524-5.547 2.41-11.169 2.727-17.364 2.398-1.095 4.512-3.501 6.095-5.31.25-.287.484-.557.703-.798a25.84 25.84 0 0 0 2.543-3.333Z"/>
      <path fill="#211915" d="M184.039 32.33c20.36 20.364 31.575 47.435 31.575 76.232 0 28.797-11.215 55.871-31.575 76.231-20.364 20.364-47.436 31.576-76.232 31.576-28.797 0-55.871-11.212-76.232-31.576-20.364-20.36-31.579-47.435-31.579-76.231 0-28.797 11.215-55.868 31.579-76.232C51.936 11.969 79.01.755 107.807.755c28.796 0 55.868 11.214 76.232 31.575Zm27.992 76.233c0-2.27-.081-4.524-.225-6.759a25.526 25.526 0 0 1-2.544 3.332c-.219.241-.453.511-.703.798-1.583 1.808-3.697 4.215-6.095 5.31-.316 6.195-1.202 11.817-2.727 17.364-1.388 5.032-3.215 9.745-4.82 13.693-1.287 3.153-3.029 6.283-5.023 9.11.824 5.579.583 12.094-.717 19.377a39.344 39.344 0 0 1-.938 3.983c14.858-18.015 23.792-41.089 23.792-66.208Zm-14.491 19.438c1.629-5.928 2.508-11.954 2.727-18.726-1.824-7.996-6.763-15.898-10.964-20.814-2.632-3.078-6.449-6.768-9.841-9.521-7.403 1.635-15.006 3.345-22.402 5.407-1.86.521-3.766 1.189-5.607 1.834-1.696.596-3.427 1.202-5.179 1.716-2.713 19.162-6.01 25.491-11.436 35.904-.82 1.577-1.667 3.202-2.573 4.984 1.476 1.645 2.893 3.543 4.209 5.309.703.941 1.368 1.834 1.977 2.596 6.01 7.527 11.183 16.045 15.149 24.896 1.863-.147 3.303-.58 5.02-1.095 1.049-.315 2.238-.674 3.645-.993 8.143-1.856 17.335-3.961 25.035-8.381 2.195-2.935 4.127-6.29 5.505-9.678 1.582-3.884 3.38-8.519 4.735-13.438ZM183.971 38.62c.645.319 1.279.645 1.905.974-12.935-14.622-29.895-25.599-49.136-31.169a31.049 31.049 0 0 1 5.968 5.981c.013 0 .029.003.042.006.026-.003.049-.003.075-.003v.013c.57.072 1.176.104 1.808.134.964.042 1.964.088 2.948.303 3.016.665 5.967 1.883 9.289 3.834l.785.459c5.218 3.062 10.612 6.228 14.866 10.531a34.054 34.054 0 0 1 5.449 7.202c2.143.198 3.932.719 6.001 1.735Zm-4.88 38.067c2.176-5.847 3.114-11.338 2.785-16.329-.186-2.804-.844-5.674-1.482-8.452-.335-1.456-.681-2.961-.954-4.443-1.127-6.072-4.078-11.664-8.537-16.175-4.046-4.091-9.309-7.183-14.4-10.169l-.785-.459c-3.11-1.828-5.85-2.964-8.625-3.573-.791-.173-1.651-.212-2.564-.254a26.006 26.006 0 0 1-1.932-.137c-4.042.056-7.774 1.157-11.719 2.323l-.58.172c-1.046.306-2.007.587-2.899.844-7.762 2.257-10.162 2.958-18.442 8.202.033 2.186.134 4.388.238 6.547.12 2.609.251 5.306.251 7.938v.244c0 5.271.003 10.638.296 15.974 15.55 7.179 23.019 13.4 35.56 26.866 1.817-.518 3.625-1.15 5.397-1.772 1.877-.658 3.818-1.339 5.749-1.879 7.493-2.09 15.171-3.817 22.643-5.468Zm-29.931 90.949c1.063-2.28 1.609-3.473 1.648-6.675-3.792-8.116-8.603-15.911-14.14-22.846a102.356 102.356 0 0 1-2.022-2.658c-1.241-1.661-2.573-3.449-3.926-4.98-10.097 2.297-17.699 3.404-25.641 3.404-6.185 0-12.579-.671-20.52-1.971a83.987 83.987 0 0 0-2.378 3.668 765.124 765.124 0 0 0-3.065 5.097c-4.215 7.039-10.518 17.566-13.85 22.332 2.7 10.794 12.788 24.357 20.82 30.996 6.081 1.449 12.954 2.159 20.97 2.169h.149c7.163 0 14.642-.648 22.791-1.974 3.066-2.355 4.648-4.414 6.635-7.003a100.59 100.59 0 0 1 2.717-3.434c3.684-4.42 6.54-8.352 8.508-13.176.49-1.19.923-2.126 1.304-2.949Zm-3.554 38.056c-7.318-2.254-12.97-6.572-15.53-9.194-8.159 1.313-15.667 1.954-22.869 1.954h-.153c-8.247-.01-15.331-.753-21.618-2.261-5.107 4.645-6.42 5.703-14.081 8.241-.994.328-1.873.56-2.694.72 12.091 4.918 25.306 7.635 39.146 7.635 13.325 0 26.074-2.517 37.799-7.095ZM107.475 59.225c-.31-5.439-.31-10.902-.31-16.26v-.244c0-2.577-.127-5.248-.251-7.831-.107-2.315-.218-4.684-.244-7.039-1.586-1.153-3.296-2.15-4.934-3.059-4.557-2.531-9.287-4.215-15.338-5.466a110.243 110.243 0 0 0-16.231-2.137c-3.101 1.052-5.915 2.274-8.814 4.088-7.723 4.831-13.28 9.189-18.025 14.126-2.619 2.723-5.065 5.909-7.078 9.211-1.645 4.932-1.443 7.225-1 12.186.043.462.085.948.13 1.456.589 6.863 1.814 12.791 3.642 17.645 2.199.202 4.505.596 6.801 1.192a169.304 169.304 0 0 1 25.367 8.742c3.498-3.566 4.69-4.413 7.156-6.165a156.399 156.399 0 0 0 4.107-3c3.801-2.879 6.28-4.844 8.274-6.42 5.034-3.983 6.48-5.129 16.748-11.025Zm-27.244 75.168a92.268 92.268 0 0 1 2.563-3.941c-5.088-8.567-7.755-17.404-9.687-24.964-1.127-4.407-2.462-11.286-2.899-17.589A167.446 167.446 0 0 0 45.251 79.3a41.052 41.052 0 0 0-6.788-1.163c-3.462 2.149-7.251 6.361-8.354 7.635-3.727 4.293-7.879 9.387-10.407 14.635-1.867 3.872-1.867 3.872-2.235 6.658a144.16 144.16 0 0 1-.322 2.352l-.137-.02c-.023.6-.052 1.212-.078 1.834-.098 2.127-.196 4.332-.065 6.149.925 12.694 5.661 25.987 12.537 36.22 3.749 2.046 7.313 2.932 11.433 3.951.853.212 1.723.427 2.612.658 6.58 1.707 13.136 2.814 20.016 3.393 3.296-4.732 9.524-15.13 13.696-22.1 1.222-2.035 2.28-3.807 3.072-5.109Zm.231 59.248a1.142 1.142 0 0 0-.424-1.289l-.788 2.061a1.14 1.14 0 0 0 1.212-.772ZM68.54 15.34a15.993 15.993 0 0 1 3.626-4.726c-19.521 7.127-36.328 19.934-48.422 36.409 3.186-1.944 6.938-3.544 10.691-3.804 2.075-3.368 4.573-6.609 7.247-9.394 4.814-5.01 10.681-9.612 18.462-14.481 2.801-1.753 5.495-2.971 8.396-4.004ZM25.19 166.407c.121-4.264.381-8.117 2.182-11.696-7.749-11.625-11.967-25.967-12.781-37.165-.14-1.955-.039-4.225.062-6.42l.049-1.118c-2.107-.505-3.241-1.423-4.427-2.384l-.238-.195c-2.365-1.912-4.453-4.814-6.029-8.267-.28 3.098-.43 6.231-.43 9.4 0 24.306 8.365 46.692 22.361 64.438a23.422 23.422 0 0 1-.749-6.593Z"/>
      <path fill="#CFD1CD" d="M200.267 109.275c-.219 6.772-1.098 12.798-2.727 18.726-1.355 4.918-3.153 9.553-4.736 13.439-1.378 3.388-3.31 6.743-5.505 9.678-7.7 4.42-16.892 6.524-25.035 8.381-1.406.319-2.596.678-3.645.993-1.717.515-3.156.948-5.02 1.095-3.967-8.851-9.14-17.368-15.149-24.896-.608-.762-1.273-1.654-1.977-2.596-1.316-1.766-2.733-3.664-4.209-5.309.906-1.782 1.753-3.407 2.573-4.984 5.427-10.413 8.724-16.742 11.436-35.904 1.752-.515 3.482-1.121 5.179-1.716 1.841-.645 3.746-1.313 5.607-1.834 7.396-2.062 14.999-3.772 22.402-5.407 3.392 2.753 7.209 6.443 9.841 9.521 4.202 4.915 9.14 12.817 10.965 20.813Z"/>
      <path fill="#F3F5F3" d="M185.876 39.594a89.246 89.246 0 0 0-1.905-.974c-2.068-1.017-3.857-1.538-6-1.736a34.054 34.054 0 0 0-5.449-7.202c-4.254-4.303-9.648-7.469-14.866-10.531l-.785-.459c-3.322-1.951-6.273-3.169-9.289-3.834-.984-.215-1.984-.261-2.948-.303a23.114 23.114 0 0 1-1.808-.134v-.013c-.026 0-.049 0-.075.003a.203.203 0 0 0-.042-.006 31.077 31.077 0 0 0-5.968-5.981c19.24 5.571 36.2 16.548 49.135 31.17Z"/>
      <path fill="#E1E3DF" d="M181.876 60.358c.329 4.99-.609 10.482-2.785 16.329-7.472 1.651-15.149 3.378-22.645 5.466-1.931.541-3.872 1.221-5.749 1.879-1.772.622-3.579 1.254-5.397 1.772-12.541-13.465-20.01-19.687-35.56-26.866-.293-5.336-.296-10.703-.296-15.974v-.244c0-2.632-.131-5.329-.251-7.938-.104-2.159-.205-4.361-.238-6.547 8.28-5.244 10.681-5.944 18.442-8.202.893-.257 1.854-.538 2.899-.844l.58-.172c3.944-1.166 7.677-2.267 11.719-2.323.646.079 1.297.108 1.932.137.912.042 1.772.081 2.564.254 2.775.609 5.515 1.746 8.625 3.573l.785.459c5.091 2.987 10.354 6.078 14.4 10.169 4.459 4.511 7.41 10.104 8.537 16.175.273 1.482.619 2.987.954 4.443.64 2.781 1.298 5.65 1.484 8.454Z"/>
      <path fill="#CFD1CD" d="M150.809 160.961c-.039 3.202-.586 4.395-1.648 6.675a68.95 68.95 0 0 0-1.303 2.95c-1.968 4.824-4.824 8.756-8.508 13.176a100.853 100.853 0 0 0-2.717 3.434c-1.986 2.589-3.569 4.647-6.635 7.003-8.149 1.325-15.628 1.974-22.791 1.974h-.149c-8.016-.01-14.89-.72-20.97-2.169-8.032-6.639-18.12-20.202-20.82-30.996 3.333-4.766 9.635-15.293 13.85-22.332a765.124 765.124 0 0 1 3.065-5.097 83.069 83.069 0 0 1 2.378-3.668c7.94 1.3 14.335 1.971 20.52 1.971 7.941 0 15.544-1.107 25.641-3.404 1.352 1.531 2.685 3.319 3.926 4.98.716.961 1.391 1.866 2.022 2.658 5.536 6.934 10.347 14.729 14.139 22.845Z"/>
      <path fill="#B5B7AE" d="M130.076 196.498c2.56 2.622 8.212 6.941 15.53 9.194-11.725 4.577-24.475 7.095-37.8 7.095-13.84 0-27.055-2.717-39.146-7.635.821-.16 1.7-.392 2.694-.72 7.661-2.538 8.974-3.597 14.081-8.241 6.287 1.508 13.371 2.251 21.618 2.261h.153c7.203 0 14.711-.642 22.87-1.954Z"/>
      <path fill="#E1E3DF" d="M107.165 42.965c0 5.358 0 10.821.31 16.26-10.267 5.896-11.713 7.042-16.749 11.026-1.993 1.576-4.472 3.54-8.274 6.42a154.714 154.714 0 0 1-4.107 3c-2.466 1.752-3.658 2.599-7.156 6.165a169.304 169.304 0 0 0-25.367-8.742 42.871 42.871 0 0 0-6.801-1.192c-1.827-4.854-3.052-10.782-3.642-17.645l-.13-1.456c-.443-4.961-.645-7.254 1-12.186a54.093 54.093 0 0 1 7.078-9.211c4.746-4.938 10.303-9.296 18.025-14.126 2.899-1.814 5.713-3.036 8.814-4.088 5.42.306 10.746 1.003 16.231 2.137 6.052 1.251 10.781 2.935 15.338 5.466 1.638.909 3.348 1.905 4.934 3.059.026 2.355.137 4.723.244 7.039.124 2.583.251 5.254.251 7.831l.001.243Z"/>
      <path fill="#CFD1CD" d="M82.794 130.451a92.901 92.901 0 0 0-2.563 3.941c-.792 1.303-1.85 3.074-3.072 5.11-4.172 6.97-10.4 17.367-13.696 22.1-6.879-.579-13.436-1.687-20.016-3.393-.889-.232-1.759-.446-2.612-.658-4.121-1.02-7.684-1.905-11.433-3.951-6.876-10.233-11.612-23.526-12.537-36.22-.13-1.817-.032-4.022.065-6.149.026-.622.055-1.234.078-1.834l.137.02c.14-.964.241-1.723.322-2.352.368-2.785.368-2.785 2.235-6.658 2.527-5.248 6.68-10.342 10.407-14.635 1.104-1.273 4.892-5.485 8.354-7.635 2.176.179 4.485.57 6.788 1.163a167.446 167.446 0 0 1 24.957 8.599c.437 6.303 1.772 13.182 2.899 17.589 1.932 7.559 4.599 16.396 9.687 24.963Z"/>
      <path fill="#211915" d="M80.039 192.352a1.14 1.14 0 0 1-.788 2.061l.788-2.061Z"/>
      <path fill="#F3F5F3" d="M72.166 10.614a16.01 16.01 0 0 0-3.626 4.726c-2.902 1.033-5.596 2.251-8.397 4.003-7.781 4.87-13.648 9.472-18.462 14.481-2.674 2.785-5.172 6.026-7.247 9.394-3.753.26-7.505 1.86-10.691 3.804 12.095-16.474 28.902-29.281 48.423-36.408Z"/>
      <path fill="#B5B7AE" d="M27.373 154.711c-1.801 3.579-2.062 7.433-2.182 11.696A23.427 23.427 0 0 0 25.94 173c-13.996-17.745-22.361-40.132-22.361-64.438 0-3.169.15-6.303.43-9.4 1.576 3.453 3.664 6.355 6.029 8.267l.238.195c1.186.961 2.319 1.879 4.427 2.384l-.049 1.118c-.101 2.195-.202 4.465-.062 6.42.814 11.198 5.031 25.54 12.781 37.165Z"/>
      <path fill="#FAFAFA" d="M190.067 44.638a74.17 74.17 0 0 0-5.54-3.181c9.257 16.335 20.567 33.878 19.321 52.915 0 .326-1.306-2.606-2.607-1.629-.326 0-.651 1.303-.326 1.954.972 4.076 2.981 7.92 3.967 11.877.73-.74 1.397-1.503 1.96-2.144.26-.296.499-.573.725-.825 1.662-1.84 2.941-3.811 3.891-5.977-2.075-19.838-9.744-38.036-21.391-52.99Z" opacity=".3"/>
      <path fill="#211915" d="M75.045 14.075c.264-.076.529-.143.795-.204l-.085-.303c-.238.164-.475.333-.71.507Z"/>
      <path fill="#FAFAFA" d="M153.036 90.138c8.312-4.281 17.984-6.034 26.009-10.975l-.073-.06c-7.403 1.634-15.005 3.345-22.402 5.405-1.86.523-3.766 1.19-5.605 1.835-1.696.595-3.429 1.202-5.18 1.717-2.434 17.189-5.337 24.052-9.827 32.799 2.23-3.51 4.281-7.128 6.329-10.852 4.234-6.84 4.234-16.612 10.749-19.869Z" opacity=".3"/>
      <path fill="#FAFAFA" d="M181.371 134.111c-2.93-1.304-6.188-.327-9.119 1.628-2.28 1.629-5.538 4.887-7.817 2.605-2.605-3.256-6.513-4.885-9.772-2.605-4.357 3.588-5.891 8.586-8.251 13.252a117.184 117.184 0 0 1 6.697 12.756c1.864-.144 3.302-.58 5.02-1.093 1.048-.316 2.237-.674 3.645-.994 8.143-1.856 17.334-3.961 25.034-8.381 2.196-2.935 4.127-6.289 5.505-9.677 1-2.453 2.086-5.208 3.092-8.143-4.459 2.043-9.244 2.875-14.034.652ZM181.048 164.403c-7.167 9.772-13.683 19.219-23.453 27.36-4.885 4.233-13.356.977-14.983 5.863-.949 3.082 2.937 5.128 7.007 6.39a104.757 104.757 0 0 0 34.706-24.77c1.123-2.995 2.067-5.835 2.607-8.86.018-.096.031-.186.049-.282a9.103 9.103 0 0 0-2.351-1.468c-1.63-.652-1.954-2.931-3.582-4.233Z" opacity=".2"/>
      <path fill="#F3F5F3" d="M177.968 36.883c2.143.198 3.934.72 6.002 1.737a78.76 78.76 0 0 1 1.903.973 105.429 105.429 0 0 0-7.308-7.476 34.133 34.133 0 0 0-4.427-.678 33.554 33.554 0 0 1 3.83 5.444Z"/>
      <path fill="#F3F5F3" d="M142.706 14.404c.013 0 .03.004.042.008.026-.003.049-.003.074-.003v.013c.57.07 1.177.104 1.81.133.963.042 1.964.088 2.947.302 3.016.665 5.968 1.883 9.289 3.835l.785.458c5.218 3.063 10.612 6.229 14.866 10.53a34.217 34.217 0 0 1 1.619 1.759c1.476.128 2.96.354 4.427.678-11.762-10.893-26.023-19.118-41.826-23.693a31.095 31.095 0 0 1 5.967 5.98Z"/>
      <path fill="#FAFAFA" d="M132.84 142.905c-2.606-1.629-4.886-3.909-8.469-2.605-10.75 3.907-23.453 12.378-33.874 3.907-11.636 1.889-15.682 14.398-24.448 21.418 3.511 10.286 12.642 22.264 20.037 28.377 6.082 1.448 12.955 2.16 20.97 2.168h.148c7.163 0 14.642-.647 22.791-1.975 3.065-2.353 4.651-4.411 6.637-7.001a97.208 97.208 0 0 1 2.717-3.435c3.683-4.418 6.539-8.35 8.507-13.174.487-1.193.922-2.128 1.304-2.953 1.064-2.278 1.608-3.473 1.647-6.673a113.694 113.694 0 0 0-2.574-5.16c-4.216-5.1-9.478-9.414-15.393-12.894Z" opacity=".2"/>
      <path fill="#FAFAFA" d="M73.842 87.024c.21.097.421.197.632.294.665-.804 1.502-1.437 2.342-2.067 10.097-7.49 24.103-8.794 30.291-20.194.226-.524.259-1.013.152-1.452-12.041 6.261-23.005 14.727-33.417 23.419ZM108.41 20.434c-7.492-6.189-16.611-10.098-26.057-9.447-2.555.197-4.634 1.226-6.597 2.581l.085.303c8.405-1.924 17.016 3.197 25.078 5.586 2.932.978 5.213 4.235 8.144 2.931.65-.325-.326-1.629-.653-1.954Z" opacity=".3"/>
      <path fill="#CFD1CD" d="M130.074 196.497c-8.158 1.313-15.666 1.954-22.87 1.954h-.152c-8.247-.011-15.331-.753-21.618-2.262-5.107 4.645-6.42 5.703-14.081 8.241-.994.33-1.873.561-2.694.721 1.661.675 3.346 1.304 5.047 1.896 6.124-1.016 11.3-4.862 17.116-5.186 11.4-.65 22.475.651 34.201-1.303 5.537-.651 11.399 3.256 17.264 5.863.225.094.453.176.681.254.884-.318 1.766-.645 2.638-.984-7.32-2.255-12.971-6.573-15.532-9.194Z"/>
      <path fill="#E1E3DF" d="M78.118 18.806c-.664.214-1.319.444-1.965.689 10.18 2.738 19.415 8.525 25.484 16.984a60.942 60.942 0 0 1 5.193-3.4 156.395 156.395 0 0 1-.163-5.228c-1.585-1.153-3.296-2.149-4.935-3.059-4.556-2.53-9.286-4.215-15.338-5.465a110.212 110.212 0 0 0-16.23-2.137c-.736.249-1.456.509-2.164.785a52.86 52.86 0 0 1 8.152 1.52 40.767 40.767 0 0 1 1.966-.689Z"/>
      <path fill="#FAFAFA" d="M76.153 19.495C56.345 27.001 45.024 48.328 40.667 68.29c9.148 1.14 19.646 1.917 27.517 6.871 10.313-13.586 19.744-28.693 33.454-38.682-6.069-8.459-15.305-14.246-25.485-16.984Z" opacity=".3"/>
      <path fill="#FAFAFA" d="M74.86 194.043c1.304-1.953-.325-5.212-2.605-6.84-5.863-3.581-8.144-9.446-11.726-14.982-2.932-5.213-9.121-4.561-14.658-5.213-4.234-.651-9.12-3.582-12.703-2.278-4.452 1.946-3.202 8.17-2.741 13.392.085.163.171.323.259.483a104.7 104.7 0 0 0 33.484 24.596c.84.013 1.59.006 2.335-.053 3.324-2.267 6.11-5.361 8.355-9.105Z" opacity=".2"/>
      <path fill="#FAFAFA" d="M66.066 89.161c-7.826-4.214-16.488-7.034-25.472-8.467-1.898.009-4.65.057-3.843.325 10.423 4.886 21.823 8.142 30.292 16.611 1.302.978 2.606 0 2.932-1.628.326-2.932-1.629-5.864-3.909-6.841Z" opacity=".3"/>
      <path fill="#FAFAFA" d="M69.65 136.065c-1.955 0-1.629-4.234-3.257-4.234-7.818.326-14.658 6.515-18.241 14.007-.977 2.28-4.886 3.256-6.188.976-1.304-2.279-2.932-3.257-4.886-4.234-2.606-.65-5.211 1.955-6.841 1.955-4.67.211-7.54-4.138-9.605-8.909 2.184 6.477 5.185 12.642 8.768 17.976 3.75 2.044 7.313 2.93 11.433 3.95.854.211 1.723.427 2.611.657 6.581 1.707 13.137 2.815 20.016 3.396 3.296-4.734 9.525-15.132 13.697-22.101l1.41-2.355c-2.722-1.116-5.941-1.282-8.917-1.084Z" opacity=".2"/>
      <path fill="#F3F5F3" d="M28.963 40.481a104.79 104.79 0 0 0-5.221 6.54c1.536-.936 3.203-1.791 4.938-2.458.073-1.362.169-2.724.283-4.082Z"/>
      <path fill="#F3F5F3" d="M28.963 40.481a132.18 132.18 0 0 0-.283 4.083c1.865-.715 3.808-1.21 5.753-1.346 2.074-3.367 4.573-6.61 7.247-9.393 4.814-5.01 10.681-9.612 18.462-14.483 2.801-1.752 5.495-2.969 8.398-4.002.96-1.915 2.224-3.462 3.625-4.727"/>
      <path fill="#FAFAFA" d="M28.573 47.112c-3.803 4.372-5.022 11.241-4.524 16.969.651 5.211.651 11.726 4.885 14.331 1.221.764 2.585.168 3.891-.949-3.539-9.75-4.58-20.088-4.252-30.351Z" opacity=".3"/>
      <path fill="#211915" d="M28.573 47.105v.007l.008-.011-.008.004Z"/>
      <path fill="#FAFAFA" d="M27.371 154.71a69.604 69.604 0 0 1-3.074-5.09c-16.438-9.148-19.603-29.975-19.409-48.687a29.82 29.82 0 0 1-.881-1.772c-.28 3.098-.431 6.231-.431 9.399 0 24.305 8.366 46.694 22.362 64.438a23.397 23.397 0 0 1-.75-6.592c.121-4.264.382-8.116 2.183-11.696ZM120.771 52.995c-1.962-4.753-2.162-9.961-2.581-15.009-.207-2.471-.493-4.936-1.03-7.358-.365-1.645-1.041-3.603-3.062-2.532-1.832.97-3.049 3.226-2.83 5.271.221 2.102.77 4.162.979 6.275.2 2.036.319 4.079.496 6.114.391 4.479 1.103 8.761 3.174 12.799.801 1.556 2.936-.095 3.593-.849 1.092-1.25 1.933-3.084 1.261-4.711ZM207.127 112.11c-.22-.108-.434-.216-.652-.325-.486-.244-1.074.081-1.383.478-5.372 6.903-3.791 16.747-6.33 24.709-.524 1.648 1.354.919 1.849-.049.256-.127.515-.358.719-.714 1.948-3.387 3.012-7.392 3.949-11.161.969-3.895 1.589-7.872 2.124-11.848.044-.335.114-.894-.276-1.09Z" opacity=".3"/>
    </symbol>
    <symbol id="youtube" viewBox="0 0 576 512">
      <path d="M549.655 124.083c-6.281-23.65-24.787-42.276-48.284-48.597C458.781 64 288 64 288 64S117.22 64 74.629 75.486c-23.497 6.322-42.003 24.947-48.284 48.597-11.412 42.867-11.412 132.305-11.412 132.305s0 89.438 11.412 132.305c6.281 23.65 24.787 41.5 48.284 47.821C117.22 448 288 448 288 448s170.78 0 213.371-11.486c23.497-6.321 42.003-24.171 48.284-47.821 11.412-42.867 11.412-132.305 11.412-132.305s0-89.438-11.412-132.305zm-317.51 213.508V175.185l142.739 81.205-142.739 81.201z"/>
    </symbol>
    <symbol id="pinterest" viewBox="0 0 496 512">
      <path d="M496 256c0 137-111 248-248 248-25.6 0-50.2-3.9-73.4-11.1 10.1-16.5 25.2-43.5 30.8-65 3-11.6 15.4-59 15.4-59 8.1 15.4 31.7 28.5 56.8 28.5 74.8 0 128.7-68.8 128.7-154.3 0-81.9-66.9-143.2-152.9-143.2-107 0-163.9 71.8-163.9 150.1 0 36.4 19.4 81.7 50.3 96.1 4.7 2.2 7.2 1.2 8.3-3.3.8-3.4 5-20.3 6.9-28.1.6-2.5.3-4.7-1.7-7.1-10.1-12.5-18.3-35.3-18.3-56.6 0-54.7 41.4-107.6 112-107.6 60.9 0 103.6 41.5 103.6 100.9 0 67.1-33.9 113.6-78 113.6-24.3 0-42.6-20.1-36.7-44.8 7-29.5 20.5-61.3 20.5-82.6 0-19-10.2-34.9-31.4-34.9-24.9 0-44.9 25.7-44.9 60.2 0 22 7.4 36.8 7.4 36.8s-24.5 103.8-29 123.2c-5 21.4-3 51.6-.9 71.2C65.4 450.9 0 361.1 0 256 0 119 111 8 248 8s248 111 248 248z"/>
    </symbol>
    <symbol id="instagram" viewBox="0 0 448 512">
      <path d="M224.1 141c-63.6 0-114.9 51.3-114.9 114.9s51.3 114.9 114.9 114.9S339 319.5 339 255.9 287.7 141 224.1 141zm0 189.6c-41.1 0-74.7-33.5-74.7-74.7s33.5-74.7 74.7-74.7 74.7 33.5 74.7 74.7-33.6 74.7-74.7 74.7zm146.4-194.3c0 14.9-12 26.8-26.8 26.8-14.9 0-26.8-12-26.8-26.8s12-26.8 26.8-26.8 26.8 12 26.8 26.8zm76.1 27.2c-1.7-35.9-9.9-67.7-36.2-93.9-26.2-26.2-58-34.4-93.9-36.2-37-2.1-147.9-2.1-184.9 0-35.8 1.7-67.6 9.9-93.9 36.1s-34.4 58-36.2 93.9c-2.1 37-2.1 147.9 0 184.9 1.7 35.9 9.9 67.7 36.2 93.9s58 34.4 93.9 36.2c37 2.1 147.9 2.1 184.9 0 35.9-1.7 67.7-9.9 93.9-36.2 26.2-26.2 34.4-58 36.2-93.9 2.1-37 2.1-147.8 0-184.8zM398.8 388c-7.8 19.6-22.9 34.7-42.6 42.6-29.5 11.7-99.5 9-132.1 9s-102.7 2.6-132.1-9c-19.6-7.8-34.7-22.9-42.6-42.6-11.7-29.5-9-99.5-9-132.1s-2.6-102.7 9-132.1c7.8-19.6 22.9-34.7 42.6-42.6 29.5-11.7 99.5-9 132.1-9s102.7-2.6 132.1 9c19.6 7.8 34.7 22.9 42.6 42.6 11.7 29.5 9 99.5 9 132.1s2.7 102.7-9 132.1z"/>
    </symbol>
    <symbol id="telegram" viewBox="0 0 48 48">
      <path d="M24 0C10.7451 0 0 10.7451 0 24C0 37.2549 10.7451 48 24 48C37.2549 48 48 37.2549 48 24C48 10.7451 37.2549 0 24 0ZM35.1244 16.3219C34.7632 20.1169 33.2004 29.3263 32.405 33.5768C32.0686 35.3752 31.4061 35.9783 30.7649 36.0373C29.3714 36.1656 28.3128 35.1163 26.9629 34.2314C24.8506 32.8467 23.6573 31.9847 21.6069 30.6336C19.2374 29.0721 20.7735 28.2142 22.1238 26.811C22.4773 26.4439 28.6181 20.8584 28.7369 20.3517C28.7517 20.2883 28.7659 20.0517 28.6252 19.9275C28.4845 19.8032 28.2778 19.8453 28.1283 19.8791C27.9165 19.9272 24.542 22.1576 18.0049 26.5702C17.0472 27.2279 16.1796 27.5484 15.4023 27.5316C14.5454 27.5131 12.897 27.0471 11.6715 26.6487C10.1685 26.1602 8.97397 25.9019 9.078 25.0722C9.13219 24.6399 9.72735 24.198 10.8635 23.7464C17.86 20.6981 22.5254 18.6884 24.8597 17.7173C31.5248 14.945 32.9097 14.4635 33.8124 14.4474C34.011 14.4441 34.4549 14.4933 34.7424 14.7266C34.9337 14.8928 35.0556 15.1248 35.084 15.3765C35.1328 15.6892 35.1463 16.0063 35.1244 16.3219Z"/>
    </symbol>
    <symbol id="empty-bag" viewBox="0 0 567 602" fill="none">
      <ellipse cx="283.5" cy="566" fill="#C5C5C5" rx="266.5" ry="36"/>
      <path fill="#AE7413" d="M144 209h281v54H144z"/>
      <path fill="#CA8E2E" d="m121 253 38-28v28h-38ZM447 253l-37-28v28h37Z"/>
      <path fill="#7D570E" d="m410 225.074 15 11.426V209l-15 16.074ZM159 225.074 144 236.5V209l15 16.074Z"/>
      <path fill="#FEBF56" d="M121 253h326v312c0 6.627-5.373 12-12 12H133c-6.627 0-12-5.373-12-12V253Z"/>
      <circle cx="202.5" cy="288.5" r="17.5" fill="#7D570E"/>
      <circle cx="366.5" cy="288.5" r="17.5" fill="#7D570E"/>
      <path stroke="#fff" stroke-linecap="round" stroke-width="16" d="M366.937 291.75v76.749s2 81-82.437 81.5-82.437-81.5-82.437-81.5V291.75"/>
      <path fill="#DD2E03" d="M413 158.329 406 192l42.5-13.049-35.5-20.622Z"/>
      <path fill="#DD2E03" d="M567 91.5c0 50.534-40.966 91.5-91.5 91.5S384 142.034 384 91.5 424.966 0 475.5 0 567 40.966 567 91.5Z"/>
      <path fill="#FDFFFF" d="M474.59 130.111c-3.191 0-5.898 1.098-8.097 3.229-2.199 2.137-3.3 4.82-3.3 7.97 0 3.529 1.139 6.307 3.409 8.281 2.274 1.981 4.94 2.939 7.984 2.939 2.959 0 5.561-1.013 7.824-3.004 2.237-1.984 3.368-4.756 3.368-8.216 0-3.15-1.091-5.833-3.248-7.97-2.124-2.128-4.79-3.229-7.94-3.229ZM495.6 43.023C490.04 40.326 483.634 39 476.41 39c-7.824 0-14.638 1.612-20.471 4.776-5.857 3.215-10.316 7.248-13.361 12.143-3.044 4.852-4.578 9.679-4.578 14.428 0 2.284.958 4.414 2.891 6.44 1.912 1.925 4.289 2.935 7.077 2.935 4.756 0 7.984-2.837 9.696-8.482 1.796-5.366 3.995-9.467 6.596-12.239 2.598-2.785 6.634-4.176 12.15-4.176 4.695 0 8.53 1.384 11.506 4.108 2.969 2.772 4.466 6.143 4.466 10.159 0 2.052-.501 3.955-1.463 5.66a21.925 21.925 0 0 1-3.596 4.762c-1.429 1.449-3.76 3.569-6.951 6.361-3.655 3.208-6.553 5.942-8.687 8.277-2.154 2.339-3.879 4.991-5.188 8.121-1.289 3.068-1.944 6.678-1.944 10.905 0 3.324.883 5.867 2.67 7.558 1.769 1.691 3.961 2.557 6.555 2.557 4.991 0 7.957-2.618 8.932-7.817.549-2.431.955-4.128 1.221-5.134.286-.958.654-1.916 1.166-2.922.508-.958 1.278-2.052 2.301-3.221 1.002-1.176 2.379-2.509 4.07-4.101 6.154-5.489 10.401-9.385 12.784-11.72 2.376-2.292 4.429-5.067 6.147-8.285C512.127 76.885 513 73.15 513 68.898c0-5.366-1.503-10.398-4.544-14.96-3.034-4.612-7.316-8.263-12.856-10.915Z"/>
      <path stroke="#000" stroke-dasharray="21 21" stroke-linecap="round" stroke-width="6" d="M236 193c-8.167-48.166-20-143.934 51-135 81 10.192 49.536 111-2.5 111-92 0-112-52-165-94.5-35.602-28.548-83.5 17-103 47"/>
      <rect width="9" height="43" x=".757" y="107.451" fill="#000" rx="4.5" transform="rotate(-56.79 .757 107.451)"/>
    </symbol>
    <symbol id="post" viewBox="0 0 250 266">
      <g clip-path="url(#a)">
        <path fill="#F9D406" d="m213.051 188.261-77.888-.001a62.756 62.756 0 0 1-27.551-6.409 62.582 62.582 0 0 1-23.9-20.667L22.798 72.518l13.914-8.614a43.325 43.325 0 0 1 25.304-6.453c13.577.757 25.776 7.613 33.47 18.81l32.604 47.454a8.099 8.099 0 0 0 5.031 3.354 8.099 8.099 0 0 0 5.955-1.043l33.485-20.727c6.126-3.848 21.212-16.599 27.979-51.194 1.245-6.364 2.557-13.28 3.925-20.681L118.076 86.86l-8.662-14.004L227.202-.002l-3.232 18.137c-2.591 14.545-5.037 27.71-7.269 39.13-7.715 39.436-25.509 55.776-35.428 62.006l-33.531 20.755a24.502 24.502 0 0 1-18.009 3.157 24.504 24.504 0 0 1-15.215-10.144L81.913 85.585c-4.782-6.96-12.368-11.222-20.813-11.693a26.837 26.837 0 0 0-14.943 3.548l51.127 74.42a46.079 46.079 0 0 0 17.597 15.216 46.193 46.193 0 0 0 20.282 4.718l46.596.001-17.678-25.73 13.572-9.324 35.398 51.52Z"/>
        <path fill="#284296" d="M81.177 215.666v8.414c0 1.473-.59 2.811-1.547 3.789a5.407 5.407 0 0 1-3.877 1.635H68.68c-1.16 0-2.04-.253-2.707-.608a4.234 4.234 0 0 1-1.061-.798 4.167 4.167 0 0 1-3.128 1.406H34.221c-1.16 0-2.04-.252-2.706-.607a4.134 4.134 0 0 1-1.393-1.192 5.432 5.432 0 0 1-4.032 1.799H0v-11.619l3.507-1.058v9.17h22.584a1.917 1.917 0 0 0 1.92-1.917v-7.356l3.506-1.058v8.414a5.437 5.437 0 0 1-.35 1.917h11.635v-8.112l3.507-1.058v9.17h6.667v-8.112l3.507-1.058v9.17h5.3a.68.68 0 0 0 .682-.682v-9.759l3.507-1.057v10.816c0 .232-.02.46-.056.682h9.837c.586 0 1.11-.264 1.462-.679.284-.334.454-.766.454-1.238v-7.356l3.508-1.058ZM204.555 219.818v4.262a5.398 5.398 0 0 1-1.416 3.65 5.411 5.411 0 0 1-4.01 1.774h-18.053c-1.224 0-2.138-.281-2.814-.666a4.114 4.114 0 0 1-1.285-1.133 5.401 5.401 0 0 1-4.032 1.799h-26.091v-11.619l3.508-1.058v9.17h22.583a1.918 1.918 0 0 0 1.919-1.917v-7.356l3.507-1.058v8.414a5.426 5.426 0 0 1-.35 1.917h21.108a1.918 1.918 0 0 0 1.918-1.917v-4.262c0-.529-.215-1.008-.562-1.356a1.916 1.916 0 0 0-1.356-.563H183.13l7.348-11.868 2.096 3.24-3.204 5.12h9.759c1.469 0 2.803.588 3.781 1.538a5.414 5.414 0 0 1 1.645 3.889ZM136.708 224.08c0 .504-.195.962-.513 1.305-.35.376-.849.612-1.403.612h-5.965v-5.966a1.913 1.913 0 0 1 1.917-1.916h5.964v5.965Zm-5.964-9.472a5.403 5.403 0 0 0-3.672 1.435 5.41 5.41 0 0 0-1.752 3.988v5.966h-4.686a3.15 3.15 0 0 1-2.264-.96 3.145 3.145 0 0 1-.889-2.194v-16.521l-3.508 1.628v14.893a3.14 3.14 0 0 1-.694 1.972 3.149 3.149 0 0 1-2.459 1.182H97.352v3.507h7.138v1.131a4.646 4.646 0 0 1-1.277 3.203 4.654 4.654 0 0 1-3.39 1.463H94.88a4.652 4.652 0 0 1-3.217-1.289 4.653 4.653 0 0 1-1.449-3.377v-7.781l-3.507-.575v8.356c0 2.232.9 4.26 2.357 5.736a8.151 8.151 0 0 0 5.816 2.437h4.944a8.153 8.153 0 0 0 5.985-2.614 8.141 8.141 0 0 0 2.188-5.559v-1.131h2.823a6.62 6.62 0 0 0 4.907-2.164 6.623 6.623 0 0 0 4.907 2.164h2.767a5.401 5.401 0 0 0 3.993-1.757c.305.402.759.841 1.417 1.179.659.339 1.523.578 2.651.578h3.33a5.41 5.41 0 0 0 3.953-1.714 5.402 5.402 0 0 0 1.47-3.71v-9.472h-9.471ZM250 214.094v9.986a5.403 5.403 0 0 1-1.404 3.637 5.417 5.417 0 0 1-4.022 1.787h-27.045c-1.137 0-2.006-.242-2.667-.585a4.154 4.154 0 0 1-1.289-1.034 9.64 9.64 0 0 1-4.268 7.674l-3.555 2.312-3.527-1.889 5.149-3.35a6.086 6.086 0 0 0 2.109-2.454c.384-.81.593-1.709.593-2.638v-10.816l3.507-1.058v10.331h12.781v-8.112l3.507-1.058v9.17h6.596v-8.112l3.508-1.058v9.17h4.601a1.918 1.918 0 0 0 1.919-1.917v-8.925l3.507-1.061ZM242.37 212.563h-8.953v-3.507h5.446v-2.733h3.507v6.24ZM80.005 239.875h-3.507v-2.732h-5.446v-3.507h8.953v6.239Z"/>
        <path fill="#284296" d="M20.447 218.353H11.07v-3.508h9.376v3.508ZM167.301 218.353h-9.376v-3.508h9.376v3.508ZM64.185 253.71l1.303 1.303-1.311 1.302-1.303-1.302 1.31-1.303Zm4.573 6.871c-.034 1.129-.216 1.718-.772 2.241-1.087 1.021-2.963 1.776-4.473 1.776-2.058 0-3.295-1.345-3.295-3.585 0-.772.166-1.619.465-2.448l1.535.24c-.232.747-.349 1.386-.349 1.909 0 1.286.573 1.859 1.86 1.859 1.468 0 3.477-.913 3.402-1.494l-.457-3.71 1.71-.722c.174 1.527.39 3.295.374 3.934ZM70.17 252.938l1.734-.863.356 9.469-1.56.199-.53-8.805ZM83.68 258.556c0 2.034-1.36 3.038-4.1 3.038h-.797c-.63 0-1.16-.141-1.6-.432-.3 2.282-1.719 3.644-3.926 3.644-.366 0-.838-.066-1.246-.166l-.166-1.736c.308.059.633.084.98.084 1.76 0 2.889-.963 2.889-2.449 0-.381-.051-.829-.482-3.195l1.701-1.036.208 1.485c.174 1.252.332 1.892 1.642 1.892h.797c1.645 0 2.498-.324 2.498-.889 0-.497-.298-1.476-.829-2.772l1.461-1.293c.656 1.593.97 2.845.97 3.825ZM83.796 263.528l-1.195 1.186-1.061-1.062-1.063 1.062-1.195-1.186 1.195-1.195 1.063 1.07 1.07-1.07 1.186 1.195ZM84.627 252.938l1.735-.863.357 9.469-1.56.199-.532-8.805ZM105.516 259.935c-.995 0-1.46-.325-1.46-.947 0-.781.888-2.083 1.418-2.083.591 0 1.354 1.328 1.354 2.39 0 .381-.499.64-1.312.64Zm.1-4.93c-1.718 0-2.54 1.85-3.212 3.087-.621 1.15-1.224 1.59-2.167 1.593H96.42l-.805 2.107 2.241.607c-.058.034-1.569.647-3.619.647-1.609 0-2.364-.613-2.364-1.909 0-.54.149-1.278.43-2.149l-1.518-.29c-.307.846-.498 1.883-.498 2.688 0 2.315 1.369 3.652 3.727 3.652 1.376 0 3.112-.449 4.248-1.112.97-.565 1.628-1.618.821-2.432.233.049.616.1.873.1h.281c.896-.003 1.887-.475 2.549-1.17.457.879 1.42 1.419 2.598 1.419 1.726 0 3.038-1.112 3.038-2.622 0-2.258-1.271-4.216-2.806-4.216ZM129.237 259.08c0 1.486-1.17 2.654-2.623 2.654a2.463 2.463 0 0 1-2.033-1.044c-.606.663-1.552 1.044-2.639 1.044-.905 0-1.618-.256-2.217-.779-.645.43-1.59.637-2.93.639h-.164c-1.085-.003-1.969-.492-2.508-1.378-.804.914-2.29 1.369-4.406 1.378l-.35-1.909h.631l-.912-5.577 1.709-.838.789 6.281c1.303-.273 1.743-.63 1.701-1.244l-.406-5.477 1.718-.606.274 5.294c.074 1.367.676 2.164 1.76 2.167h.164c1.82 0 2.375-.209 2.417-.838l.115-1.669 1.603.025-.108 1.867c-.034.623.455.715 1.178.715 1.178 0 1.917-.49 1.917-1.246v-1.402l1.593-.017.025 1.461c.009.697.523 1.17 1.254 1.17.464 0 .787-.332.721-.713l-.465-2.573 1.66-.954c.383 2.132.532 3.378.532 3.569ZM130.897 252.938l1.734-.863.357 9.469-1.56.199-.531-8.805ZM138.142 261.137c0 1.295.714 1.901 2.299 1.901 1.253 0 2.515-.349 3.403-.946.224-.158.514-.391.556-.482l-1.137-.132c-.938-.108-2.124-.44-2.124-2.001 0-2.174 1.792-4.539 3.444-4.539.655 0 1.037.332 1.037.904 0 .681-.307 1.146-.797 1.146-.074 0-.208-.05-.49-.05-.713 0-1.676 1.187-1.676 2.066 0 .498.623.482 1.469.664.822.174 1.776.49 1.776 1.801 0 1.776-2.847 3.569-5.619 3.569-2.356 0-3.726-1.345-3.726-3.66 0-.797.183-1.818.482-2.647l1.535.248c-.282.872-.432 1.611-.432 2.158ZM147.454 262.955c1.851 0 2.897-.947 2.897-2.598 0-.606-.374-1.767-1.07-3.344l1.485-1.27c.797 1.933 1.112 3.211 1.112 4.556 0 2.788-1.494 4.465-3.984 4.465-.365 0-.838-.058-1.245-.158l-.165-1.734c.307.057.63.083.97.083ZM183.533 262.174l-1.311 1.295 1.303 1.303 1.31-1.303-1.302-1.295ZM174.494 259.935c-.996 0-1.461-.325-1.461-.947 0-.681.963-2.083 1.42-2.083.589 0 1.352 1.328 1.352 2.39 0 .381-.497.64-1.311.64Zm-10.017-3.545c.315.705.474 1.286.474 1.768 0 .922-.582 1.427-1.826 1.511.066-1.237.614-2.549 1.352-3.279Zm-8.415 3.295c-.914 0-1.428-.374-1.428-.997 0-.97.705-2.09 1.311-2.09.855 0 1.635 1.078 1.635 2.356 0 .158.008.441.008.731h-1.526Zm28.268-4.871c-.615-.349-1.22-.523-1.785-.523-.963 0-1.85.497-2.623 1.501l-.605.789 1.368.788c.782-.954 1.222-1.278 1.704-1.278.33 0 .687.134 1.244.457l2.008 1.178c-2.147.978-4.303 1.958-6.64 1.959h-.166c-.875-.001-1.295-.377-1.51-1.37-.449-2.049-1.461-3.31-2.731-3.31-1.718 0-2.539 1.85-3.211 3.087-.621 1.15-1.226 1.59-2.167 1.593h-.308c-1.909 0-3.552 1.062-4.216 3.244-.672-.447-1.17-.953-1.411-1.459 2.175-.142 3.454-1.901 3.454-3.287 0-.921-.308-2-.872-3.137-.357-.713-1.462-.872-2.075-.324-1.386 1.236-2.215 3.054-2.307 4.963h-2.316c.008-.175.016-.332.016-.49 0-2.689-1.261-4.581-3.112-4.581-1.559 0-2.945 1.992-2.945 4.15 0 1.792 1.029 2.83 2.763 2.83h1.427c-.44.912-1.469 1.411-2.829 1.411-.316 0-.796-.034-1.08-.076l.1 1.718c.489.108 1.254.159 1.56.159 1.926 0 3.263-1.129 3.827-3.212h1.51l1.137.008c.323 1.344 1.601 2.772 3.17 3.494l1.726-1.221c.017-2.065.283-2.281 2.233-2.281h.548c.895-.003 1.885-.475 2.548-1.17.456.879 1.419 1.419 2.598 1.419.978 0 1.883-.383 2.44-1.013.512.463 1.288.762 2.033.764h.166c2.141-.003 5.241-1.321 7.245-2.299 1.055-.514 1.51-.663 2.026-.663.215 0 .44.024.73.056l.78-2.016c-2.449-.007-2.498-.183-5.452-1.858Z"/>
      </g>
      <defs>
        <clipPath id="a">
          <path fill="#fff" d="M0 0h250v265.096H0z"/>
        </clipPath>
      </defs>
    </symbol>
    <symbol id="tipax" viewBox="0 0 250 95">
      <path fill="#00784A" d="M0 12.732 3.97.225h39.17l-3.595 12.507H0ZM22.768 19.548H10.56L3.595 41.417h12.358l6.815-21.87ZM43.14 12.732h12.807L59.917.225H46.958l-3.82 12.507ZM40.968 19.548h12.807l-6.441 21.869H34.452l6.516-21.87ZM60.216 12.732 64.036.225h42.016s8.987.15 7.115 6.29l-1.423 6.217H98.637s1.723-2.996-2.397-2.996H73.772l-1.124 2.996H60.216ZM109.197 19.548H58.343l-6.965 21.869h12.657l4.195-13.406 27.71.524s13.407.524 13.257-8.987ZM121.78 12.657h22.768V0h-13.107l-9.661 12.657ZM116.762 19.098l27.786.375v22.244l-10.86-.075V28.834h-11.759l-8.837 12.808-13.107.075 16.777-22.619ZM163.871.749h13.631l1.872 7.115L185.665.75h13.331l-11.833 12.508H167.84L163.871.749ZM165.818 19.997h19.248l6.666 21.944h-14.081l-3.445-13.031h-2.097L161.025 41.94h-14.231l19.024-21.944ZM204.014.749l-15.428 16.477 7.04 24.715h13.931l-7.265-25.24L216.222.75h-12.208Z"/>
      <path fill="#00784A" d="m220.791.749-15.503 16.477 7.115 24.715h13.93l-7.265-25.24L232.924.75h-12.133Z" opacity=".7"/>
      <path fill="#00784A" d="m237.867.749-15.503 16.477 7.115 24.715h13.93l-7.265-25.24L250 .75h-12.133Z" opacity=".3"/>
      <path fill="#00784A" d="M22.468 83.583c-1.273.6-3.82 1.273-7.04 1.273-7.49 0-13.181-4.718-13.181-13.481S7.939 57.37 16.177 57.37c3.296 0 5.393.674 6.291 1.198l-.823 2.846c-1.273-.6-3.146-1.123-5.393-1.123-6.216 0-10.41 3.969-10.41 11.01 0 6.515 3.745 10.71 10.26 10.71 2.098 0 4.195-.45 5.618-1.124l.748 2.696ZM43.514 74.745c0 7.04-4.868 10.186-9.512 10.186-5.167 0-9.137-3.82-9.137-9.811 0-6.441 4.194-10.186 9.512-10.186 5.317 0 9.137 3.97 9.137 9.811Zm-15.129.15c0 4.194 2.397 7.34 5.842 7.34s5.842-3.146 5.842-7.415c0-3.22-1.648-7.34-5.767-7.34-4.12 0-5.917 3.82-5.917 7.415ZM63.886 79.24c0 1.946.075 3.744.15 5.242h-3.071l-.225-3.146h-.075c-.899 1.573-2.92 3.595-6.291 3.595-2.996 0-6.59-1.648-6.59-8.388V65.309h3.444v10.56c0 3.595 1.124 6.066 4.27 6.066 2.321 0 3.969-1.647 4.568-3.145.225-.525.3-1.124.3-1.798V65.31h3.445l.075 13.93ZM69.727 71.3c0-2.247-.075-4.194-.15-5.992h3.071l.15 3.745h.15c.899-2.546 2.996-4.194 5.318-4.194.374 0 .673.075.973.15v3.295c-.374-.075-.674-.15-1.198-.15-2.472 0-4.194 1.873-4.644 4.494-.075.45-.15 1.049-.15 1.648v10.186h-3.445V71.3h-.075ZM86.654 59.991c.075 1.198-.824 2.097-2.172 2.097a2.093 2.093 0 0 1-2.097-2.097c0-1.123.898-2.172 2.172-2.172 1.273 0 2.097.899 2.097 2.172Zm-3.895 5.318h3.445v19.098H82.76V65.309ZM93.918 75.494c.075 4.719 3.071 6.666 6.591 6.666 2.472 0 3.97-.45 5.318-.974l.599 2.472c-1.198.524-3.295 1.198-6.366 1.198-5.917 0-9.437-3.894-9.437-9.661 0-5.767 3.37-10.336 8.987-10.336 6.217 0 7.939 5.468 7.939 8.988 0 .674-.075 1.273-.149 1.647H93.918Zm10.261-2.471c.075-2.172-.899-5.692-4.793-5.692-3.52 0-5.093 3.22-5.318 5.692h10.111ZM111.818 71.3c0-2.247-.074-4.194-.149-5.992h3.07l.15 3.745h.15c.899-2.546 2.996-4.194 5.318-4.194.374 0 .674.075.973.15v3.295c-.374-.075-.674-.15-1.198-.15-2.472 0-4.194 1.873-4.644 4.494a10.32 10.32 0 0 0-.149 1.648v10.186h-3.446l-.075-13.182ZM132.789 80.287c1.573.974 3.82 1.723 6.142 1.723 3.52 0 5.542-1.872 5.542-4.569 0-2.471-1.423-3.894-5.018-5.317-4.344-1.573-7.04-3.82-7.04-7.564 0-4.12 3.445-7.265 8.613-7.265 2.696 0 4.718.599 5.916 1.273l-.973 2.846c-.899-.45-2.622-1.273-5.093-1.273-3.67 0-5.018 2.172-5.018 3.97 0 2.47 1.648 3.744 5.317 5.167 4.494 1.722 6.816 3.894 6.816 7.789 0 4.12-3.071 7.64-9.287 7.64-2.547 0-5.393-.75-6.816-1.723l.899-2.697ZM154.733 75.494c.075 4.719 3.071 6.666 6.591 6.666 2.472 0 3.97-.45 5.318-.974l.599 2.472c-1.198.524-3.296 1.198-6.366 1.198-5.917 0-9.437-3.894-9.437-9.661 0-5.767 3.37-10.336 8.987-10.336 6.217 0 7.939 5.468 7.939 8.988 0 .674-.075 1.273-.149 1.647h-13.482Zm10.261-2.471c.075-2.172-.899-5.692-4.793-5.692-3.52 0-5.093 3.22-5.318 5.692h10.111ZM172.633 71.3c0-2.247-.074-4.194-.149-5.992h3.07l.15 3.745h.15c.899-2.546 2.996-4.194 5.317-4.194.375 0 .675.075.974.15v3.295c-.374-.075-.674-.15-1.198-.15-2.472 0-4.194 1.873-4.644 4.494a10.32 10.32 0 0 0-.149 1.648v10.186h-3.446l-.075-13.182ZM187.912 65.309l3.745 10.71c.599 1.722 1.123 3.295 1.572 4.868h.15c.45-1.573.974-3.146 1.648-4.868l3.745-10.71h3.67l-7.49 19.098h-3.295l-7.265-19.098h3.52ZM209.407 59.991c0 1.198-.824 2.097-2.247 2.097a2.094 2.094 0 0 1-2.097-2.097c0-1.123.899-2.172 2.172-2.172 1.273 0 2.172.899 2.172 2.172Zm-3.895 5.318h3.446v19.098h-3.446V65.309ZM228.43 83.733c-.899.45-2.921 1.123-5.467 1.123-5.767 0-9.512-3.894-9.512-9.736 0-5.842 4.045-10.186 10.261-10.186 2.022 0 3.894.524 4.793.974l-.824 2.696c-.824-.45-2.172-.899-4.044-.899-4.419 0-6.741 3.22-6.741 7.265 0 4.419 2.846 7.19 6.666 7.19 1.947 0 3.295-.524 4.269-.974l.599 2.547ZM234.197 75.494c.075 4.719 3.071 6.666 6.591 6.666 2.472 0 3.969-.45 5.318-.974l.599 2.472c-1.199.524-3.296 1.198-6.366 1.198-5.917 0-9.437-3.894-9.437-9.661 0-5.767 3.37-10.336 8.987-10.336 6.217 0 7.864 5.468 7.864 8.988 0 .674-.075 1.273-.15 1.647h-13.406Zm10.186-2.471c0-2.172-.899-5.692-4.793-5.692-3.52 0-5.093 3.22-5.318 5.692h10.111Z"/>
    </symbol>
    <symbol id="motorcycle-courier" viewBox="0 0 250 238">
      <path fill="#D19A84" d="M198.33 101.744h48.547v48.547H198.33z"/>
      <path fill="#FF8F29" stroke="#FF8F29" d="m162.672 28.546-18.817 8.28-.941-.565V19.42l-14.395-.47c.188-1.788 1.167-6.285 3.575-9.973 3.011-4.61 9.033-6.869 10.444-7.15 1.411-.283 11.76-2.917 19.099 6.773 5.871 7.753 3.136 16.528 1.035 19.946Z"/>
      <circle cx="151.289" cy="25.347" r="4.328" fill="#9CBADA"/>
      <path fill="#fff" stroke="#000" d="M141.785 50.746c3.01-.597 13.736-8.024 18.722-11.662 2.729 4.944 7.621 16.233 10.256 25.003 3.575 9.703 6.209 22.95 6.303 23.23.075.225 4.046 19.873 6.022 29.669l-45.631-.374.376-28.268 5.927-5.784-7.62-11.103-.471-1.959-2.446-2.799 5.739-6.904 1.882-8.303c.125-.155.489-.522.941-.746Z"/>
      <path fill="#FF8F29" d="M138.399 117.269h43.09c.628 2.508 1.882 8.599 1.882 12.889 0 4.29-2.822 5.3-4.234 5.269l-10.819 1.599-11.479 1.223-37.257 1.788 6.304 36.693-10.914 1.317c-.094-1.129-9.315-24.838-9.315-24.838l-2.164 25.591H92.391c-1.223-14.521-3.725-44.521-3.951-48.36-.226-3.838 2.791-6.241 4.61-6.68l13.454-1.505 30.86-3.952 1.035-1.034Z"/>
      <path fill="#FFA18D" stroke="#000" d="m134.822 69.755 8.656 12.043-9.502 10.067-38.199-3.67c-.25.785-.809 2.616-1.035 3.67-.282 1.317-1.41 2.352-3.01 2.823-1.6.47-2.729.282-5.457 0-2.729-.283-5.834-2.823-6.304-4.14-.47-1.317-.47-4.14.47-6.774.941-2.635 2.165-3.293 4.987-4.046 2.258-.602 8.719 1.13 11.666 2.07l30.484-3.105 7.244-8.938Z"/>
      <path fill="#fff" d="M124.474 183.315c-.301 1.204-3.889 2.572-5.645 3.105l-2.258-1.882 1.223-1.599-.471-4.422 6.68-.753.729 4.645c.045-.099.041.02.024.153l-.024-.153c-.04.087-.117.343-.258.906ZM101.517 179.646v3.669c-1.58 2.183-4.923 2.979-6.397 3.105l-1.224-2.258.753-.847v-3.669h6.868Z"/>
      <path fill="#FFAF66" d="M93.8 102.309h-5.08c-12.23 19.569-23.803 54.192-12.137 89.38.35 1.461-.027 3.876.377 5.363h56.733v-1.788l-7.998-10.631v-32.365l60.12.564c20.417 3.575 25.685 20.322 26.626 26.062v24.085l-135.481.376-25.093-16.728c1.908 1.303 7.406 11.316 7.687 20.304H1.034c2.352-28.696 26.532-30.672 38.857-28.132l-10.726-7.714c5.739-32.366 30.295-55.887 44.878-68.776h-6.774v-21.64h13.924c4.987 2.572 15.054 7.866 15.43 8.468.47.753 1.411 5.833 1.6 8.656.15 2.258-2.886 3.951-4.422 4.516Z"/>
      <path fill="#B1C9E2" d="m46.76 183.691-6.585-4.422c-3.01 6.774-9.879 22.11-13.266 29.26-.903 5.495 3.826 4.861 6.304 3.858l13.548-28.696Z"/>
      <path fill="#B1C9E2" stroke="#000" d="M92.768 213.986c-9.71 0-14.395-6.899-15.524-10.349l118.734.188c5.834.753 5.645 9.314 0 9.879-32.647.157-98.167.47-99.07.47-.904 0-.816.565-.66.847h-2.445c-.032-.345-.282-1.035-1.035-1.035Z"/>
      <path fill="#C0C8CF" d="M45.066 207.117H15.053c-.376 6.084 1.186 17.876 14.96 17.876 13.774 0 16.15-11.792 15.053-17.876ZM186.994 214.645h-28.507c2.774 6.774 8.043 10.161 13.83 10.161 8.514.564 14.677-7.433 14.677-10.161Z"/>
      <path fill="#B1C9E2" d="M66.894 80.291H58.24l8.655 20.417V80.292Z"/>
      <path fill="#FFA18D" d="m133.787 27.606-.282-8.091h9.409v17.97l12.983-5.269a209.325 209.325 0 0 1 3.764 6.774c-.226 1.204-14.489 10.161-17.312 11.102-.565-1.317 1.882-8.844 1.505-10.35-1.223.942-7.715 1.412-7.997 1.224-.282-.188-1.411-3.764-1.599-4.422-.188-.659-.753-3.763-1.694-4.892-.941-1.13-.941-2.823-.658-3.2.225-.3 1.348-.69 1.881-.846Z"/>
      <circle cx="139.433" cy="27.793" r="1.129" fill="#FF7E82"/>
      <path fill="#FF7E82" d="M135.764 29.299c0-.602-1.067-.941-1.6-1.035-.219.063-.734.207-1.035.282-.301.075-.69.47-.847.659v.658l.283.47c.345.44 1.091 1.318 1.317 1.318.282 0 1.129-.659 1.505-1.13.377-.47.377-.47.377-1.222Z"/>
      <circle cx="136.987" cy="24.594" r=".753" fill="#000"/>
      <path fill="#000" d="M143.542.924c-4.718.895-9.007 3.543-11.785 7.272-2.35 3.151-3.86 7.366-3.86 10.74 0 1.194.223 1.287 2.778 1.287h2.07v.672c0 .372.13 1.752.298 3.076.373 2.91.317 3.208-.652 3.506-.504.15-.858.41-1.119.84-.69 1.1-.429 2.405.746 3.728.522.616.69 1.026 1.044 2.798.708 3.412 1.492 5.687 2.2 6.395l.616.616h2.088c1.231 0 2.611-.112 3.375-.298.727-.168 1.343-.262 1.361-.224.131.167-1.939 8.969-2.368 10.032-.466 1.175-1.081 3.916-1.342 5.948-.131.951-.336 1.287-3.264 5.147-1.715 2.275-3.188 4.326-3.244 4.531-.093.28.037.578.541 1.119.354.41.652.839.652.97 0 .28-6.172 8.596-6.433 8.689-.093.019-6.676.653-14.601 1.398L98.211 80.51l-1.79-.41c-2.835-.634-6.62-1.156-9.287-1.268-2.2-.093-2.499-.075-3.319.298-.895.392-1.044.392-13.444.392-13.575 0-13.128-.037-12.923.97.112.447 8.615 22.059 8.895 22.525.112.224.69.298 2.536.373l2.387.093-1.753 1.492c-15.142 12.885-27.411 28.474-34.274 43.504-1.137 2.48-3.244 7.682-3.84 9.454-1.306 3.915-2.667 9.603-2.984 12.493-.093.951-.075 1.175.224 1.436.186.168 2.312 1.622 4.717 3.226 2.406 1.603 4.177 2.871 3.916 2.816-3.114-.765-8.615-.989-11.654-.504-2.76.448-6.415 1.585-8.727 2.741C6.952 185.138.817 194.424.053 205.612c-.15 2.312-.094 2.387 1.715 2.387h1.063l-.13.858c-.168 1.268.205 5.128.727 7.253 4.046 17.025 22.6 25.957 38.413 18.535 6.358-3.002 11.56-8.577 13.985-15.01 1.119-2.984 1.771-6.434 1.771-9.454v-2.182h1.082c.596 0 1.175-.093 1.305-.224.504-.503.15-5.016-.615-7.981-.858-3.375-2.76-7.403-4.886-10.424-.317-.428-.317-.447.038-.242.205.112 5.24 3.412 11.188 7.347l10.815 7.16.392 1.212c1.51 4.625 5.034 8 9.845 9.38 1.362.392 2.033.485 3.86.485 1.958 0 2.238.037 2.331.317.261.839.354.895 1.902.951 1.678.056 2.22-.112 2.312-.746l.056-.429h48.632l.522 1.958c1.249 4.736 3.617 8.876 6.955 12.214 3.002 2.983 5.352 4.624 8.69 6.023 12.754 5.426 27.262.802 34.441-10.965 1.79-2.946 3.263-7.086 3.692-10.423.075-.541.392-1.548.709-2.219.988-2.126.876-4.065-.355-5.912-.354-.54-.634-1.156-.634-1.379v-.392h6.601c5.52 0 6.639-.037 6.825-.261.354-.448.149-23.197-.242-25.192-1.026-5.389-2.872-9.678-5.986-13.892-3.338-4.513-8.298-8.28-13.817-10.461l-1.306-.522h21.743l21.742-.019.485-.485c.261-.261.503-.652.541-.876.056-.41.056-.41 5.724-.466 3.804-.019 5.762-.112 5.93-.243.373-.317.354-50.365-.019-50.682-.186-.15-7.011-.187-25.583-.168l-25.342.056-.056 24.838-.037 24.856h-13.053v-4.345c0-2.368-.093-4.624-.186-4.978-.28-.989-1.324-2.611-2.07-3.208-.373-.298-1.138-.727-1.716-.969l-1.044-.411 1.343-.41c1.753-.503 2.554-1.063 3.077-2.107 1.137-2.294.969-7.459-.429-14.116-.15-.764-.28-1.398-.28-1.454 0-.038.242-.075.559-.075 1.007 0 1.007-.298.094-5.24-3.114-16.82-6.9-33.974-9.417-42.776-2.368-8.242-6.396-19.225-10.107-27.504-2.032-4.532-2.163-4.755-2.965-4.737-.634.019-.671-.018-2.014-2.312l-1.361-2.312.56-.597c.298-.317.634-.746.745-.932.112-.224 1.101-.765 2.387-1.324l2.219-.951.69-1.38c3.935-7.944 1.716-17.696-5.258-23.197-2.48-1.976-4.233-2.853-7.086-3.599-2.256-.578-6.079-.746-8.223-.335Zm7.514 1.846c3.226.82 5.874 2.293 8.168 4.568 5.146 5.09 6.638 12.941 3.692 19.449l-.578 1.25-9.249 4.102-9.249 4.102-.093-8.615c-.056-4.736-.168-8.727-.243-8.857-.112-.168-1.734-.224-7.048-.224h-6.881v-.429c.019-.988.559-3.319 1.1-4.699.727-1.883 2.424-4.512 3.86-5.986 2.107-2.144 5.743-4.176 8.671-4.81.653-.15 2.293-.262 3.636-.28 2.014-.019 2.76.056 4.214.429Zm-15.999 18.236c.112.075.522.15.914.15.858 0 1.79.373 2.256.913.392.43.858.504 1.194.168.372-.373.261-.932-.28-1.492l-.504-.522h3.431v8.82c0 9.305 0 9.268.84 9.268.223 0 2.685-1.007 5.482-2.238 4.289-1.883 5.146-2.2 5.463-2.032.224.112.821.168 1.362.13l.951-.074 1.342 2.275c.746 1.249 1.343 2.368 1.343 2.48 0 .317-8.41 6.19-11.897 8.298-1.846 1.118-3.841 2.163-4.102 2.163-.131 0 1.062-5.893 1.696-8.429.075-.317.429-.653.951-.97.914-.54 1.138-.895.858-1.435-.279-.522-.932-.43-2.126.28-1.286.764-3.505 1.398-5.463 1.529-2.294.149-2.48.055-3.077-1.697-.28-.82-.727-2.63-1.007-4.01-.485-2.424-.541-2.554-1.305-3.393-.783-.84-1.156-1.622-.932-1.995.074-.094.354-.224.671-.299.298-.056.746-.28 1.007-.485.802-.634.895-1.435.503-4.736-.354-2.965-.335-3.841.038-3.151.111.205.279.41.391.485Zm26.964 21.333c5.053 11.113 9.92 25.08 12.605 36.212 1.921 7.962 7.72 36.343 7.72 37.779 0 .317-.671.317-12.438.205-6.862-.056-14.637-.149-17.304-.186a554.517 554.517 0 0 0-9.603-.094h-4.755l.056-7.496c.018-4.139.112-10.442.205-14.022l.168-6.49 2.498-2.517 2.499-2.498.839 1.212c.448.67 1.026 1.324 1.268 1.454.504.28.075.709 4.998-5.053 6.06-7.086 9.733-11.897 10.908-14.284 1.082-2.144 1.343-3.17 1.361-5.035 0-1.678-.018-1.696-1.081-3.822-1.156-2.35-2.462-4.102-3.767-5.11-1.063-.801-2.909-1.323-4.084-1.156-1.808.28-2.349.765-8.503 7.515-3.188 3.524-5.836 6.396-5.873 6.396-.038 0-.038-.28 0-.615.055-.317.167-1.567.279-2.741.634-6.676 1.567-10.816 2.406-10.816.466 0 3.356-1.435 5.407-2.685 2.816-1.715 8.634-5.687 11.487-7.832.615-.447 1.212-.839 1.324-.839.112-.018.727 1.12 1.38 2.518Zm-5.389 11.095c1.081.54 2.685 2.461 3.71 4.456 1.25 2.443 1.436 3.338 1.026 5.11-.746 3.356-2.517 5.91-11.617 16.651-2.014 2.368-3.673 4.308-3.692 4.29-.019-.02-2.051-2.891-4.55-6.378-2.499-3.487-4.531-6.433-4.55-6.545-.019-.187 7.552-8.615 12.195-13.594a89.23 89.23 0 0 0 2.331-2.592c1.641-1.902 3.263-2.35 5.147-1.398ZM138.32 63.857c-.279 3.45-.261 3.375-1.268 4.476l-.895 1.007-.615-.69a37.26 37.26 0 0 1-.951-1.138l-.336-.429 2.089-2.815c1.156-1.53 2.107-2.779 2.126-2.76.018.018-.038 1.081-.15 2.35Zm-2.629 8.261.578.82-3.822 4.233-3.823 4.214h-10.368c-5.706 0-10.33-.037-10.274-.093.093-.093 3.263-.41 13.761-1.398 3.338-.317 6.191-.616 6.34-.653.149-.056 1.753-2.07 3.543-4.475 2.89-3.897 3.263-4.345 3.375-3.935.075.243.392.82.69 1.287Zm4.233 5.948c1.399 1.958 2.592 3.655 2.629 3.767.038.112-1.958 2.238-4.456 4.736l-4.55 4.532-18.964-1.902c-13.557-1.362-19.076-1.865-19.281-1.716-.206.112-.392.671-.523 1.473-.41 2.406-1.137 4.028-2.144 4.774-.727.522-2.853.764-4.662.522-5.836-.783-8.372-3.543-7.421-8.055.522-2.387 2.629-5.296 4.195-5.725 1.921-.54 6.098.186 11.263 1.94l1.343.447 15.607.13c8.597.075 15.832.075 16.093.019.317-.093 1.809-1.604 4.251-4.326 2.089-2.313 3.842-4.196 3.916-4.196.093 0 1.305 1.604 2.704 3.58Zm-73.805 3.208c.037.018.037 3.822.019 8.41l-.056 8.372-3.394-8.559-3.394-8.54 3.394.13c1.846.056 3.394.15 3.431.187Zm14.974.037c0 .056-.206.373-.448.69-1.025 1.361-1.715 3.207-1.902 5.072-.56 5.389 4.121 9.081 11.114 8.801 1.174-.037 2.461-.186 2.871-.298 1.399-.448 2.406-1.883 3.375-4.774.112-.354.131-.354.299-.037.429.746 1.119 4.028 1.137 5.445.038 1.25-.037 1.66-.447 2.517-.578 1.268-1.268 1.977-2.48 2.536l-.933.448H67.853V81.199h6.62c3.636 0 6.62.056 6.62.112Zm35.187 9.696 17.826 1.772 1.473-1.455 1.492-1.454-.112 4.941c-.28 12.736-.336 22.153-.13 22.526.186.336.13.392-.504.485-2.256.373-25.957 3.244-33.9 4.121-6.918.764-9.678 1.137-10.405 1.417-1.455.541-3.133 2.126-3.879 3.673-.522 1.082-.615 1.492-.671 3.021-.037 1.25.578 8.876 2.088 25.64 2.387 26.348 2.089 24.334 3.506 24.334h.709v1.473c0 .821-.075 1.529-.168 1.604-.094.056-.355-.149-.578-.466-.466-.671-.84-.69-1.958-.149l-.84.41-.54-.522c-.392-.373-.653-.485-.932-.392-.448.131-.69.802-.41 1.082.354.354.223.615-.411.913-.634.299-.634.299-1.137-.354-.56-.69-1.138-.764-1.492-.186-.15.242-.13.447.13.895.41.746.41.82-.168 1.081-.466.205-.54.168-1.044-.447-.634-.765-.764-.783-1.268-.28-.391.392-.335.783.15 1.361.149.168.242.355.205.392-.038.037-.784.503-1.66 1.044-1.865 1.156-2.797 1.846-3.86 2.853l-.783.746-.224-.541c-.447-1.193-2.051-7.85-2.592-10.815-1.436-8.018-1.976-16.801-1.492-24.167.933-13.966 3.935-26.329 9.473-39.046 1.697-3.916 2.648-5.8 4.923-9.809l1.865-3.3 2.554-.056c2.406-.056 2.61-.094 3.786-.653 2.33-1.1 3.673-3.058 3.84-5.575.15-2.238-.41-4.96-1.547-7.59-.112-.26-.037-.317.373-.317.28 0 8.522.802 18.312 1.79Zm103.733 34.945v24.055h-21.444v-48.11h21.444v24.055Zm26.665 0v24.055H223.369v-48.11H246.678v24.055ZM87.004 103.613c-.038.13-.69 1.286-1.436 2.573-6.06 10.498-10.89 24.241-13.053 37.108-1.194 7.141-1.38 9.435-1.38 17.901 0 6.862.037 8.149.41 11.374.709 6.042 2.145 13.259 3.674 18.275.391 1.305.429 1.678.26 2.088-.167.41-.335.522-.801.522-.932 0-1.044.261-1.044 2.238 0 1.137.074 1.864.224 2.014.13.13.67.223 1.212.223h.988v1.679c0 .913-.037 1.678-.075 1.678-.056 0-7.067-4.625-15.626-10.293-8.54-5.65-18.87-12.494-22.936-15.179-4.084-2.704-7.421-4.979-7.421-5.053 0-.578.671-4.028 1.119-5.893 3.561-14.395 11.188-28.418 23.16-42.552 4.549-5.371 11.318-11.972 18.05-17.584l1.585-1.324h6.6c5.184-.019 6.564.037 6.49.205Zm92.34 14.675 1.771.112.149.653c1.213 5.388 1.641 11.486.933 13.519-.224.652-.485 1.007-.895 1.249-2.648 1.529-17.771 3.338-36.437 4.345-9.435.503-16.465.82-20.94.951-3.711.112-4.513.186-4.83.429-.373.317-.354.428 2.984 18.572 1.827 10.051 3.338 18.293 3.319 18.311-.037.038-10.088 1.138-10.144 1.082-.019-.019-3.879-10.424-8.578-23.141l-8.521-23.104v-1.678c0-1.454.074-1.809.503-2.611.876-1.678 2.219-2.778 3.972-3.225.41-.112 2.517-.411 4.662-.672 2.163-.279 4.848-.615 5.967-.764 1.137-.149 7.253-.914 13.612-1.678 12.177-1.492 12.027-1.455 12.027-2.387 0-.355.299-.355 19.337-.224 10.629.075 20.121.186 21.109.261Zm-81.264 6.47c-1.193 1.362-1.604 2.592-1.604 4.923v1.958l4.084 11.002 4.084 10.983-.112 1.604c-.075.876-.41 6.079-.783 11.561-.355 5.482-.69 10.33-.765 10.759l-.093.802h-4.848c-4.233 0-4.83-.037-4.83-.298 0-.149-.97-11.002-2.144-24.092-1.306-14.303-2.107-24.111-2.033-24.558.168-1.101 1.156-2.816 2.014-3.562 1.063-.914 2.406-1.343 5.11-1.641 1.305-.13 2.442-.261 2.517-.28.093 0-.187.373-.597.839Zm26.74 16.466c-.056.093-.112 4.979-.112 10.871 0 6.228-.075 10.498-.168 10.219-.093-.261-.969-4.923-1.958-10.349-.988-5.445-1.846-10.07-1.883-10.294-.093-.317-.019-.41.336-.484.857-.168 3.897-.131 3.785.037Zm60.901 12.4c9.827 1.324 18.256 7.291 22.805 16.13 1.268 2.48 2.052 4.736 2.742 7.776.41 1.79.428 2.219.484 13.258l.075 11.43h-1.604l-.056-2.275c-.373-18.236-14.656-34.031-32.912-36.417-3.244-.411-31.327-.411-33.135.018-4.028.933-7.664 4.009-9.324 7.907-.988 2.368-.988 2.256-1.063 12.325l-.093 9.417-.541-.075c-.429-.055-.541-.167-.541-.54 0-1.417-1.23-4.587-3.375-8.652-1.566-2.965-1.753-3.208-2.442-3.115l-.523.094v-1.455c0-1.38.019-1.436.467-1.547.596-.15.596-.56 0-3.823-.448-2.443-.467-2.704-.467-11.617v-9.1h28.773c23.644 0 29.108.056 30.73.261Zm-75.427 15.104c2.032 5.52 3.822 10.163 3.972 10.312.186.205.503.261 1.081.168.895-.112.802-.243 1.175 1.827.093.616.186 1.324.186 1.585l-.018.485-.522-.634c-.56-.69-.746-.69-2.126.019l-.709.354-.373-.466c-.708-.895-1.734-.392-1.342.634.186.485.149.541-.429.858l-.634.335-.522-.615c-.448-.541-.616-.615-1.026-.504-.391.094-.503.224-.503.653 0 .298.13.634.279.765.411.335.355.522-.261.82-.522.28-.559.28-1.044-.373-.41-.522-.597-.634-.932-.559-.392.093-.522-.056-1.231-1.38-.447-.839-.97-1.641-1.156-1.828-.317-.279-.373-.279-.914.019-.708.41-.783.336-.634-.522.112-.597.187-.653.765-.653.466 0 .727-.112.914-.429.186-.298.447-3.151.951-10.945.372-5.8.727-10.667.783-10.816.13-.373-.056-.857 4.27 10.89Zm67.148-3.561c3.972.634 7.142 1.622 10.591 3.3 10.088 4.904 17.305 14.06 19.748 25.006.783 3.561 1.118 7.85.634 8.335-.317.317-72.519.317-72.836 0-.168-.168-.224-3.338-.224-13.146 0-14.638 0-14.675 1.362-17.398.578-1.212 1.119-1.92 2.181-2.983 1.94-1.94 3.991-2.928 7.086-3.431.261-.038 7.012-.056 15.011-.038 12.419.038 14.825.094 16.447.355Zm-53.554 14.619c.074.802.186 1.809.279 2.256.131.765.112.821-.634 1.455-.41.373-1.23.913-1.809 1.193-.969.504-3.132 1.231-3.225 1.082a23.335 23.335 0 0 1-.523-.728l-.503-.671.466-.41c.541-.466.541-.597.131-3.021-.168-1.007-.261-1.883-.224-1.939.093-.094 4.27-.597 5.221-.634l.69-.019.131 1.436Zm-89.506-.597c1.678.261 4.755.988 4.755 1.119 0 .037-2.76 5.892-6.135 12.997l-6.154 12.922-12.586.056-12.606.038v-.69c0-.392.13-1.548.28-2.574 1.827-12.195 11.542-21.91 23.868-23.868 2.107-.335 6.359-.335 8.578 0Zm66.663 2.387v1.566l-1.063.802c-1.212.895-2.2 1.361-3.692 1.753l-1.007.261-.485-.746-.503-.764.484-.448c.448-.41.485-.541.485-2.2v-1.772H101.045v1.548Zm-57.377.354c1.193.802 2.182 1.492 2.182 1.548 0 .168-13.072 27.598-13.352 28.026-.708 1.101-2.498 1.492-3.785.821-.895-.448-1.566-1.734-1.436-2.741.056-.429 2.536-5.893 5.986-13.146 3.245-6.825 6.321-13.258 6.825-14.321.634-1.38.97-1.884 1.137-1.79.13.074 1.23.801 2.443 1.603Zm5.594 4.308c5.24 4.661 8.69 11.635 9.342 18.908l.112 1.175H47.79c-8.67 0-10.909-.056-10.834-.243.037-.112 2.368-5.035 5.165-10.908 4.513-9.473 5.11-10.648 5.39-10.443.167.131.95.821 1.752 1.511Zm83.11 9.155v.634l-13.929.112c-7.683.056-15.272.168-16.876.224l-2.946.112v-1.343l1.547-.018c4.7-.094 21.538-.28 26.479-.317l5.725-.038v.634Zm-35.43.206v.652H75.126V194.946H96.944v.653Zm36.735 3.71c0 .951.056 2.014.112 2.331l.131.578H77.736v-4.289l16.652-.018c14.097-.038 33.527-.187 38.04-.317l1.249-.038v1.753Zm-40.837 9.454v4.513l-2.181-.112c-4.569-.224-7.981-1.921-10.33-5.109-.747-1.007-1.847-3.114-1.847-3.562 0-.168 1.566-.224 7.18-.224h7.178v4.494Zm2.797.541v5.035H94.518v-10.07h1.12v5.035Zm101.962-4.307c1.604 1.1 2.313 2.685 2.014 4.531-.242 1.473-1.1 2.536-2.629 3.244l-.932.448H97.129v-8.951l49.769.038 49.75.056.951.634Zm-171.85 4.4c-.075 1.231-.038 1.511.428 2.424 1.1 2.257 3.785 3.115 6.06 1.958.989-.503 1.567-1.268 2.76-3.673l1.063-2.107 4.382.037 4.382.056-.019 2.051c-.056 5.538-3.17 10.443-8.186 12.867-2.088 1.025-3.43 1.38-5.687 1.51-5.967.392-11.58-3.002-14.153-8.522-.932-2.032-1.324-3.804-1.324-6.116v-1.883h10.386l-.093 1.398Zm160.793 6.191c-2.201 5.277-7.832 9.007-13.613 9.007-3.132 0-6.601-1.231-9.193-3.245-1.753-1.38-3.785-4.084-4.512-5.986l-.187-.466h27.784l-.279.69Z"/>
      <path fill="#50647C" d="M106.022 185.448a.855.855 0 0 1 1.441-.92l2.538 3.974a.855.855 0 0 1-1.441.92l-2.538-3.974ZM108.494 184.143a.852.852 0 0 1 .217-1.188.853.853 0 0 1 1.188.216l3.073 4.443a.855.855 0 0 1-1.406.972l-3.072-4.443ZM111.505 183.203a.854.854 0 1 1 1.406-.972l3.072 4.442a.855.855 0 0 1-1.405.972l-3.073-4.442Z"/>
      <path fill="#C9CFD6" d="M74.703 194.7H96.72v1.881H74.703V194.7ZM98.224 194.7h34.247v1.881H98.224V194.7Z"/>
      <path fill="#50647C" d="M82.927 185.652a.847.847 0 0 1 1.43-.909l2.321 3.652a.847.847 0 0 1-1.429.909l-2.322-3.652ZM85.185 183.958a.847.847 0 1 1 1.43-.908l2.992 4.707a.846.846 0 1 1-1.43.908l-2.992-4.707ZM88.384 183.017a.847.847 0 1 1 1.43-.908l2.992 4.707a.847.847 0 1 1-1.43.908l-2.992-4.707Z"/>
      <path fill="#000" d="M150.031 19.663c-3.058.765-4.96 3.636-4.401 6.657.261 1.362.69 2.22 1.604 3.058 1.268 1.231 2.163 1.567 4.065 1.567 1.454 0 1.809-.075 2.61-.504 2.443-1.286 3.637-4.083 2.909-6.806-.205-.764-1.081-2.107-1.771-2.722-1.175-1.026-3.543-1.604-5.016-1.25Zm3.207 2.052c3.319 1.696 2.573 6.955-1.1 7.608-3.711.67-6.321-3.245-4.252-6.303 1.175-1.716 3.469-2.275 5.352-1.305ZM138.432 31.802c-1.641 1.045-3.096 1.996-3.245 2.126-.783.765 2.331 3.823 3.916 3.823 1.119 0 2.219-2.313 2.629-5.52.355-2.704.336-2.722-3.3-.429Zm2.219.895c-.093.765-.187.951-.485.951-.597 0-1.753.69-2.331 1.399l-.541.653-.54-.56c-.336-.354-.467-.634-.355-.727.317-.317 4.252-2.797 4.326-2.741.019.037 0 .503-.074 1.025Z"/>
      <path fill="#FF7579" d="m140.844 31.37-.283 2.445c-1.43-.15-2.791 1.318-3.292 2.07l-1.224-1.317 4.799-3.199ZM140.28 34.943c0 .753-.878 1.63-1.317 1.976-.094 0-.395-.113-.847-.565.095-.752 2.164-2.352 2.164-1.411Z"/>
      <path fill="#000" d="M87.507 82.952c-3.189 1.492-3.189 5.967 0 7.608.895.466 2.536.504 3.468.112 2.126-.932 3.133-3.431 2.238-5.52-.988-2.293-3.468-3.244-5.706-2.2Z"/>
      <path fill="#D19A84" d="m221.207 65.811 27.11 4.812-4.823 27.171-27.11-4.812 4.823-27.17Z"/>
      <path fill="#000" d="M220.013 64.64c-.149.374-1.343 6.9-4.662 25.66-.41 2.405-.522 3.318-.373 3.58.112.205.224.372.243.372.018 0 6.452 1.138 14.302 2.518s14.452 2.517 14.694 2.517c.261 0 .485-.168.597-.429.112-.224 1.286-6.62 2.61-14.209 1.343-7.59 2.462-14.004 2.518-14.265.223-1.025.559-.95-14.676-3.636-7.85-1.38-14.47-2.517-14.675-2.517-.242 0-.466.168-.578.41Zm10.293 2.873c.989.167 1.902.372 2.014.447.187.112-.354 3.431-2.107 13.426-1.287 7.31-2.387 13.314-2.424 13.351-.037.038-2.592-.354-5.65-.895l-5.576-.988.411-2.331c1.641-9.398 4.177-23.682 4.27-24.073l.093-.485 3.58.634c1.977.335 4.382.764 5.389.914Zm11.99 2.144c3.077.54 5.669 1.026 5.744 1.1.111.093-4.438 26.628-4.606 26.796-.056.075-12.233-2.107-12.307-2.2-.038-.038.988-6.098 2.293-13.464l2.35-13.388.466.075c.261.055 2.984.54 6.06 1.081Z"/>
      <path fill="#566172" d="M126.355 140.883c2.784-.075 36.598-1.035 43.561-3.387h8.749c3.011.565 3.921 2.666 4.234 4.046v10.067c-18.973-.063-56.733-.151-56.733 0 0 .15-.094-6.304-.094-9.597 0-.188.057-.677.283-1.129Z"/>
      <circle cx="89.379" cy="86.689" r="2.634" fill="#51667A"/>
    </symbol>
    <symbol id="snapp" viewBox="0 0 251 92">
      <path fill="#00E261" d="M92.547 76.527a9.053 9.053 0 0 0-2.823-1.912 8.564 8.564 0 0 0-3.432-.695 8.543 8.543 0 0 0-3.43.695 9.03 9.03 0 0 0-2.823 1.912 8.973 8.973 0 0 0-1.91 2.823 8.533 8.533 0 0 0-.696 3.432c0 1.217.23 2.36.696 3.43a8.96 8.96 0 0 0 1.91 2.824 8.932 8.932 0 0 0 2.823 1.91 8.518 8.518 0 0 0 3.43.695c1.215 0 2.358-.23 3.432-.695a9.036 9.036 0 0 0 2.823-1.91 9.028 9.028 0 0 0 1.912-2.823 8.555 8.555 0 0 0 .695-3.43 8.57 8.57 0 0 0-.695-3.433 9.071 9.071 0 0 0-1.912-2.823ZM250.76.26h-17.025v68.867h17.025V.26ZM119.305 15.41a8.957 8.957 0 0 0 2.825 1.91 8.519 8.519 0 0 0 3.431.695c1.214 0 2.358-.23 3.432-.695a9.047 9.047 0 0 0 2.823-1.91 9.044 9.044 0 0 0 1.912-2.823 8.57 8.57 0 0 0 .695-3.43 8.585 8.585 0 0 0-.695-3.432 9.086 9.086 0 0 0-1.912-2.823 9.024 9.024 0 0 0-2.823-1.91 8.565 8.565 0 0 0-3.432-.695 8.557 8.557 0 0 0-3.431.695 9.01 9.01 0 0 0-2.825 1.91 9.046 9.046 0 0 0-1.91 2.823 8.545 8.545 0 0 0-.695 3.432c0 1.217.231 2.36.695 3.43a8.982 8.982 0 0 0 1.91 2.823ZM72.301 76.527a9.073 9.073 0 0 0-2.823-1.912 8.561 8.561 0 0 0-3.43-.695 8.542 8.542 0 0 0-3.43.695 9.031 9.031 0 0 0-4.735 4.735 8.533 8.533 0 0 0-.695 3.432c0 1.217.23 2.36.695 3.43a8.906 8.906 0 0 0 1.912 2.824 8.932 8.932 0 0 0 2.823 1.91 8.518 8.518 0 0 0 3.43.695 8.53 8.53 0 0 0 3.43-.695 8.992 8.992 0 0 0 4.733-4.733 8.556 8.556 0 0 0 .698-3.43 8.54 8.54 0 0 0-.698-3.433 9.005 9.005 0 0 0-1.91-2.823ZM52.058 76.527a9.052 9.052 0 0 0-2.823-1.912 8.561 8.561 0 0 0-3.43-.695c-1.217 0-2.36.233-3.433.695a9.031 9.031 0 0 0-4.734 4.735 8.533 8.533 0 0 0-.696 3.432c0 1.217.23 2.36.696 3.43a8.967 8.967 0 0 0 1.911 2.824 8.932 8.932 0 0 0 2.823 1.91 8.527 8.527 0 0 0 3.433.695 8.53 8.53 0 0 0 3.43-.695 9.015 9.015 0 0 0 4.733-4.733 8.556 8.556 0 0 0 .695-3.43 8.571 8.571 0 0 0-.695-3.433 9.037 9.037 0 0 0-1.91-2.823ZM211.122 21.907v20.648c0 2.2-.161 3.981-.478 5.342-.02.086-.049.16-.071.242h-.002a8.84 8.84 0 0 1-1.669 2.585 7.302 7.302 0 0 1-2.468 1.721 7.54 7.54 0 0 1-2.846.611h-47.52c-1.391-.137-2.166-.514-2.166-.514-.869-.289-1.651-.78-2.344-1.476-.811-.812-1.376-1.897-1.694-3.257-.209-.896-.344-1.99-.415-3.247l-.004-22.774-15.829.006V43.89c0 2.199-.159 3.979-.478 5.342a2.819 2.819 0 0 1-.119.348 8.72 8.72 0 0 1-1.622 2.477 7.358 7.358 0 0 1-2.47 1.723c-.9.39-1.848.587-2.845.61h-.618a7.523 7.523 0 0 1-2.845-.61 7.334 7.334 0 0 1-2.468-1.724 8.779 8.779 0 0 1-1.669-2.585h-.002c-.022-.082-.051-.157-.071-.241-.318-1.363-.478-3.143-.478-5.342V21.786l-15.83-.005-.004 25.42c-.035.184-.064.38-.104.55-.319 1.36-.884 2.444-1.693 3.258-.695.694-1.476 1.186-2.345 1.477 0 0-.776.377-2.166.514H39.557a10.9 10.9 0 0 0-2.567.488c-4.929 1.425-5.781 5.884-5.781 5.884l-2.496 9.755h63.563l-.007-.002c3.128 0 5.805-.68 8.035-1.694a16.037 16.037 0 0 0 5.69-4.301c.229-.271.428-.553.631-.835 3.551 4.12 8.875 6.744 14.836 6.744l3.9.037h.831l3.902-.037c5.999 0 11.354-2.662 14.903-6.828.267.395.556.78.873 1.155a16.036 16.036 0 0 0 5.69 4.3c2.228 1.013 4.907 1.521 8.035 1.521l-.007.002 48.01-.035c9.427 0 17.278-6.553 19.003-15.229l.033-.025c.15-.825.247-1.669.293-2.538l.005-.073c.015-.298.02-.6.022-.906l.002-.049v-.06l-.004-28.36-15.83-.007ZM16.567.26 5.55 42.571h9.158a9.718 9.718 0 0 0 9.411-7.29L33.256.26h-16.69Z"/>
      <path fill="#00E261" fill-rule="evenodd" d="M11.047 48.554c5.677 0 10.286 4.608 10.286 10.285 0 5.677-4.609 10.288-10.286 10.288S.76 64.517.76 58.839c0-5.677 4.609-10.285 10.287-10.285Z" clip-rule="evenodd"/>
      <path fill="#00E261" d="M5.998 1.11h.022l1.277 3.557h.565l1.279-3.556h.022v3.556h.959V.26H8.574L7.58 2.867 6.59.26H5.037v4.407h.96V1.111ZM2.103 4.667h1.06V1.111h1.34V.26H.76v.85h1.343v3.557Z"/>
    </symbol>
    <symbol id="empty-search" viewBox="0 0 182 174">
      <path fill="#1FA7A7" fill-rule="evenodd" d="M111.627 106.638a48.286 48.286 0 0 1-29.127 9.717c-26.786 0-48.5-21.714-48.5-48.5s21.714-48.5 48.5-48.5 48.5 21.714 48.5 48.5c0 12.612-4.814 24.099-12.704 32.725l14.695 14.695.707-.707a7.002 7.002 0 0 1 9.9 0l34.149 34.149a7 7 0 0 1 0 9.899l-8.485 8.486a7.002 7.002 0 0 1-9.9 0l-34.149-34.149a7.002 7.002 0 0 1 0-9.9l1.414-1.414-15-15.001Zm8.595-38.293c0 20.563-16.669 37.232-37.232 37.232s-37.232-16.67-37.232-37.232c0-20.563 16.67-37.232 37.232-37.232 20.563 0 37.232 16.67 37.232 37.232Z" clip-rule="evenodd"/>
      <path fill="#1FA7A7" fill-rule="evenodd" d="M59 65a9 9 0 1 0 18 0h-3a6 6 0 0 1-12 0h-3ZM108 65a9 9 0 1 1-18 0h3a6 6 0 0 0 12 0h3Z" clip-rule="evenodd"/>
      <circle cx="83" cy="87.355" r="6" fill="#1FA7A7"/>
      <path fill="#E4CD00" d="m68.306 3.194 3.478 3.195 4.113-2.32-1.963 4.294 3.477 3.195-4.691-.54-1.964 4.294-.936-4.628-4.691-.541 4.113-2.32-.936-4.63Z"/>
      <path fill="#3756C3" d="m163.716 103.69-.705 3.32 2.939 1.697-3.375.355-.706 3.319-1.38-3.1-3.375.354 2.522-2.27-1.381-3.101 2.939 1.697 2.522-2.271Z"/>
      <path fill="#22FF0E" d="m179 167.355.674 2.073h2.179l-1.763 1.281.673 2.073-1.763-1.281-1.763 1.281.673-2.073-1.763-1.281h2.179l.674-2.073Z"/>
      <path fill="#BFBFBF" d="m13.63 75.605 3.892 3.231 4.986-.852-3.23 3.893.851 4.986-3.892-3.23-4.987.851 3.231-3.892-.852-4.987Z"/>
      <path fill="#1FA7A7" fill-rule="evenodd" d="M15 47.355a6 6 0 1 0 0-12 6 6 0 0 0 0 12Zm0-2a4 4 0 1 0 0-8 4 4 0 0 0 0 8Z" clip-rule="evenodd"/>
      <path fill="#F7DF00" fill-rule="evenodd" d="M110.5 143a3.5 3.5 0 1 0 0-7 3.5 3.5 0 0 0 0 7Zm0-2a1.5 1.5 0 1 0-.001-3.001A1.5 1.5 0 0 0 110.5 141Z" clip-rule="evenodd"/>
      <circle cx="176" cy="126.355" r="2" fill="#7D0000"/>
      <circle cx="51" cy="3.355" r="1" fill="#2E0A0A"/>
      <circle cx="41" cy="22.355" r="1" fill="#646464"/>
      <circle cx="3" cy="23.355" r="1" fill="#A2A2A2"/>
      <circle cx="1" cy="60.355" r="1" fill="#A2A2A2"/>
      <circle cx="18" cy="12.355" r="2" fill="#00A307"/>
    </symbol>
  </def>
</svg>