<svg width="250" height="173" viewBox="0 0 250 173" fill="none"
    xmlns="http://www.w3.org/2000/svg">
    <path d="M163.429 112.657L112.563 24.2565L149.105 3.26733L212.356 112.657H163.429Z" fill="black"/>
    <path d="M27.9448 100.271L64.4868 79.1404L83.8214 112.657H35.0358L27.9448 100.271Z" fill="black"/>
    <path d="M99.6577 169.053H110.058V126.98H99.6577V169.053Z" fill="black"/>
    <path d="M229.989 170.046C218.36 170.046 211.364 164.043 210.985 155.581H221.953C221.953 158.228 223.607 162.104 230.698 162.246C235.425 162.246 237.647 159.457 237.647 157.377C237.364 154.068 233.204 153.784 228.76 153.075C224.316 152.366 220.535 151.563 217.793 150.144C214.294 148.348 211.931 144.472 211.931 140.028C211.931 132.512 218.454 126.555 229.327 126.555C239.869 126.555 246.535 132.086 247.244 140.312H236.655C236.56 138.09 236.135 134.592 229.895 134.592C225.687 134.592 222.898 135.442 222.662 138.373C222.662 142.675 231.407 142.392 238.215 144.188C244.738 145.843 248.898 149.908 248.898 155.581C248.898 166.028 240.436 170.046 229.989 170.046Z" fill="black"/>
    <path d="M70.7739 62.7368L107.316 41.6531L148.301 112.657H110.058V123.057H99.6577V112.61L70.7739 62.7368Z" fill="black"/>
    <path d="M71.7193 170.046C59.6174 170.046 49.7847 160.166 49.7847 148.206C49.7847 136.104 59.6174 126.555 71.7193 126.555C76.3048 126.555 80.4648 127.784 84.1048 130.29V112.657H94.5048V169.053H84.1048V166.264C80.4648 168.628 76.3048 170.046 71.7193 170.046ZM59.7593 148.206C59.7593 154.73 65.3375 160.166 72.0029 160.166C78.5266 160.166 84.1048 154.73 84.1048 148.206C84.1048 141.682 78.5266 136.104 72.0029 136.104C65.3375 136.104 59.7593 141.682 59.7593 148.206Z" fill="black"/>
    <path d="M148.585 112.657H158.843V169.053H148.585V166.264C145.087 168.628 140.785 170.046 136.058 170.046C124.098 170.046 114.265 160.166 114.265 148.206C114.265 136.104 124.098 126.555 136.058 126.555C140.785 126.555 144.945 127.784 148.585 130.29V112.657ZM124.382 148.206C124.382 154.73 129.96 160.166 136.342 160.166C143.007 160.166 148.585 154.73 148.585 148.206C148.585 141.682 143.007 136.104 136.342 136.104C129.96 136.104 124.382 141.682 124.382 148.206Z" fill="black"/>
    <path d="M184.134 170.046C172.221 170.046 162.341 160.166 162.341 148.206C162.341 136.104 172.221 126.555 184.134 126.555C188.72 126.555 193.021 127.784 196.52 130.29V126.933H206.92V169.053H196.52V166.264C193.021 168.628 188.861 170.046 184.134 170.046ZM172.458 148.206C172.458 154.73 178.036 160.166 184.56 160.166C191.083 160.166 196.52 154.73 196.52 148.206C196.52 141.682 191.083 136.104 184.56 136.104C178.036 136.104 172.458 141.682 172.458 148.206Z" fill="black"/>
    <path d="M11.5409 148.206C11.5409 154.73 17.1191 160.166 23.6428 160.166C30.3082 160.166 35.8864 154.73 35.8864 148.206C35.8864 141.682 30.3082 136.104 23.6428 136.104C17.1191 136.104 11.5409 141.682 11.5409 148.206ZM23.3591 170.046C11.3991 170.046 1.51904 160.166 1.51904 148.206C1.51904 136.104 11.3991 126.555 23.3591 126.555C27.9446 126.555 32.2464 127.784 35.8864 130.29V126.933H46.1447V169.053H35.8864V166.264C32.3882 168.628 28.0864 170.046 23.3591 170.046Z" fill="black"/>
</svg>
