<svg width="250" height="90" viewBox="0 0 250 90" fill="none"
    xmlns="http://www.w3.org/2000/svg">
    <g clip-path="url(#clip0_86_20)">
        <path d="M27.5769 89.0609C20.1279 88.765 14.0335 86.7267 9.26823 82.941C8.35879 82.2178 6.1917 80.0494 5.46466 79.1349C3.53227 76.7051 2.21849 74.3403 1.34222 71.7165C-1.35421 63.64 0.0335455 53.0418 5.3116 41.4105C9.83073 31.4526 16.8039 21.5763 28.9697 7.89776C30.7618 5.88498 36.0985 -0.00146484 36.133 -0.00146484C36.1457 -0.00146484 35.8549 0.502358 35.4889 1.11588C32.3256 6.41433 29.619 12.6554 28.1445 18.0585C25.7759 26.7281 26.0616 34.1681 28.9812 39.9372C30.9952 43.9117 34.448 47.3543 38.3307 49.2574C45.1279 52.5877 55.0794 52.8633 67.2324 50.0635C68.0692 49.8696 109.531 38.8633 159.37 25.6044C209.209 12.3442 249.994 1.50363 250 1.51256C250.014 1.52406 134.209 51.0775 74.0934 76.7854C64.573 80.8556 62.0271 81.8836 57.5513 83.455C46.11 87.4729 35.8613 89.39 27.5769 89.0609Z" fill="black"/>
    </g>
    <defs>
        <clipPath id="clip0_86_20">
            <rect width="250" height="89.0975" fill="white"/>
        </clipPath>
    </defs>
</svg>
