<svg width="250" height="63" viewBox="0 0 250 63" fill="none"
    xmlns="http://www.w3.org/2000/svg">
    <path d="M25.1441 3.3291H4.75684V12.548H10.7565V40.4766C10.7565 40.4766 10.7565 57.932 29.1996 57.932C29.1996 57.932 37.0179 58.0783 41.6274 51.6449C41.6274 51.6449 45.5418 57.932 52.9368 57.932C52.9368 57.932 59.9346 58.6375 64.6747 54.305C64.6747 54.305 74.4633 47.741 74.3118 27.4844C74.3118 27.4844 74.0295 12.2711 70.4026 3.3291H53.6162V12.548H58.6699C58.6699 12.548 61.33 20.0894 61.33 29.7264C61.33 29.7264 61.6226 35.5013 58.6699 41.595C58.6699 41.595 56.8668 45.9327 52.9368 45.9327C52.9368 45.9327 49.4562 45.7864 49.5868 41.595V3.3291H29.1996V12.548H35.2097V40.9104C35.2097 40.9104 35.2097 45.9327 30.1873 45.9327C30.1873 45.9327 25.1441 45.9275 25.1441 40.9104V3.3291Z" fill="#ED1A3A"/>
    <path d="M87.0584 7.48389C87.0584 7.48389 95.5352 7.48389 95.5352 14.0479C95.5352 14.0479 95.5718 20.612 87.0584 20.612C87.0584 20.612 78.5293 20.612 78.5293 14.0479C78.5293 14.0479 78.4666 7.48389 87.0584 7.48389Z" fill="#ED1A3A"/>
    <path d="M76.9668 21.7669H93.5755V43.7691C93.5755 43.7691 93.5755 46.2828 95.8907 46.2828C95.8907 46.2828 98.7546 45.9379 100.427 43.1994C100.427 43.1994 102.946 39.9905 102.946 37.3409V10.7397C102.946 10.7397 103.291 1.10272 116.205 1.10272C116.205 1.10272 129.061 0.684621 129.061 13.1804C129.061 13.1804 129.772 19.0389 125.016 27.4269C125.016 27.4269 122.92 31.3308 120.537 34.9003C120.537 34.9003 118.797 37.6074 117.119 39.9906C117.119 39.9906 115.792 41.4643 115.792 43.351C115.792 43.351 115.646 46.4919 119.006 46.4919C119.006 46.4919 121.943 46.4239 124.237 43.9049C124.237 43.9049 127.671 40.6961 129.479 35.5326C129.479 35.5326 132.343 29.3083 132.479 21.7669H144.703C144.703 21.7669 144.766 22.9481 145.126 24.2128C145.126 24.2128 145.544 26.0942 147.995 29.4546C147.995 29.4546 151.413 34.3411 152.464 36.1545C152.464 36.1545 155.04 39.9905 155.04 44.8195C155.04 44.8195 154.972 49.6328 151.607 52.9828C151.607 52.9828 147.844 57.6706 142.33 57.6706C142.33 57.6706 138.489 57.6706 135.071 55.7735C135.071 55.7735 130.875 53.5368 129.061 51.023C129.061 51.023 128.868 50.746 128.376 50.746L127.697 51.0439C127.697 51.0439 125.209 53.6831 122.57 55.1412C122.57 55.1412 119.074 57.6706 113.984 57.6706C113.984 57.6706 109.364 57.6706 106.578 55.0053C106.578 55.0053 104.132 52.9828 103.641 50.6049L103.124 50.2077L102.523 50.5787C102.523 50.5787 100.359 53.1291 97.631 55.0053C97.631 55.0053 94.6991 57.6706 89.5305 57.6706C89.5305 57.6706 84.8531 57.7333 82.402 55.2248C82.402 55.2248 79.6896 52.8417 79.6896 49.2199V29.8675C79.6896 29.8675 79.8203 28.0488 76.9668 28.0488V21.7669ZM134.58 40.6229C134.021 42.0601 133.247 43.6279 133.247 43.6279L132.976 44.4955C133.038 44.9763 133.284 45.4101 133.284 45.4101C133.911 46.4344 134.826 46.9884 134.826 46.9884C135.772 47.7462 137.345 47.7462 137.345 47.7462C139.247 47.7462 140.161 46.2515 140.161 46.2515C141.113 44.9502 141.113 43.5234 141.113 43.5234C141.113 42.5827 140.412 41.2919 140.412 41.2919C139.879 40.1735 138.808 38.1509 138.808 38.1509C138.17 37.1057 137.554 35.7783 137.554 35.7783C137.251 34.9996 136.968 35.1093 136.968 35.1093L136.43 35.9141C135.427 38.7049 134.58 40.6229 134.58 40.6229ZM115.959 28.1742L116.524 27.5314C118.907 24.103 120.684 17.7219 120.684 17.7219C121.238 15.9502 121.3 13.4887 121.3 13.4887C121.3 11.9156 120.684 10.3844 120.684 10.3844C119.931 8.85311 118.834 8.87923 118.834 8.87923C117.417 8.87923 116.351 10.7763 116.351 10.7763C115.369 12.3912 115.369 15.2708 115.369 15.2708V27.0663C115.369 28.7125 115.959 28.1742 115.959 28.1742Z" fill="#ED1A3A"/>
    <path d="M155.95 39.3634C155.95 39.3634 156.221 30.7037 161.395 26.2405C161.395 26.2405 166.423 21.2025 174.456 21.2025C174.456 21.2025 182.483 21.2757 186.821 25.7441C186.821 25.7441 188.148 26.9983 188.848 28.0488C188.848 28.0488 189.34 28.608 189.752 28.1167C189.752 28.1167 192.339 25.1169 194.007 24.0037C194.007 24.0037 197.43 21.1398 201.266 21.1398C201.266 21.1398 204.422 21.0614 206.157 22.7442C206.157 22.7442 208.264 24.495 209.314 26.6586C209.314 26.6586 209.868 27.5628 210.699 26.7266C210.699 26.7266 212.444 24.8295 214.472 23.4445C214.472 23.4445 217.749 20.9255 222.374 20.9255C222.374 20.9255 226.487 21.0614 228.437 23.016C228.437 23.016 231.854 25.7441 231.854 29.5226V48.9377C231.854 48.9377 231.854 51.3052 233.955 51.3679H236.056V57.378H224.799C224.799 57.378 218.036 57.3048 218.036 49.9098V36.0082C218.036 36.0082 218.036 33.0763 214.404 33.0763C214.404 33.0763 210.349 33.1547 210.349 36.5047V57.378H196.531V35.9403C196.531 35.9403 196.452 33.9178 194.853 33.9178C194.853 33.9178 193.385 34.1268 192.543 35.1825C192.543 35.1825 191.859 35.8044 192.198 36.7817C192.198 36.7817 192.475 38.245 192.475 39.9278C192.475 39.9278 192.543 47.8089 187.531 52.4236C187.531 52.4236 182.634 57.6654 174.523 57.6654C174.523 57.6654 166.496 57.6654 161.887 53.056C161.887 53.056 155.95 48.2426 155.95 39.3634ZM174.252 48.2897C174.252 48.2897 176.551 48.3942 177.387 46.6173C177.387 46.6173 178.359 44.7255 178.584 39.4209V39.3634C178.359 34.0589 177.387 32.1774 177.387 32.1774C176.551 30.3953 174.252 30.5051 174.252 30.5051H174.184C174.184 30.5051 171.874 30.3953 171.032 32.1774C171.032 32.1774 170.06 34.0589 169.841 39.3634V39.4209C170.06 44.7255 171.032 46.6173 171.032 46.6173C171.874 48.3942 174.184 48.2897 174.184 48.2897H174.252Z" fill="#ED1A3A"/>
    <path d="M242.129 51.3C242.96 51.3 243.665 51.5875 244.246 52.178C244.836 52.7581 245.118 53.4584 245.118 54.2842C245.118 55.1204 244.836 55.8259 244.246 56.4112C243.671 56.9913 242.965 57.2788 242.129 57.2788C241.303 57.2788 240.592 56.9913 240.023 56.4112C239.448 55.8259 239.166 55.1204 239.166 54.2842C239.166 53.4584 239.448 52.7581 240.023 52.178C240.608 51.5875 241.314 51.3 242.129 51.3ZM245.615 54.2842C245.615 53.3278 245.275 52.5073 244.606 51.8383C243.916 51.1641 243.106 50.8245 242.145 50.8245C241.188 50.8245 240.368 51.1641 239.704 51.8383C239.025 52.5177 238.68 53.3278 238.68 54.2842C238.68 55.2458 239.025 56.0558 239.694 56.7352C240.363 57.4146 241.183 57.7543 242.145 57.7543C243.106 57.7543 243.916 57.4146 244.606 56.7352C245.275 56.0558 245.615 55.2458 245.615 54.2842ZM243.07 53.5368L242.678 54.1117L242.03 54.211H241.408V52.8418H241.988L242.819 52.9828L243.07 53.5368ZM240.749 52.3609V56.1708H241.408V54.6761H241.941L242.699 54.7963L243.064 55.6639V55.967L243.07 56.0976L243.08 56.1342L243.091 56.1708H243.712L243.697 56.129L243.655 55.9252V55.6378V55.3608L243.441 54.7807L242.798 54.4044L243.347 54.2267L243.712 53.4689C243.712 52.9933 243.509 52.6693 243.122 52.5073C242.902 52.4184 242.558 52.3609 242.071 52.3609H240.749Z" fill="#ED1A3A"/>
</svg>
